<?xml version="1.0" encoding="UTF-8"?>
<svg id="Layer_1" data-name="Layer 1" xmlns="http://www.w3.org/2000/svg" viewBox="0 0 1500 1000">
  <g id="Layer_2" data-name="Layer 2">
    <g style="opacity: .44;">
      <rect x="93.96" y="774.65" width="134.53" height="258.81" style="fill: #231f20;"/>
      <path d="M228.99,1033.96H93.45v-259.81h135.54v259.81h0ZM94.46,1032.96h133.53v-257.8H94.46v257.8Z" style="fill: #231f20;"/>
      <rect x="446.07" y="773.23" width="62.36" height="258.81" style="fill: #231f20;"/>
      <path d="M508.93,1032.54h-63.37v-259.81h63.37v259.81ZM446.57,1031.54h61.36v-257.8h-61.36v257.8Z" style="fill: #231f20;"/>
      <rect x="869.25" y="705.93" width="134.53" height="289.78" style="fill: #231f20;"/>
      <path d="M1004.29,996.21h-135.54v-290.78h135.54v290.78h0ZM869.76,995.21h133.53v-288.77h-133.53v288.77h0Z" style="fill: #231f20;"/>
      <polygon points="819.74 1033.68 625.46 1033.68 625.46 598.64 722.73 506.42 819.74 598.64 819.74 1033.68" style="fill: #231f20;"/>
      <path d="M820.25,1034.18h-195.29v-435.76l.16-.15,97.62-92.55,97.52,92.7v435.76h-.01ZM625.96,1033.18h193.28v-434.32l-96.51-91.75-96.77,91.75v434.32h0Z" style="fill: #231f20;"/>
      <rect x="1205.55" y="716.3" width="72.16" height="289.78" style="fill: #231f20;"/>
      <path d="M1278.21,1006.58h-73.17v-290.79h73.17v290.79h0ZM1206.05,1005.58h71.15v-288.77h-71.15v288.77h0Z" style="fill: #231f20;"/>
      <rect x="1290.43" y="728.96" width="134.53" height="289.78" style="fill: #231f20;"/>
      <path d="M1425.47,1019.24h-135.54v-290.78h135.54v290.78ZM1290.94,1018.24h133.53v-288.77h-133.53v288.77Z" style="fill: #231f20;"/>
      <rect x="47.71" y="958.61" width="1464.93" height="170.93" style="fill: #231f20;"/>
      <path d="M1513.14,1130.04H47.21v-171.93h1465.93v171.93ZM48.21,1129.04h1463.92v-169.92H48.21v169.92Z" style="fill: #231f20;"/>
    </g>
    <g>
      <rect x="87.32" y="767.11" width="134.53" height="258.81" style="fill: #aaacae;"/>
      <rect x="439.43" y="765.69" width="62.36" height="258.81" style="fill: #aaacae;"/>
      <rect x="862.61" y="698.39" width="134.53" height="289.78" style="fill: #aaacae;"/>
      <polygon points="813.1 1026.14 618.82 1026.14 618.82 591.1 716.09 498.88 813.1 591.1 813.1 1026.14" style="fill: #aaacae;"/>
      <rect x="1198.91" y="708.76" width="72.16" height="289.78" style="fill: #aaacae;"/>
      <rect x="1283.79" y="721.42" width="134.53" height="289.78" style="fill: #aaacae;"/>
      <rect y="951.07" width="1506" height="170.93" style="fill: #aaacae;"/>
    </g>
  </g>
</svg>