<?xml version="1.0" encoding="UTF-8"?>
<svg id="Layer_1" data-name="Layer 1" xmlns="http://www.w3.org/2000/svg" viewBox="0 0 1500 1000">
  <g id="Layer_4" data-name="Layer 4">
    <polygon points="1402.96 649.36 1402.96 492.39 1309.44 492.39 1309.44 795.4 1187.35 795.4 1187.35 492.39 1118.51 492.39 1118.51 790.09 1008.11 790.09 1008.11 762.41 897.71 762.41 897.71 606.88 824.75 606.88 824.75 840.39 735.56 840.39 735.56 729.79 662.67 729.79 662.67 492.39 564.42 492.39 564.42 964.41 514.61 964.41 514.61 914.9 416.37 914.9 416.37 729.79 318.13 729.79 318.13 597.44 239.8 597.44 239.8 856.59 109.87 856.59 109.87 770.51 .75 770.51 .75 1032.44 109.87 1032.44 239.8 1032.44 318.13 1032.44 416.37 1032.44 514.61 1032.44 564.42 1032.44 662.67 1032.44 735.56 1032.44 824.75 1032.44 897.71 1032.44 1008.11 1032.44 1118.51 1032.44 1187.35 1032.44 1309.44 1032.44 1402.96 1032.44 1496.47 1032.44 1496.47 649.36 1402.96 649.36" style="fill: #808285;"/>
  </g>
  <g id="Layer_1-2" data-name="Layer 1">
    <rect x="238.53" y="678.21" width="14.72" height="25.32" style="fill: #1d1500; stroke: #231f20; stroke-miterlimit: 10; stroke-width: 1.99px;"/>
    <rect x="260.39" y="677.77" width="14.72" height="25.32" style="fill: #1d1500; stroke: #231f20; stroke-miterlimit: 10; stroke-width: 1.99px;"/>
    <rect x="282.05" y="678.21" width="14.72" height="25.32" style="fill: #1d1500; stroke: #231f20; stroke-miterlimit: 10; stroke-width: 1.99px;"/>
    <rect x="238.53" y="713.17" width="14.72" height="25.32" style="fill: #1d1500; stroke: #231f20; stroke-miterlimit: 10; stroke-width: 1.99px;"/>
    <rect x="260.39" y="713.17" width="14.72" height="25.32" style="fill: #1d1500; stroke: #231f20; stroke-miterlimit: 10; stroke-width: 1.99px;"/>
    <rect x="282.05" y="713.17" width="14.72" height="25.32" style="fill: #1d1500; stroke: #231f20; stroke-miterlimit: 10; stroke-width: 1.99px;"/>
    <polygon points="1395.05 644.35 1395.05 487.38 1301.53 487.38 1301.53 790.39 1179.44 790.39 1179.44 487.38 1110.6 487.38 1110.6 785.08 1000.2 785.08 1000.2 757.41 889.8 757.41 889.8 601.87 816.84 601.87 816.84 835.38 727.65 835.38 727.65 724.78 654.76 724.78 654.76 487.38 556.51 487.38 556.51 959.41 506.71 959.41 506.71 909.89 408.47 909.89 408.47 724.78 310.22 724.78 310.22 592.43 231.9 592.43 231.9 851.58 101.95 851.58 101.95 765.51 -7.16 765.51 -7.16 1027.43 101.95 1027.43 231.9 1027.43 310.22 1027.43 408.47 1027.43 506.71 1027.43 556.51 1027.43 654.76 1027.43 727.65 1027.43 816.84 1027.43 889.8 1027.43 1000.2 1027.43 1110.6 1027.43 1179.44 1027.43 1301.53 1027.43 1395.05 1027.43 1488.56 1027.43 1488.56 644.35 1395.05 644.35" style="fill: #4a4b4c; stroke: #231f20; stroke-miterlimit: 10; stroke-width: 4.97px;"/>
    <rect x="262.02" y="624.66" width="14.72" height="25.32" style="fill: #1d1500; stroke: #231f20; stroke-miterlimit: 10; stroke-width: 1.99px;"/>
    <rect x="240.15" y="660.06" width="14.72" height="25.32" style="fill: #e4c432; stroke: #231f20; stroke-miterlimit: 10; stroke-width: 1.99px;"/>
    <rect x="262.02" y="660.06" width="14.72" height="25.32" style="fill: #1d1500; stroke: #231f20; stroke-miterlimit: 10; stroke-width: 1.99px;"/>
    <rect x="283.67" y="660.06" width="14.72" height="25.32" style="fill: #e4c432; stroke: #231f20; stroke-miterlimit: 10; stroke-width: 1.99px;"/>
    <rect x="240.26" y="695.47" width="14.72" height="25.32" style="fill: #1d1500; stroke: #231f20; stroke-miterlimit: 10; stroke-width: 1.99px;"/>
    <rect x="283.78" y="695.47" width="14.72" height="25.32" style="fill: #1d1500; stroke: #231f20; stroke-miterlimit: 10; stroke-width: 1.99px;"/>
    <rect x="262.13" y="730.43" width="14.72" height="25.32" style="fill: #1d1500; stroke: #231f20; stroke-miterlimit: 10; stroke-width: 1.99px;"/>
    <rect x="283.78" y="730.43" width="14.72" height="25.32" style="fill: #1d1500; stroke: #231f20; stroke-miterlimit: 10; stroke-width: 1.99px;"/>
    <rect x="240.26" y="765.83" width="14.72" height="25.32" style="fill: #1d1500; stroke: #231f20; stroke-miterlimit: 10; stroke-width: 1.99px;"/>
    <rect x="262.13" y="765.39" width="14.72" height="25.32" style="fill: #e4c432; stroke: #231f20; stroke-miterlimit: 10; stroke-width: 1.99px;"/>
    <rect x="283.78" y="765.83" width="14.72" height="25.32" style="fill: #1d1500; stroke: #231f20; stroke-miterlimit: 10; stroke-width: 1.99px;"/>
    <rect x="262.13" y="800.79" width="14.72" height="25.32" style="fill: #1d1500; stroke: #231f20; stroke-miterlimit: 10; stroke-width: 1.99px;"/>
    <rect x="240.38" y="836.19" width="14.72" height="25.32" style="fill: #e4c432; stroke: #231f20; stroke-miterlimit: 10; stroke-width: 1.99px;"/>
    <rect x="262.23" y="835.75" width="14.72" height="25.32" style="fill: #1d1500; stroke: #231f20; stroke-miterlimit: 10; stroke-width: 1.99px;"/>
    <rect x="283.88" y="836.19" width="14.72" height="25.32" style="fill: #1d1500; stroke: #231f20; stroke-miterlimit: 10; stroke-width: 1.99px;"/>
    <rect x="240.38" y="871.15" width="14.72" height="25.32" style="fill: #1d1500; stroke: #231f20; stroke-miterlimit: 10; stroke-width: 1.99px;"/>
    <rect x="262.23" y="871.15" width="14.72" height="25.32" style="fill: #1d1500; stroke: #231f20; stroke-miterlimit: 10; stroke-width: 1.99px;"/>
    <rect x="240.26" y="906.56" width="14.72" height="25.32" style="fill: #1d1500; stroke: #231f20; stroke-miterlimit: 10; stroke-width: 1.99px;"/>
    <rect x="262.13" y="906.11" width="14.72" height="25.32" style="fill: #1d1500; stroke: #231f20; stroke-miterlimit: 10; stroke-width: 1.99px;"/>
    <rect x="283.78" y="906.56" width="14.72" height="25.32" style="fill: #e4c432; stroke: #231f20; stroke-miterlimit: 10; stroke-width: 1.99px;"/>
    <rect x="283.78" y="941.52" width="14.72" height="25.32" style="fill: #1d1500; stroke: #231f20; stroke-miterlimit: 10; stroke-width: 1.99px;"/>
    <rect x="240.49" y="976.92" width="14.72" height="25.32" style="fill: #1d1500; stroke: #231f20; stroke-miterlimit: 10; stroke-width: 1.99px;"/>
    <rect x="262.34" y="976.48" width="14.72" height="25.32" style="fill: #1d1500; stroke: #231f20; stroke-miterlimit: 10; stroke-width: 1.99px;"/>
    <rect x="283.99" y="976.92" width="14.72" height="25.32" style="fill: #1d1500; stroke: #231f20; stroke-miterlimit: 10; stroke-width: 1.99px;"/>
    <rect x="313.87" y="752.73" width="14.72" height="25.32" style="fill: #e4c432; stroke: #231f20; stroke-miterlimit: 10; stroke-width: 1.99px;"/>
    <rect x="357.38" y="752.73" width="14.72" height="25.32" style="fill: #1d1500; stroke: #231f20; stroke-miterlimit: 10; stroke-width: 1.99px;"/>
    <rect x="313.87" y="783.48" width="14.72" height="25.32" style="fill: #1d1500; stroke: #231f20; stroke-miterlimit: 10; stroke-width: 1.99px;"/>
    <rect x="377.08" y="783.48" width="14.72" height="25.32" style="fill: #1d1500; stroke: #231f20; stroke-miterlimit: 10; stroke-width: 1.99px;"/>
    <rect x="313.65" y="814.24" width="14.72" height="25.32" style="fill: #1d1500; stroke: #231f20; stroke-miterlimit: 10; stroke-width: 1.99px;"/>
    <rect x="335.51" y="814.24" width="14.72" height="25.32" style="fill: #1d1500; stroke: #231f20; stroke-miterlimit: 10; stroke-width: 1.99px;"/>
    <rect x="313.65" y="845" width="14.72" height="25.32" style="fill: #1d1500; stroke: #231f20; stroke-miterlimit: 10; stroke-width: 1.99px;"/>
    <rect x="357.16" y="845" width="14.72" height="25.32" style="fill: #e4c432; stroke: #231f20; stroke-miterlimit: 10; stroke-width: 1.99px;"/>
    <rect x="376.86" y="845" width="14.72" height="25.32" style="fill: #1d1500; stroke: #231f20; stroke-miterlimit: 10; stroke-width: 1.99px;"/>
    <rect x="313.65" y="875.8" width="14.72" height="25.32" style="fill: #1d1500; stroke: #231f20; stroke-miterlimit: 10; stroke-width: 1.99px;"/>
    <rect x="335.51" y="875.8" width="14.72" height="25.32" style="fill: #1d1500; stroke: #231f20; stroke-miterlimit: 10; stroke-width: 1.99px;"/>
    <rect x="376.86" y="875.8" width="14.72" height="25.32" style="fill: #1d1500; stroke: #231f20; stroke-miterlimit: 10; stroke-width: 1.99px;"/>
    <rect x="313.65" y="906.56" width="14.72" height="25.32" style="fill: #1d1500; stroke: #231f20; stroke-miterlimit: 10; stroke-width: 1.99px;"/>
    <rect x="357.16" y="906.56" width="14.72" height="25.32" style="fill: #1d1500; stroke: #231f20; stroke-miterlimit: 10; stroke-width: 1.99px;"/>
    <rect x="313.65" y="939.26" width="14.72" height="25.32" style="fill: #1d1500; stroke: #231f20; stroke-miterlimit: 10; stroke-width: 1.99px;"/>
    <rect x="335.51" y="939.26" width="14.72" height="25.32" style="fill: #1d1500; stroke: #231f20; stroke-miterlimit: 10; stroke-width: 1.99px;"/>
    <rect x="376.86" y="939.26" width="14.72" height="25.32" style="fill: #1d1500; stroke: #231f20; stroke-miterlimit: 10; stroke-width: 1.99px;"/>
    <rect x="313.65" y="970.06" width="14.72" height="25.32" style="fill: #1d1500; stroke: #231f20; stroke-miterlimit: 10; stroke-width: 1.99px;"/>
    <rect x="335.51" y="970.06" width="14.72" height="25.32" style="fill: #e4c432; stroke: #231f20; stroke-miterlimit: 10; stroke-width: 1.99px;"/>
    <rect x="357.16" y="970.06" width="14.72" height="25.32" style="fill: #1d1500; stroke: #231f20; stroke-miterlimit: 10; stroke-width: 1.99px;"/>
    <rect x="376.86" y="970.06" width="14.72" height="25.32" style="fill: #1d1500; stroke: #231f20; stroke-miterlimit: 10; stroke-width: 1.99px;"/>
    <rect x="335.51" y="1000.82" width="14.72" height="25.32" style="fill: #1d1500; stroke: #231f20; stroke-miterlimit: 10; stroke-width: 1.99px;"/>
    <rect x="171.64" y="863.36" width="14.72" height="25.32" style="fill: #1d1500; stroke: #231f20; stroke-miterlimit: 10; stroke-width: 1.99px;"/>
    <rect x="193.51" y="862.92" width="14.72" height="25.32" style="fill: #1d1500; stroke: #231f20; stroke-miterlimit: 10; stroke-width: 1.99px;"/>
    <rect x="215.16" y="863.36" width="14.72" height="25.32" style="fill: #1d1500; stroke: #231f20; stroke-miterlimit: 10; stroke-width: 1.99px;"/>
    <rect x="104.11" y="863.58" width="14.72" height="25.32" style="fill: #1d1500; stroke: #231f20; stroke-miterlimit: 10; stroke-width: 1.99px;"/>
    <rect x="147.61" y="863.58" width="14.72" height="25.32" style="fill: #1d1500; stroke: #231f20; stroke-miterlimit: 10; stroke-width: 1.99px;"/>
    <rect x="171.64" y="894.01" width="14.72" height="25.32" style="fill: #1d1500; stroke: #231f20; stroke-miterlimit: 10; stroke-width: 1.99px;"/>
    <rect x="215.16" y="894.01" width="14.72" height="25.32" style="fill: #1d1500; stroke: #231f20; stroke-miterlimit: 10; stroke-width: 1.99px;"/>
    <rect x="104.11" y="894.23" width="14.72" height="25.32" style="fill: #1d1500; stroke: #231f20; stroke-miterlimit: 10; stroke-width: 1.99px;"/>
    <rect x="125.96" y="893.79" width="14.72" height="25.32" style="fill: #1d1500; stroke: #231f20; stroke-miterlimit: 10; stroke-width: 1.99px;"/>
    <rect x="147.61" y="894.23" width="14.72" height="25.32" style="fill: #1d1500; stroke: #231f20; stroke-miterlimit: 10; stroke-width: 1.99px;"/>
    <rect x="171.64" y="926.71" width="14.72" height="25.32" style="fill: #1d1500; stroke: #231f20; stroke-miterlimit: 10; stroke-width: 1.99px;"/>
    <rect x="193.51" y="926.26" width="14.72" height="25.32" style="fill: #e4c432; stroke: #231f20; stroke-miterlimit: 10; stroke-width: 1.99px;"/>
    <rect x="215.16" y="926.71" width="14.72" height="25.32" style="fill: #1d1500; stroke: #231f20; stroke-miterlimit: 10; stroke-width: 1.99px;"/>
    <rect x="104.11" y="926.93" width="14.72" height="25.32" style="fill: #1d1500; stroke: #231f20; stroke-miterlimit: 10; stroke-width: 1.99px;"/>
    <rect x="125.96" y="926.48" width="14.72" height="25.32" style="fill: #e4c432; stroke: #231f20; stroke-miterlimit: 10; stroke-width: 1.99px;"/>
    <rect x="171.64" y="957.51" width="14.72" height="25.32" style="fill: #1d1500; stroke: #231f20; stroke-miterlimit: 10; stroke-width: 1.99px;"/>
    <rect x="193.51" y="957.07" width="14.72" height="25.32" style="fill: #1d1500; stroke: #231f20; stroke-miterlimit: 10; stroke-width: 1.99px;"/>
    <rect x="215.16" y="957.51" width="14.72" height="25.32" style="fill: #1d1500; stroke: #231f20; stroke-miterlimit: 10; stroke-width: 1.99px;"/>
    <rect x="104.11" y="957.73" width="14.72" height="25.32" style="fill: #1d1500; stroke: #231f20; stroke-miterlimit: 10; stroke-width: 1.99px;"/>
    <rect x="125.96" y="957.29" width="14.72" height="25.32" style="fill: #1d1500; stroke: #231f20; stroke-miterlimit: 10; stroke-width: 1.99px;"/>
    <rect x="147.61" y="957.73" width="14.72" height="25.32" style="fill: #e4c432; stroke: #231f20; stroke-miterlimit: 10; stroke-width: 1.99px;"/>
    <rect x="962.4" y="767.28" width="14.72" height="25.32" style="fill: #1d1500; stroke: #231f20; stroke-miterlimit: 10; stroke-width: 1.99px;"/>
    <rect x="894.85" y="767.5" width="14.72" height="25.32" style="fill: #1d1500; stroke: #231f20; stroke-miterlimit: 10; stroke-width: 1.99px;"/>
    <rect x="938.37" y="767.5" width="14.72" height="25.32" style="fill: #1d1500; stroke: #231f20; stroke-miterlimit: 10; stroke-width: 1.99px;"/>
    <rect x="962.4" y="797.92" width="14.72" height="25.32" style="fill: #1d1500; stroke: #231f20; stroke-miterlimit: 10; stroke-width: 1.99px;"/>
    <rect x="894.85" y="798.14" width="14.72" height="25.32" style="fill: #1d1500; stroke: #231f20; stroke-miterlimit: 10; stroke-width: 1.99px;"/>
    <rect x="962.4" y="830.62" width="14.72" height="25.32" style="fill: #e4c432; stroke: #231f20; stroke-miterlimit: 10; stroke-width: 1.99px;"/>
    <rect x="962.4" y="861.42" width="14.72" height="25.32" style="fill: #1d1500; stroke: #231f20; stroke-miterlimit: 10; stroke-width: 1.99px;"/>
    <rect x="894.85" y="861.65" width="14.72" height="25.32" style="fill: #1d1500; stroke: #231f20; stroke-miterlimit: 10; stroke-width: 1.99px;"/>
    <rect x="916.72" y="861.2" width="14.72" height="25.32" style="fill: #1d1500; stroke: #231f20; stroke-miterlimit: 10; stroke-width: 1.99px;"/>
    <rect x="3.66" y="780.16" width="14.72" height="25.32" style="fill: #e4c432; stroke: #231f20; stroke-miterlimit: 10; stroke-width: 1.99px;"/>
    <rect x="49.55" y="810.14" width="14.72" height="25.32" style="fill: #e4c432; stroke: #231f20; stroke-miterlimit: 10; stroke-width: 1.99px;"/>
    <rect x="71.19" y="810.58" width="14.72" height="25.32" style="fill: #e4c432; stroke: #231f20; stroke-miterlimit: 10; stroke-width: 1.99px;"/>
    <rect x="27.69" y="843.28" width="14.72" height="25.32" style="fill: #1d1500; stroke: #231f20; stroke-miterlimit: 10; stroke-width: 1.99px;"/>
    <rect x="49.55" y="873.64" width="14.72" height="25.32" style="fill: #1d1500; stroke: #231f20; stroke-miterlimit: 10; stroke-width: 1.99px;"/>
    <rect x="71.19" y="910.64" width="14.72" height="25.32" style="fill: #1d1500; stroke: #231f20; stroke-miterlimit: 10; stroke-width: 1.99px;"/>
    <rect x="3.66" y="910.86" width="14.72" height="25.32" style="fill: #1d1500; stroke: #231f20; stroke-miterlimit: 10; stroke-width: 1.99px;"/>
    <rect x="25.31" y="911.3" width="14.72" height="25.32" style="fill: #1d1500; stroke: #231f20; stroke-miterlimit: 10; stroke-width: 1.99px;"/>
    <rect x="49.34" y="941.89" width="14.72" height="25.32" style="fill: #1d1500; stroke: #231f20; stroke-miterlimit: 10; stroke-width: 1.99px;"/>
    <rect x="3.66" y="941.67" width="14.72" height="25.32" style="fill: #e4c432; stroke: #231f20; stroke-miterlimit: 10; stroke-width: 1.99px;"/>
    <rect x="68.82" y="982.83" width="14.72" height="25.32" style="fill: #e4c432; stroke: #231f20; stroke-miterlimit: 10; stroke-width: 1.99px;"/>
    <rect x="23.14" y="982.61" width="14.72" height="25.32" style="fill: #1d1500; stroke: #231f20; stroke-miterlimit: 10; stroke-width: 1.99px;"/>
    <rect x="675" y="737.18" width="17.37" height="25.32" style="fill: #1d1500; stroke: #231f20; stroke-miterlimit: 10; stroke-width: 1.99px;"/>
    <rect x="569.52" y="739.5" width="17.37" height="25.32" style="fill: #1d1500; stroke: #231f20; stroke-miterlimit: 10; stroke-width: 1.99px;"/>
    <rect x="620.86" y="739.5" width="17.37" height="25.32" style="fill: #e4c432; stroke: #231f20; stroke-miterlimit: 10; stroke-width: 1.99px;"/>
    <rect x="1395.07" y="654.9" width="17.37" height="25.32" style="fill: #1d1500; stroke: #231f20; stroke-miterlimit: 10; stroke-width: 1.99px;"/>
    <rect x="1446.4" y="654.9" width="17.37" height="25.32" style="fill: #1d1500; stroke: #231f20; stroke-miterlimit: 10; stroke-width: 1.99px;"/>
    <rect x="1341.17" y="656.34" width="17.37" height="25.32" style="fill: #1d1500; stroke: #231f20; stroke-miterlimit: 10; stroke-width: 1.99px;"/>
    <rect x="1366.71" y="656.78" width="17.37" height="25.32" style="fill: #1d1500; stroke: #231f20; stroke-miterlimit: 10; stroke-width: 1.99px;"/>
    <rect x="1315.37" y="689.48" width="17.37" height="25.32" style="fill: #1d1500; stroke: #231f20; stroke-miterlimit: 10; stroke-width: 1.99px;"/>
    <rect x="1341.17" y="687.38" width="17.37" height="25.32" style="fill: #1d1500; stroke: #231f20; stroke-miterlimit: 10; stroke-width: 1.99px;"/>
    <rect x="1420.98" y="750.64" width="17.37" height="25.32" style="fill: #1d1500; stroke: #231f20; stroke-miterlimit: 10; stroke-width: 1.99px;"/>
    <rect x="1446.53" y="751.08" width="17.37" height="25.32" style="fill: #e4c432; stroke: #231f20; stroke-miterlimit: 10; stroke-width: 1.99px;"/>
    <rect x="1395.19" y="781.72" width="17.37" height="25.32" style="fill: #1d1500; stroke: #231f20; stroke-miterlimit: 10; stroke-width: 1.99px;"/>
    <rect x="1420.98" y="781.28" width="17.37" height="25.32" style="fill: #1d1500; stroke: #231f20; stroke-miterlimit: 10; stroke-width: 1.99px;"/>
    <rect x="1446.53" y="814.42" width="17.37" height="25.32" style="fill: #1d1500; stroke: #231f20; stroke-miterlimit: 10; stroke-width: 1.99px;"/>
    <rect x="1420.98" y="844.79" width="17.37" height="25.32" style="fill: #1d1500; stroke: #231f20; stroke-miterlimit: 10; stroke-width: 1.99px;"/>
    <rect x="1341.17" y="718.18" width="17.37" height="25.32" style="fill: #1d1500; stroke: #231f20; stroke-miterlimit: 10; stroke-width: 1.99px;"/>
    <rect x="1315.63" y="751.91" width="17.37" height="25.32" style="fill: #1d1500; stroke: #231f20; stroke-miterlimit: 10; stroke-width: 1.99px;"/>
    <rect x="1366.97" y="751.91" width="17.37" height="25.32" style="fill: #1d1500; stroke: #231f20; stroke-miterlimit: 10; stroke-width: 1.99px;"/>
    <rect x="1315.63" y="782.55" width="17.37" height="25.32" style="fill: #1d1500; stroke: #231f20; stroke-miterlimit: 10; stroke-width: 1.99px;"/>
    <rect x="1366.97" y="782.55" width="17.37" height="25.32" style="fill: #e4c432; stroke: #231f20; stroke-miterlimit: 10; stroke-width: 1.99px;"/>
    <rect x="1341.17" y="494.37" width="17.37" height="25.32" style="fill: #1d1500; stroke: #231f20; stroke-miterlimit: 10; stroke-width: 1.99px;"/>
    <rect x="1315.37" y="527.51" width="17.37" height="25.32" style="fill: #e4c432; stroke: #231f20; stroke-miterlimit: 10; stroke-width: 1.99px;"/>
    <rect x="1341.17" y="525.41" width="17.37" height="25.32" style="fill: #1d1500; stroke: #231f20; stroke-miterlimit: 10; stroke-width: 1.99px;"/>
    <rect x="1366.97" y="589.94" width="17.37" height="25.32" style="fill: #e4c432; stroke: #231f20; stroke-miterlimit: 10; stroke-width: 1.99px;"/>
    <rect x="1315.63" y="620.58" width="17.37" height="25.32" style="fill: #1d1500; stroke: #231f20; stroke-miterlimit: 10; stroke-width: 1.99px;"/>
    <rect x="1341.42" y="813.15" width="17.37" height="25.32" style="fill: #1d1500; stroke: #231f20; stroke-miterlimit: 10; stroke-width: 1.99px;"/>
    <rect x="569.65" y="614.04" width="17.37" height="25.32" style="fill: #1d1500; stroke: #231f20; stroke-miterlimit: 10; stroke-width: 1.99px;"/>
    <rect x="620.99" y="614.04" width="17.37" height="25.32" style="fill: #e4c432; stroke: #231f20; stroke-miterlimit: 10; stroke-width: 1.99px;"/>
    <rect x="569.65" y="644.68" width="17.37" height="25.32" style="fill: #1d1500; stroke: #231f20; stroke-miterlimit: 10; stroke-width: 1.99px;"/>
    <rect x="569.65" y="706.53" width="17.37" height="25.32" style="fill: #1d1500; stroke: #231f20; stroke-miterlimit: 10; stroke-width: 1.99px;"/>
    <rect x="620.99" y="706.53" width="17.37" height="25.32" style="fill: #e4c432; stroke: #231f20; stroke-miterlimit: 10; stroke-width: 1.99px;"/>
    <rect x="569.65" y="518.47" width="17.37" height="25.32" style="fill: #1d1500; stroke: #231f20; stroke-miterlimit: 10; stroke-width: 1.99px;"/>
    <rect x="595.44" y="518.03" width="17.37" height="25.32" style="fill: #1d1500; stroke: #231f20; stroke-miterlimit: 10; stroke-width: 1.99px;"/>
    <rect x="595.44" y="549.07" width="17.37" height="25.32" style="fill: #e4c432; stroke: #231f20; stroke-miterlimit: 10; stroke-width: 1.99px;"/>
    <rect x="620.99" y="549.51" width="17.37" height="25.32" style="fill: #1d1500; stroke: #231f20; stroke-miterlimit: 10; stroke-width: 1.99px;"/>
    <rect x="569.65" y="580.32" width="17.37" height="25.32" style="fill: #1d1500; stroke: #231f20; stroke-miterlimit: 10; stroke-width: 1.99px;"/>
    <rect x="620.99" y="580.32" width="17.37" height="25.32" style="fill: #1d1500; stroke: #231f20; stroke-miterlimit: 10; stroke-width: 1.99px;"/>
    <rect x="832.26" y="837.8" width="17.37" height="25.32" style="fill: #1d1500; stroke: #231f20; stroke-miterlimit: 10; stroke-width: 1.99px;"/>
    <rect x="832.26" y="868.44" width="17.37" height="25.32" style="fill: #1d1500; stroke: #231f20; stroke-miterlimit: 10; stroke-width: 1.99px;"/>
    <rect x="858.06" y="868" width="17.37" height="25.32" style="fill: #1d1500; stroke: #231f20; stroke-miterlimit: 10; stroke-width: 1.99px;"/>
    <rect x="832.26" y="901.14" width="17.37" height="25.32" style="fill: #1d1500; stroke: #231f20; stroke-miterlimit: 10; stroke-width: 1.99px;"/>
    <rect x="858.06" y="929.85" width="17.37" height="25.32" style="fill: #1d1500; stroke: #231f20; stroke-miterlimit: 10; stroke-width: 1.99px;"/>
    <rect x="832.51" y="994.22" width="17.37" height="25.32" style="fill: #e4c432; stroke: #231f20; stroke-miterlimit: 10; stroke-width: 1.99px;"/>
    <rect x="858.31" y="993.78" width="17.37" height="25.32" style="fill: #e4c432; stroke: #231f20; stroke-miterlimit: 10; stroke-width: 1.99px;"/>
    <rect x="832.39" y="712.33" width="17.37" height="25.32" style="fill: #1d1500; stroke: #231f20; stroke-miterlimit: 10; stroke-width: 1.99px;"/>
    <rect x="858.19" y="711.89" width="17.37" height="25.32" style="fill: #e4c432; stroke: #231f20; stroke-miterlimit: 10; stroke-width: 1.99px;"/>
    <rect x="858.19" y="742.54" width="17.37" height="25.32" style="fill: #1d1500; stroke: #231f20; stroke-miterlimit: 10; stroke-width: 1.99px;"/>
    <rect x="832.39" y="775.68" width="17.37" height="25.32" style="fill: #1d1500; stroke: #231f20; stroke-miterlimit: 10; stroke-width: 1.99px;"/>
    <rect x="858.19" y="804.38" width="17.37" height="25.32" style="fill: #1d1500; stroke: #231f20; stroke-miterlimit: 10; stroke-width: 1.99px;"/>
    <rect x="832.39" y="616.76" width="17.37" height="25.32" style="fill: #1d1500; stroke: #231f20; stroke-miterlimit: 10; stroke-width: 1.99px;"/>
    <rect x="858.19" y="616.32" width="17.37" height="25.32" style="fill: #1d1500; stroke: #231f20; stroke-miterlimit: 10; stroke-width: 1.99px;"/>
    <rect x="832.39" y="649.46" width="17.37" height="25.32" style="fill: #1d1500; stroke: #231f20; stroke-miterlimit: 10; stroke-width: 1.99px;"/>
    <rect x="832.39" y="678.61" width="17.37" height="25.32" style="fill: #1d1500; stroke: #231f20; stroke-miterlimit: 10; stroke-width: 1.99px;"/>
    <rect x="858.19" y="678.17" width="17.37" height="25.32" style="fill: #1d1500; stroke: #231f20; stroke-miterlimit: 10; stroke-width: 1.99px;"/>
    <rect x="569.52" y="995.66" width="17.37" height="25.32" style="fill: #1d1500; stroke: #231f20; stroke-miterlimit: 10; stroke-width: 1.99px;"/>
    <rect x="569.65" y="870.19" width="17.37" height="25.32" style="fill: #1d1500; stroke: #231f20; stroke-miterlimit: 10; stroke-width: 1.99px;"/>
    <rect x="569.65" y="900.84" width="17.37" height="25.32" style="fill: #1d1500; stroke: #231f20; stroke-miterlimit: 10; stroke-width: 1.99px;"/>
    <rect x="595.44" y="900.4" width="17.37" height="25.32" style="fill: #e4c432; stroke: #231f20; stroke-miterlimit: 10; stroke-width: 1.99px;"/>
    <rect x="595.44" y="931.44" width="17.37" height="25.32" style="fill: #1d1500; stroke: #231f20; stroke-miterlimit: 10; stroke-width: 1.99px;"/>
    <rect x="569.65" y="962.69" width="17.37" height="25.32" style="fill: #1d1500; stroke: #231f20; stroke-miterlimit: 10; stroke-width: 1.99px;"/>
    <rect x="595.44" y="962.24" width="17.37" height="25.32" style="fill: #1d1500; stroke: #231f20; stroke-miterlimit: 10; stroke-width: 1.99px;"/>
    <rect x="595.44" y="774.18" width="17.37" height="25.32" style="fill: #1d1500; stroke: #231f20; stroke-miterlimit: 10; stroke-width: 1.99px;"/>
    <rect x="569.65" y="807.32" width="17.37" height="25.32" style="fill: #1d1500; stroke: #231f20; stroke-miterlimit: 10; stroke-width: 1.99px;"/>
    <rect x="595.44" y="805.22" width="17.37" height="25.32" style="fill: #1d1500; stroke: #231f20; stroke-miterlimit: 10; stroke-width: 1.99px;"/>
    <rect x="620.86" y="995.22" width="17.37" height="25.32" style="fill: #1d1500; stroke: #231f20; stroke-miterlimit: 10; stroke-width: 1.99px;"/>
    <rect x="646.66" y="994.77" width="17.37" height="25.32" style="fill: #1d1500; stroke: #231f20; stroke-miterlimit: 10; stroke-width: 1.99px;"/>
    <rect x="620.99" y="869.75" width="17.37" height="25.32" style="fill: #1d1500; stroke: #231f20; stroke-miterlimit: 10; stroke-width: 1.99px;"/>
    <rect x="646.79" y="899.95" width="17.37" height="25.32" style="fill: #1d1500; stroke: #231f20; stroke-miterlimit: 10; stroke-width: 1.99px;"/>
    <rect x="620.99" y="933.1" width="17.37" height="25.32" style="fill: #1d1500; stroke: #231f20; stroke-miterlimit: 10; stroke-width: 1.99px;"/>
    <rect x="646.79" y="961.8" width="17.37" height="25.32" style="fill: #1d1500; stroke: #231f20; stroke-miterlimit: 10; stroke-width: 1.99px;"/>
    <rect x="620.99" y="774.18" width="17.37" height="25.32" style="fill: #e4c432; stroke: #231f20; stroke-miterlimit: 10; stroke-width: 1.99px;"/>
    <rect x="646.79" y="804.78" width="17.37" height="25.32" style="fill: #e4c432; stroke: #231f20; stroke-miterlimit: 10; stroke-width: 1.99px;"/>
    <rect x="620.99" y="836.03" width="17.37" height="25.32" style="fill: #1d1500; stroke: #231f20; stroke-miterlimit: 10; stroke-width: 1.99px;"/>
    <rect x="674.49" y="994.33" width="17.37" height="25.32" style="fill: #1d1500; stroke: #231f20; stroke-miterlimit: 10; stroke-width: 1.99px;"/>
    <rect x="700.29" y="993.89" width="17.37" height="25.32" style="fill: #1d1500; stroke: #231f20; stroke-miterlimit: 10; stroke-width: 1.99px;"/>
    <rect x="700.42" y="868.42" width="17.37" height="25.32" style="fill: #1d1500; stroke: #231f20; stroke-miterlimit: 10; stroke-width: 1.99px;"/>
    <rect x="674.62" y="899.51" width="17.37" height="25.32" style="fill: #1d1500; stroke: #231f20; stroke-miterlimit: 10; stroke-width: 1.99px;"/>
    <rect x="700.42" y="930.11" width="17.37" height="25.32" style="fill: #1d1500; stroke: #231f20; stroke-miterlimit: 10; stroke-width: 1.99px;"/>
    <rect x="674.62" y="773.3" width="17.37" height="25.32" style="fill: #1d1500; stroke: #231f20; stroke-miterlimit: 10; stroke-width: 1.99px;"/>
    <rect x="700.42" y="772.85" width="17.37" height="25.32" style="fill: #1d1500; stroke: #231f20; stroke-miterlimit: 10; stroke-width: 1.99px;"/>
    <rect x="700.42" y="803.9" width="17.37" height="25.32" style="fill: #1d1500; stroke: #231f20; stroke-miterlimit: 10; stroke-width: 1.99px;"/>
    <rect x="674.62" y="835.14" width="17.37" height="25.32" style="fill: #1d1500; stroke: #231f20; stroke-miterlimit: 10; stroke-width: 1.99px;"/>
    <rect x="1123.85" y="751" width="17.37" height="25.32" style="fill: #1d1500; stroke: #231f20; stroke-miterlimit: 10; stroke-width: 1.99px;"/>
    <rect x="1149.65" y="750.56" width="17.37" height="25.32" style="fill: #1d1500; stroke: #231f20; stroke-miterlimit: 10; stroke-width: 1.99px;"/>
    <rect x="1123.85" y="783.7" width="17.37" height="25.32" style="fill: #1d1500; stroke: #231f20; stroke-miterlimit: 10; stroke-width: 1.99px;"/>
    <rect x="1149.91" y="845.69" width="17.37" height="25.32" style="fill: #1d1500; stroke: #231f20; stroke-miterlimit: 10; stroke-width: 1.99px;"/>
    <rect x="1124.11" y="876.78" width="17.37" height="25.32" style="fill: #1d1500; stroke: #231f20; stroke-miterlimit: 10; stroke-width: 1.99px;"/>
    <rect x="1149.91" y="876.33" width="17.37" height="25.32" style="fill: #1d1500; stroke: #231f20; stroke-miterlimit: 10; stroke-width: 1.99px;"/>
    <rect x="1124.11" y="938.62" width="17.37" height="25.32" style="fill: #1d1500; stroke: #231f20; stroke-miterlimit: 10; stroke-width: 1.99px;"/>
    <rect x="1149.78" y="594.45" width="17.37" height="25.32" style="fill: #1d1500; stroke: #231f20; stroke-miterlimit: 10; stroke-width: 1.99px;"/>
    <rect x="1123.98" y="625.54" width="17.37" height="25.32" style="fill: #1d1500; stroke: #231f20; stroke-miterlimit: 10; stroke-width: 1.99px;"/>
    <rect x="1149.78" y="625.09" width="17.37" height="25.32" style="fill: #e4c432; stroke: #231f20; stroke-miterlimit: 10; stroke-width: 1.99px;"/>
    <rect x="1149.78" y="686.94" width="17.37" height="25.32" style="fill: #1d1500; stroke: #231f20; stroke-miterlimit: 10; stroke-width: 1.99px;"/>
    <rect x="1149.78" y="498.88" width="17.37" height="25.32" style="fill: #1d1500; stroke: #231f20; stroke-miterlimit: 10; stroke-width: 1.99px;"/>
    <rect x="1123.98" y="561.17" width="17.37" height="25.32" style="fill: #1d1500; stroke: #231f20; stroke-miterlimit: 10; stroke-width: 1.99px;"/>
    <rect x="1149.78" y="560.73" width="17.37" height="25.32" style="fill: #1d1500; stroke: #231f20; stroke-miterlimit: 10; stroke-width: 1.99px;"/>
    <rect x="1420.85" y="876.78" width="17.37" height="25.32" style="fill: #1d1500; stroke: #231f20; stroke-miterlimit: 10; stroke-width: 1.99px;"/>
    <rect x="1446.4" y="877.22" width="17.37" height="25.32" style="fill: #1d1500; stroke: #231f20; stroke-miterlimit: 10; stroke-width: 1.99px;"/>
    <rect x="1315.37" y="879.1" width="17.37" height="25.32" style="fill: #1d1500; stroke: #231f20; stroke-miterlimit: 10; stroke-width: 1.99px;"/>
    <rect x="1366.71" y="879.1" width="17.37" height="25.32" style="fill: #e4c432; stroke: #231f20; stroke-miterlimit: 10; stroke-width: 1.99px;"/>
    <rect x="1395.07" y="909.92" width="17.37" height="25.32" style="fill: #1d1500; stroke: #231f20; stroke-miterlimit: 10; stroke-width: 1.99px;"/>
    <rect x="1446.4" y="909.92" width="17.37" height="25.32" style="fill: #1d1500; stroke: #231f20; stroke-miterlimit: 10; stroke-width: 1.99px;"/>
    <rect x="1315.37" y="911.79" width="17.37" height="25.32" style="fill: #1d1500; stroke: #231f20; stroke-miterlimit: 10; stroke-width: 1.99px;"/>
    <rect x="1366.71" y="910.14" width="17.37" height="25.32" style="fill: #1d1500; stroke: #231f20; stroke-miterlimit: 10; stroke-width: 1.99px;"/>
    <rect x="485.21" y="920.16" width="14.72" height="25.32" style="fill: #1d1500; stroke: #231f20; stroke-miterlimit: 10; stroke-width: 1.99px;"/>
    <rect x="417.66" y="920.39" width="14.72" height="25.32" style="fill: #1d1500; stroke: #231f20; stroke-miterlimit: 10; stroke-width: 1.99px;"/>
    <rect x="439.53" y="919.94" width="14.72" height="25.32" style="fill: #1d1500; stroke: #231f20; stroke-miterlimit: 10; stroke-width: 1.99px;"/>
    <rect x="439.53" y="952.64" width="14.72" height="25.32" style="fill: #1d1500; stroke: #231f20; stroke-miterlimit: 10; stroke-width: 1.99px;"/>
    <rect x="507.07" y="983.23" width="14.72" height="25.32" style="fill: #e4c432; stroke: #231f20; stroke-miterlimit: 10; stroke-width: 1.99px;"/>
    <rect x="528.71" y="983.67" width="14.72" height="25.32" style="fill: #e4c432; stroke: #231f20; stroke-miterlimit: 10; stroke-width: 1.99px;"/>
    <rect x="417.66" y="983.89" width="14.72" height="25.32" style="fill: #e4c432; stroke: #231f20; stroke-miterlimit: 10; stroke-width: 1.99px;"/>
    <rect x="461.18" y="983.89" width="14.72" height="25.32" style="fill: #e4c432; stroke: #231f20; stroke-miterlimit: 10; stroke-width: 1.99px;"/>
    <rect x="1043.86" y="795.33" width="14.72" height="25.32" style="fill: #1d1500; stroke: #231f20; stroke-miterlimit: 10; stroke-width: 1.99px;"/>
    <rect x="1087.38" y="795.33" width="14.72" height="25.32" style="fill: #1d1500; stroke: #231f20; stroke-miterlimit: 10; stroke-width: 1.99px;"/>
    <rect x="1019.84" y="795.55" width="14.72" height="25.32" style="fill: #1d1500; stroke: #231f20; stroke-miterlimit: 10; stroke-width: 1.99px;"/>
    <rect x="1043.86" y="828.03" width="14.72" height="25.32" style="fill: #1d1500; stroke: #231f20; stroke-miterlimit: 10; stroke-width: 1.99px;"/>
    <rect x="1087.38" y="828.03" width="14.72" height="25.32" style="fill: #1d1500; stroke: #231f20; stroke-miterlimit: 10; stroke-width: 1.99px;"/>
    <rect x="1065.73" y="858.39" width="14.72" height="25.32" style="fill: #1d1500; stroke: #231f20; stroke-miterlimit: 10; stroke-width: 1.99px;"/>
    <rect x="1087.38" y="858.84" width="14.72" height="25.32" style="fill: #1d1500; stroke: #231f20; stroke-miterlimit: 10; stroke-width: 1.99px;"/>
    <rect x="1019.84" y="859.06" width="14.72" height="25.32" style="fill: #1d1500; stroke: #231f20; stroke-miterlimit: 10; stroke-width: 1.99px;"/>
    <rect x="1088.46" y="894.21" width="14.72" height="25.32" style="fill: #1d1500; stroke: #231f20; stroke-miterlimit: 10; stroke-width: 1.99px;"/>
    <rect x="1044.95" y="926.91" width="14.72" height="25.32" style="fill: #1d1500; stroke: #231f20; stroke-miterlimit: 10; stroke-width: 1.99px;"/>
    <rect x="1088.46" y="926.91" width="14.72" height="25.32" style="fill: #1d1500; stroke: #231f20; stroke-miterlimit: 10; stroke-width: 1.99px;"/>
    <rect x="999.27" y="926.69" width="14.72" height="25.32" style="fill: #1d1500; stroke: #231f20; stroke-miterlimit: 10; stroke-width: 1.99px;"/>
    <rect x="1044.95" y="957.71" width="14.72" height="25.32" style="fill: #1d1500; stroke: #231f20; stroke-miterlimit: 10; stroke-width: 1.99px;"/>
    <rect x="1020.92" y="957.94" width="14.72" height="25.32" style="fill: #1d1500; stroke: #231f20; stroke-miterlimit: 10; stroke-width: 1.99px;"/>
    <rect x="896.34" y="895.55" width="14.72" height="25.32" style="fill: #1d1500; stroke: #231f20; stroke-miterlimit: 10; stroke-width: 1.99px;"/>
    <rect x="939.86" y="895.55" width="14.72" height="25.32" style="fill: #e4c432; stroke: #231f20; stroke-miterlimit: 10; stroke-width: 1.99px;"/>
    <rect x="963.88" y="925.97" width="14.72" height="25.32" style="fill: #1d1500; stroke: #231f20; stroke-miterlimit: 10; stroke-width: 1.99px;"/>
    <rect x="918.21" y="925.75" width="14.72" height="25.32" style="fill: #1d1500; stroke: #231f20; stroke-miterlimit: 10; stroke-width: 1.99px;"/>
    <rect x="963.88" y="958.67" width="14.72" height="25.32" style="fill: #1d1500; stroke: #231f20; stroke-miterlimit: 10; stroke-width: 1.99px;"/>
    <rect x="896.34" y="958.89" width="14.72" height="25.32" style="fill: #1d1500; stroke: #231f20; stroke-miterlimit: 10; stroke-width: 1.99px;"/>
    <rect x="918.21" y="958.45" width="14.72" height="25.32" style="fill: #1d1500; stroke: #231f20; stroke-miterlimit: 10; stroke-width: 1.99px;"/>
    <rect x="963.88" y="989.47" width="14.72" height="25.32" style="fill: #1d1500; stroke: #231f20; stroke-miterlimit: 10; stroke-width: 1.99px;"/>
    <rect x="918.21" y="989.25" width="14.72" height="25.32" style="fill: #1d1500; stroke: #231f20; stroke-miterlimit: 10; stroke-width: 1.99px;"/>
    <rect x="939.86" y="989.69" width="14.72" height="25.32" style="fill: #1d1500; stroke: #231f20; stroke-miterlimit: 10; stroke-width: 1.99px;"/>
    <rect x="801.43" y="846.71" width="14.72" height="25.32" style="fill: #1d1500; stroke: #231f20; stroke-miterlimit: 10; stroke-width: 1.99px;"/>
    <rect x="733.89" y="846.93" width="14.72" height="25.32" style="fill: #1d1500; stroke: #231f20; stroke-miterlimit: 10; stroke-width: 1.99px;"/>
    <rect x="777.4" y="846.93" width="14.72" height="25.32" style="fill: #1d1500; stroke: #231f20; stroke-miterlimit: 10; stroke-width: 1.99px;"/>
    <rect x="801.43" y="877.36" width="14.72" height="25.32" style="fill: #1d1500; stroke: #231f20; stroke-miterlimit: 10; stroke-width: 1.99px;"/>
    <rect x="733.89" y="877.58" width="14.72" height="25.32" style="fill: #1d1500; stroke: #231f20; stroke-miterlimit: 10; stroke-width: 1.99px;"/>
    <rect x="755.75" y="877.13" width="14.72" height="25.32" style="fill: #e4c432; stroke: #231f20; stroke-miterlimit: 10; stroke-width: 1.99px;"/>
    <rect x="777.4" y="877.58" width="14.72" height="25.32" style="fill: #1d1500; stroke: #231f20; stroke-miterlimit: 10; stroke-width: 1.99px;"/>
    <rect x="801.43" y="910.06" width="14.72" height="25.32" style="fill: #1d1500; stroke: #231f20; stroke-miterlimit: 10; stroke-width: 1.99px;"/>
    <rect x="733.89" y="910.28" width="14.72" height="25.32" style="fill: #1d1500; stroke: #231f20; stroke-miterlimit: 10; stroke-width: 1.99px;"/>
    <rect x="755.75" y="909.83" width="14.72" height="25.32" style="fill: #1d1500; stroke: #231f20; stroke-miterlimit: 10; stroke-width: 1.99px;"/>
    <rect x="801.43" y="940.86" width="14.72" height="25.32" style="fill: #1d1500; stroke: #231f20; stroke-miterlimit: 10; stroke-width: 1.99px;"/>
    <rect x="733.89" y="941.08" width="14.72" height="25.32" style="fill: #1d1500; stroke: #231f20; stroke-miterlimit: 10; stroke-width: 1.99px;"/>
    <rect x="755.75" y="940.64" width="14.72" height="25.32" style="fill: #1d1500; stroke: #231f20; stroke-miterlimit: 10; stroke-width: 1.99px;"/>
    <rect x="777.4" y="941.08" width="14.72" height="25.32" style="fill: #1d1500; stroke: #231f20; stroke-miterlimit: 10; stroke-width: 1.99px;"/>
    <rect x="1255.06" y="803.79" width="14.72" height="25.32" style="fill: #1d1500; stroke: #231f20; stroke-miterlimit: 10; stroke-width: 1.99px;"/>
    <rect x="1187.51" y="804.01" width="14.72" height="25.32" style="fill: #1d1500; stroke: #231f20; stroke-miterlimit: 10; stroke-width: 1.99px;"/>
    <rect x="1231.03" y="804.01" width="14.72" height="25.32" style="fill: #1d1500; stroke: #231f20; stroke-miterlimit: 10; stroke-width: 1.99px;"/>
    <rect x="1255.06" y="834.44" width="14.72" height="25.32" style="fill: #1d1500; stroke: #231f20; stroke-miterlimit: 10; stroke-width: 1.99px;"/>
    <rect x="1187.51" y="834.66" width="14.72" height="25.32" style="fill: #1d1500; stroke: #231f20; stroke-miterlimit: 10; stroke-width: 1.99px;"/>
    <rect x="1209.38" y="834.22" width="14.72" height="25.32" style="fill: #e4c432; stroke: #231f20; stroke-miterlimit: 10; stroke-width: 1.99px;"/>
    <rect x="1231.03" y="834.66" width="14.72" height="25.32" style="fill: #1d1500; stroke: #231f20; stroke-miterlimit: 10; stroke-width: 1.99px;"/>
    <rect x="1255.06" y="867.14" width="14.72" height="25.32" style="fill: #1d1500; stroke: #231f20; stroke-miterlimit: 10; stroke-width: 1.99px;"/>
    <rect x="1280.41" y="834.33" width="14.72" height="25.32" style="fill: #1d1500; stroke: #231f20; stroke-miterlimit: 10; stroke-width: 1.99px;"/>
    <rect x="1280.41" y="867.03" width="14.72" height="25.32" style="fill: #1d1500; stroke: #231f20; stroke-miterlimit: 10; stroke-width: 1.99px;"/>
    <rect x="1280.41" y="897.83" width="14.72" height="25.32" style="fill: #1d1500; stroke: #231f20; stroke-miterlimit: 10; stroke-width: 1.99px;"/>
    <rect x="1187.51" y="898.16" width="14.72" height="25.32" style="fill: #1d1500; stroke: #231f20; stroke-miterlimit: 10; stroke-width: 1.99px;"/>
    <rect x="1209.38" y="897.72" width="14.72" height="25.32" style="fill: #1d1500; stroke: #231f20; stroke-miterlimit: 10; stroke-width: 1.99px;"/>
    <rect x="1231.03" y="898.16" width="14.72" height="25.32" style="fill: #1d1500; stroke: #231f20; stroke-miterlimit: 10; stroke-width: 1.99px;"/>
    <rect x="1254.75" y="935.42" width="14.72" height="25.32" style="fill: #1d1500; stroke: #231f20; stroke-miterlimit: 10; stroke-width: 1.99px;"/>
    <rect x="1187.21" y="935.65" width="14.72" height="25.32" style="fill: #1d1500; stroke: #231f20; stroke-miterlimit: 10; stroke-width: 1.99px;"/>
    <rect x="1230.73" y="935.65" width="14.72" height="25.32" style="fill: #1d1500; stroke: #231f20; stroke-miterlimit: 10; stroke-width: 1.99px;"/>
    <rect x="1254.75" y="966.07" width="14.72" height="25.32" style="fill: #1d1500; stroke: #231f20; stroke-miterlimit: 10; stroke-width: 1.99px;"/>
    <rect x="1187.21" y="966.29" width="14.72" height="25.32" style="fill: #1d1500; stroke: #231f20; stroke-miterlimit: 10; stroke-width: 1.99px;"/>
    <rect x="1209.07" y="965.85" width="14.72" height="25.32" style="fill: #1d1500; stroke: #231f20; stroke-miterlimit: 10; stroke-width: 1.99px;"/>
    <rect x="1280.11" y="935.31" width="14.72" height="25.32" style="fill: #1d1500; stroke: #231f20; stroke-miterlimit: 10; stroke-width: 1.99px;"/>
  </g>
  <rect x="1471" y="762.8" width="209.84" height="261.13" style="fill: #4a4b4c;"/>
  <line x1="1486" y1="764.57" x2="1500" y2="764.57" style="fill: none; stroke: #231f20; stroke-miterlimit: 10; stroke-width: 5px;"/>
</svg>