<?xml version="1.0" encoding="UTF-8"?>
<svg id="Layer_2" data-name="Layer 2" xmlns="http://www.w3.org/2000/svg" xmlns:xlink="http://www.w3.org/1999/xlink" viewBox="0 0 132.31 86.64">
  <defs>
    <radialGradient id="radial-gradient" cx="68.51" cy="-395.89" fx="68.51" fy="-395.89" r="83.49" gradientTransform="translate(0 -251.67) scale(1 -.76)" gradientUnits="userSpaceOnUse">
      <stop offset="0" stop-color="#fff"/>
      <stop offset=".31" stop-color="#fbfdfd"/>
      <stop offset=".6" stop-color="#f0f8f9"/>
      <stop offset=".89" stop-color="#dceef1"/>
      <stop offset="1" stop-color="#d3eaed"/>
    </radialGradient>
  </defs>
  <g id="Layer_1-2" data-name="Layer 1">
    <path d="M117.1,35.01c-2.3,0-4.46.54-6.4,1.48-2.74-3.68-6.82-6.29-11.53-7.1-2.38-7.34-9.27-12.66-17.4-12.66-3.41,0-6.6.95-9.33,2.58C68.01,8.26,57.57.5,45.4.5c-16.19,0-29.32,13.74-29.32,30.69,0,1.24.08,2.46.21,3.66-.36-.03-.72-.05-1.09-.05-8.12,0-14.71,6.59-14.71,14.71s6.4,14.51,14.36,14.69c-.27,2.32.05,4.68,1.06,6.89,3.22,7.06,12.18,9.89,20.01,6.31,1.57-.72,2.97-1.64,4.19-2.71,2.95,1.6,6.39,2.54,10.07,2.54.2,0,.39-.02.59-.03,4.69,5.48,11.5,8.93,19.08,8.93,9.21,0,17.29-5.1,21.8-12.74,2.66,2.76,6.32,4.47,10.36,4.47,7.49,0,13.67-5.87,14.58-13.46.16,0,.32.02.49.02,8.12,0,14.71-6.59,14.71-14.71,0-8.13-6.58-14.71-14.71-14.71Z" style="fill: url(#radial-gradient); stroke: #fff; stroke-miterlimit: 10;"/>
  </g>
</svg>