<?xml version="1.0" encoding="UTF-8"?>
<svg id="Layer_2" data-name="Layer 2" xmlns="http://www.w3.org/2000/svg" xmlns:xlink="http://www.w3.org/1999/xlink" viewBox="0 0 165.18 84.39">
  <defs>
    <radialGradient id="radial-gradient" cx="87.29" cy="-430.96" fx="87.29" fy="-430.96" r="91.74" gradientTransform="translate(0 -245.95) scale(1 -.69)" gradientUnits="userSpaceOnUse">
      <stop offset="0" stop-color="#fff"/>
      <stop offset=".3" stop-color="#f7fbfc"/>
      <stop offset=".77" stop-color="#e1f0f3"/>
      <stop offset="1" stop-color="#d3eaed"/>
    </radialGradient>
  </defs>
  <g id="Layer_1-2" data-name="Layer 1">
    <path d="M149.97,30.26c-1.29,0-2.53.18-3.71.49-2.02-12.36-12.81-21.8-25.82-21.8-7.45,0-14.17,3.1-18.93,8.06-3.35-3.67-8.15-5.98-13.51-5.98-3.46,0-6.68.98-9.45,2.65-5.3-7.96-14.1-13.18-24.07-13.18-13.95,0-25.62,10.2-28.58,23.87-1.44-.31-2.93-.48-4.46-.48C9.87,23.89.5,33.26.5,44.82s9.37,20.93,20.93,20.93c2.6,0,5.09-.48,7.39-1.34.03,10.77,9.73,19.48,21.68,19.48,7.96,0,14.92-3.87,18.69-9.63,4.57,4.42,10.67,7.12,17.38,7.12,8.52,0,16.06-4.36,20.72-11.06,3.62,4.2,8.86,6.85,14.69,6.85,10.7,0,19.41-8.9,19.75-20.02,2.35,1.59,5.19,2.52,8.24,2.52,8.12,0,14.71-6.59,14.71-14.71,0-8.13-6.59-14.71-14.71-14.71Z" style="fill: url(#radial-gradient); stroke: #fff; stroke-miterlimit: 10;"/>
  </g>
</svg>