<?xml version="1.0" encoding="UTF-8"?>
<svg id="Layer_2" data-name="Layer 2" xmlns="http://www.w3.org/2000/svg" xmlns:xlink="http://www.w3.org/1999/xlink" viewBox="0 0 170.41 91.26">
  <defs>
    <radialGradient id="radial-gradient" cx="93.82" cy="-186.63" fx="93.82" fy="-186.63" r="91.83" gradientTransform="translate(0 -83.21) scale(1 -.75)" gradientUnits="userSpaceOnUse">
      <stop offset="0" stop-color="#fff"/>
      <stop offset=".33" stop-color="#fcfdfe"/>
      <stop offset=".59" stop-color="#f2f9fa"/>
      <stop offset=".84" stop-color="#e1f0f3"/>
      <stop offset=".98" stop-color="#d3eaed"/>
    </radialGradient>
  </defs>
  <g id="Layer_1-2" data-name="Layer 1">
    <path d="M150.94,25.31c-2.15,0-4.2.37-6.12,1.03.07-.73.11-1.48.11-2.23,0-13.04-10.57-23.61-23.61-23.61-9.99,0-18.53,6.21-21.97,14.98-3.2-2.97-7.48-4.8-12.19-4.8-5.56,0-10.53,2.53-13.83,6.5-3.79-8.71-12.17-14.76-21.91-14.76-13.02,0-23.62,10.82-24.05,24.34-2.4-1.1-5.07-1.73-7.89-1.73-10.48,0-18.98,8.5-18.98,18.98s8.26,18.72,18.53,18.96c-.35,2.99.07,6.04,1.37,8.89,4.15,9.11,15.71,12.75,25.82,8.14,2.02-.92,3.82-2.11,5.39-3.48,3.8,2.06,8.25,3.25,13.01,3.25,3.71,0,7.23-.73,10.4-2.02,4.73,7.82,13.06,13.01,22.55,13.01s18.37-5.54,23.01-13.79c3.09,2.27,6.84,3.62,10.9,3.62,9.67,0,17.63-7.58,18.81-17.36.21,0,.42.03.63.03,10.48,0,18.98-8.5,18.98-18.98,0-10.48-8.5-18.98-18.98-18.98Z" style="fill: url(#radial-gradient); stroke: #fff; stroke-miterlimit: 10;"/>
  </g>
</svg>