<?xml version="1.0" encoding="UTF-8"?>
<svg id="uuid-4f13212e-e28d-479a-83b3-dc04e2f859b5" data-name="Layer 1" xmlns="http://www.w3.org/2000/svg" viewBox="0 0 489.11 58.38">
  <path d="M8.08,32.81c-.09.72-.39,1.31-.9,1.77-.52.46-1.08.75-1.68.88s-1.16.06-1.66-.19c-.5-.26-.77-.78-.8-1.55-.14-3.3-.22-6.73-.22-10.27v-10.58c-.46-.17-.8-.43-1.03-.78-.23-.34-.37-.73-.41-1.14-.04-.42,0-.84.15-1.27.14-.43.36-.8.65-1.12.32-.34.75-.66,1.29-.95.55-.29,1.14-.55,1.79-.8.65-.24,1.28-.45,1.92-.62.63-.17,1.16-.3,1.59-.39,1.81-.37,3.63-.37,5.47.02,1.84.39,3.45,1.08,4.85,2.09,1.39,1.01,2.43,2.31,3.12,3.92.69,1.61.76,3.45.22,5.51-.17.58-.39,1.15-.65,1.72-.26.57-.56,1.11-.9,1.59-.49.75-1.06,1.41-1.72,1.98-.66.57-1.38,1.11-2.15,1.59.55.57,1.06,1.18,1.55,1.81.49.63,1.03,1.21,1.64,1.72.23.2.57.52,1.01.95.44.43.88.89,1.29,1.38.42.49.78.97,1.1,1.44.32.47.46.87.43,1.18-.03.55-.18,1.04-.45,1.49-.27.44-.6.79-.99,1.03-.39.24-.81.37-1.27.37s-.92-.16-1.38-.47c-.52-.4-1.01-.88-1.46-1.42-.46-.55-.9-1.05-1.34-1.51-.95-1.03-1.87-2.08-2.78-3.12-.9-1.05-1.83-2.07-2.78-3.08-.57.12-1.16.19-1.74.24-.59.04-1.17.09-1.74.15v6.42ZM15.79,11.96c-1.15-.69-2.41-1.08-3.77-1.16-1.36-.09-2.68.1-3.94.56v9.74c1.29-.09,2.56-.25,3.81-.5,1.25-.24,2.4-.78,3.47-1.62.57-.46,1.04-1,1.4-1.62.36-.62.57-1.25.65-1.9.07-.65-.02-1.28-.26-1.9-.24-.62-.7-1.16-1.36-1.62Z" fill="none" stroke="#231f20" stroke-miterlimit="10"/>
  <path d="M26.91,23.59c.2-.83.48-1.65.84-2.46.36-.8.8-1.57,1.31-2.3.52-.73,1.1-1.4,1.74-2,.65-.6,1.34-1.09,2.09-1.46,1.32-.69,2.65-1.04,3.98-1.06,1.34-.01,2.58.25,3.73.8,1.15.55,2.12,1.36,2.93,2.43.8,1.08,1.34,2.36,1.59,3.86.14.98.22,1.9.24,2.78.01.88-.08,1.79-.28,2.74-.29,1.35-.87,2.69-1.74,4.03-.88,1.34-1.92,2.46-3.14,3.36-1.22.9-2.56,1.5-4.01,1.79-1.45.29-2.91.06-4.37-.69-.66-.32-1.26-.68-1.79-1.1-.53-.42-1.01-.91-1.44-1.49-.49-.63-.87-1.29-1.14-1.98-.27-.69-.5-1.41-.67-2.15-.2-.8-.27-1.62-.22-2.43s.16-1.62.3-2.39l.04-.26ZM32.08,24.49c-.09.46-.16.91-.22,1.36-.06.45-.06.9,0,1.36.09.66.27,1.26.54,1.81.27.55.63.98,1.08,1.29.44.32.95.48,1.53.5.57.01,1.19-.17,1.85-.54.83-.49,1.55-1.24,2.15-2.26s.98-2.08,1.12-3.19c.14-1.1.03-2.15-.34-3.14-.37-.99-1.11-1.7-2.2-2.13-.72,0-1.38.14-1.98.41-.6.27-1.13.63-1.57,1.08-.45.45-.83.97-1.16,1.57-.33.6-.6,1.23-.8,1.89Z" fill="none" stroke="#231f20" stroke-miterlimit="10"/>
  <path d="M56.37,35.01c-.83.03-1.63-.03-2.39-.17-.76-.14-1.52-.39-2.26-.73-.37.2-.74.3-1.1.3s-.69-.06-.99-.17c-.3-.12-.56-.25-.78-.41s-.37-.28-.45-.37c-.32-.46-.5-.98-.56-1.55-.06-.57.13-1.12.56-1.64V8.12c0-.66.23-1.21.69-1.66.46-.44.99-.73,1.59-.84.6-.11,1.18-.01,1.74.3.56.32.94.89,1.14,1.72.11.52.21,1.03.28,1.53.07.5.11,1.08.13,1.74.01.66.01,1.42,0,2.28-.02.86-.05,1.92-.11,3.19.26-.14.52-.28.8-.41.27-.13.55-.27.84-.41.8-.37,1.67-.6,2.58-.69.92-.09,1.82-.04,2.69.15.88.19,1.69.53,2.46,1.03.76.5,1.39,1.16,1.87,1.96.69,1.15,1.16,2.49,1.4,4.03.24,1.54.24,3.06,0,4.57-.24,1.51-.75,2.91-1.51,4.2-.76,1.29-1.83,2.25-3.21,2.89-.86.4-1.74.71-2.65.93-.9.22-1.83.34-2.78.37ZM53.66,23.98v5.17c.06.06.11.1.17.13.06.03.11.07.17.13,2.58.86,4.82.27,6.72-1.77.43-1.15.64-2.23.62-3.25-.02-1.02-.21-2.12-.58-3.3-.14-.34-.38-.57-.71-.67-.33-.1-.62-.22-.88-.37-.46-.09-.96,0-1.49.26-.53.26-1.04.58-1.53.97-.49.39-.93.81-1.34,1.27-.4.46-.72.85-.95,1.16l-.22.26Z" fill="none" stroke="#231f20" stroke-miterlimit="10"/>
  <path d="M88.77,30.52c.26.37.41.81.45,1.31.04.5-.02.98-.17,1.42-.16.45-.42.81-.78,1.1-.36.29-.83.42-1.4.39-.75-.06-1.35-.32-1.81-.78-.46-.46-.89-.98-1.29-1.55-1.12.92-2.28,1.56-3.47,1.92-1.19.36-2.36.44-3.51.24-1.15-.2-2.23-.68-3.23-1.44s-1.85-1.79-2.54-3.08c-.63-1.21-.98-2.54-1.06-4.01-.07-1.46-.09-2.86-.06-4.18,0-.46.01-.91.04-1.36.03-.44.06-.91.09-1.4.03-.37.04-.74.04-1.1s.02-.7.06-1.01c.04-.32.13-.63.26-.95.13-.32.32-.62.58-.9.34-.37.76-.6,1.25-.67.49-.07.95-.02,1.4.15.44.17.83.44,1.16.8.33.36.51.8.54,1.31.06,1.46.02,2.94-.11,4.44-.13,1.49-.12,2.96.02,4.39.06.69.24,1.39.54,2.11.3.72.78,1.23,1.44,1.55.66.29,1.33.27,2-.06.67-.33,1.23-.73,1.66-1.19.2-.23.39-.48.58-.75.19-.27.39-.51.62-.71-.12-1-.19-2.01-.22-3.02-.03-1-.03-2.01,0-3.02,0-.55.02-1.14.06-1.79.04-.65.16-1.26.34-1.85.19-.59.47-1.11.84-1.55.37-.44.9-.73,1.59-.84.32-.06.62-.03.93.09.3.12.57.27.8.47.4.34.67.73.82,1.16.14.43.22.89.22,1.38s-.04.98-.11,1.49c-.07.5-.12.97-.15,1.4-.06.8-.1,1.65-.13,2.54-.03.89,0,1.78.09,2.67.09.89.25,1.75.5,2.58.24.83.61,1.59,1.1,2.28Z" fill="none" stroke="#231f20" stroke-miterlimit="10"/>
  <path d="M91.74,31c-.17-.49-.24-.97-.22-1.44.03-.47.15-.91.37-1.29.22-.39.52-.69.93-.9.4-.22.89-.29,1.46-.24.32.03.6.12.86.26.26.14.5.32.71.52.22.2.43.42.65.65.22.23.44.43.67.6.49.37,1,.65,1.55.82.54.17,1.12.3,1.72.39.4,0,.72-.1.97-.3.24-.2.41-.45.5-.73.09-.29.11-.6.06-.93-.04-.33-.15-.6-.32-.8-.49-.49-1.08-.8-1.79-.95-.7-.14-1.36-.32-1.96-.52-.86-.29-1.71-.65-2.54-1.1s-1.51-1.06-2.02-1.83c-.55-.8-.87-1.66-.97-2.56-.1-.9-.03-1.79.22-2.65.24-.86.65-1.65,1.23-2.37.57-.72,1.26-1.31,2.07-1.77.6-.34,1.26-.57,1.98-.67.72-.1,1.44-.12,2.18-.06.73.06,1.46.19,2.18.41.72.22,1.38.45,1.98.71.69.32,1.21.76,1.55,1.34.34.57.51,1.16.5,1.74-.02.59-.22,1.1-.6,1.53s-.96.65-1.7.65c-.46,0-.88-.08-1.25-.24-.37-.16-.76-.31-1.16-.45-.52-.2-1.08-.34-1.68-.41-.6-.07-1.09-.04-1.46.11-.12.03-.24.12-.39.28-.14.16-.25.35-.32.58-.07.23-.09.46-.04.69.04.23.19.42.45.56.69.37,1.42.66,2.2.86.78.2,1.54.43,2.28.69.75.26,1.44.59,2.09.99.65.4,1.18.98,1.62,1.72.63,1.09.95,2.23.97,3.42.01,1.19-.22,2.3-.71,3.34-.49,1.03-1.21,1.92-2.15,2.65s-2.05,1.17-3.32,1.31c-.89.09-1.77.04-2.63-.15-.86-.19-1.69-.49-2.5-.9-.8-.42-1.55-.91-2.24-1.49-.69-.57-1.29-1.18-1.81-1.81l-.13-.26Z" fill="none" stroke="#231f20" stroke-miterlimit="10"/>
  <path d="M111.81,19.54c-.57-.14-1.07-.39-1.49-.73-.42-.34-.7-.75-.86-1.21-.16-.46-.16-.93,0-1.42.16-.49.51-.93,1.06-1.34.46-.34.98-.52,1.55-.52h1.68c0-.2-.02-.64-.04-1.31-.03-.67-.04-1.41-.02-2.22.01-.8.06-1.57.15-2.3.09-.73.24-1.24.47-1.53.57-.8,1.28-1.19,2.13-1.14.85.04,1.54.45,2.09,1.23.11.14.22.32.32.52.1.2.15.39.15.56.03,1.03.04,2.07.02,3.1-.01,1.03-.02,2.07-.02,3.1h3.4c.52,0,.96.17,1.34.52.37.34.64.75.8,1.21.16.46.2.93.13,1.42-.07.49-.29.89-.67,1.21-.66.55-1.43.83-2.3.86-.88.03-1.77.04-2.69.04,0,1.58,0,3.16-.02,4.74-.01,1.58,0,3.16.02,4.74,0,.69.04,1.39.11,2.11.07.72.02,1.41-.15,2.07-.14.52-.39.93-.73,1.23-.34.3-.73.49-1.16.56-.43.07-.88.04-1.34-.09-.46-.13-.89-.37-1.29-.71-.2-.2-.35-.54-.45-1.03-.1-.49-.17-1-.19-1.55-.03-.63-.03-1.31,0-2.02v-2.24c0-.92,0-1.87-.02-2.87-.01-.99-.02-1.93-.02-2.82v-2.11l-1.94-.04Z" fill="none" stroke="#231f20" stroke-miterlimit="10"/>
  <path d="M159.2,28.54c.52.03.97.17,1.36.41s.7.54.95.88c.24.34.39.74.43,1.19s-.05.9-.28,1.36c-.09.2-.27.44-.54.71s-.52.44-.75.5c-1.84.55-3.73.88-5.67,1.01s-3.86.09-5.75-.11c-.55-.06-1.14-.12-1.79-.17-.65-.06-1.21-.24-1.7-.56-.89-.57-1.34-1.39-1.34-2.46V12.95c-.32-.23-.58-.52-.78-.86-.2-.34-.32-.71-.37-1.1-.04-.39,0-.76.15-1.12.14-.36.39-.67.73-.93.57-.46,1.23-.77,1.98-.93.75-.16,1.48-.29,2.2-.41,1.49-.23,2.99-.34,4.48-.34s3.02-.01,4.57-.04c.46,0,.99-.04,1.59-.11.6-.07,1.13-.02,1.59.15.55.2.98.52,1.29.95.32.43.5.89.56,1.38.06.49-.04.96-.28,1.42-.24.46-.67.82-1.27,1.08-.72.29-1.49.42-2.3.39-.82-.03-1.6-.04-2.35-.04-1.09,0-2.18.01-3.27.04-1.09.03-2.18.12-3.27.26v5.99c1.03.06,2.07.06,3.1,0,1.03-.06,2.07-.13,3.1-.22.46-.03.92-.07,1.38-.13.46-.06.93-.06,1.42,0,.63.09,1.12.34,1.46.78.34.43.55.91.62,1.44.07.53-.02,1.06-.28,1.57-.26.52-.68.89-1.25,1.12-.49.2-1.15.35-1.98.45-.83.1-1.71.17-2.63.22-.92.04-1.82.06-2.71.06s-1.64-.01-2.24-.04v5.3c1.58.2,3.17.23,4.78.09,1.61-.14,3.19-.42,4.74-.82h.3Z" fill="none" stroke="#231f20" stroke-miterlimit="10"/>
  <path d="M176.99,15.28c.43-.57.93-.97,1.49-1.19.56-.22,1.08-.26,1.57-.13.49.13.9.42,1.25.88.34.46.53,1.08.56,1.85,0,.2-.04.46-.11.78-.07.32-.17.64-.28.97-.12.33-.22.63-.3.9-.09.27-.14.45-.17.54-.49,1.55-1.06,3.22-1.7,5.02-.65,1.8-1.24,3.47-1.79,5.02-.23.66-.47,1.29-.71,1.88-.24.59-.5,1.2-.75,1.83-.2.52-.5.93-.88,1.25-.39.32-.8.52-1.25.6-.45.09-.9.04-1.36-.13-.46-.17-.86-.49-1.21-.95-.23-.32-.42-.72-.58-1.21-.16-.49-.28-.85-.37-1.08-.32-.83-.63-1.65-.95-2.46-.32-.8-.63-1.61-.95-2.41-.43-1.09-.88-2.17-1.34-3.23-.46-1.06-.93-2.11-1.42-3.14-.29-.63-.6-1.25-.95-1.85s-.6-1.23-.78-1.9c-.17-.6-.15-1.14.06-1.62.22-.47.53-.84.95-1.1.42-.26.89-.4,1.42-.43.53-.03,1.04.12,1.53.43.37.23.72.59,1.03,1.08.32.49.6,1.02.86,1.59.26.57.5,1.14.71,1.7s.41,1.03.58,1.4c.4.92.8,1.84,1.18,2.76.39.92.77,1.84,1.14,2.76.6-1.69,1.18-3.38,1.74-5.06.56-1.68,1.08-3.38,1.57-5.1l.17-.26Z" fill="none" stroke="#231f20" stroke-miterlimit="10"/>
  <path d="M199.86,28.11c.69-.17,1.3-.18,1.83-.02.53.16.94.42,1.23.8s.42.83.39,1.38c-.03.54-.27,1.12-.73,1.72-.37.49-.89.9-1.55,1.25-.66.34-1.28.62-1.85.82-1.41.52-2.74.88-4.01,1.08-1.26.2-2.45.2-3.55,0-1.11-.2-2.14-.62-3.1-1.25-.96-.63-1.86-1.52-2.69-2.67-.57-.78-1-1.66-1.27-2.65s-.42-2-.45-3.04c-.03-1.03.06-2.05.26-3.06.2-1,.49-1.91.86-2.71.49-1,1.26-1.92,2.33-2.76,1.06-.83,2.24-1.49,3.53-1.98,1.29-.49,2.61-.77,3.96-.84,1.35-.07,2.54.14,3.58.62.86.4,1.6.98,2.22,1.74.62.76,1.04,1.59,1.27,2.48.23.89.25,1.79.06,2.69-.19.9-.65,1.73-1.4,2.48-.72.72-1.51,1.3-2.37,1.74-.86.45-1.75.83-2.67,1.16-.92.33-1.86.61-2.82.84-.96.23-1.89.49-2.78.78.6.69,1.29,1.13,2.07,1.31s1.59.22,2.43.11c.85-.11,1.7-.35,2.56-.71.86-.36,1.67-.75,2.41-1.18l.26-.13ZM191.16,20.7c-.66.37-1.15.84-1.46,1.4-.32.56-.55,1.34-.69,2.35.75-.23,1.59-.47,2.52-.73.93-.26,1.82-.53,2.65-.82.83-.29,1.54-.6,2.11-.95.57-.34.86-.72.86-1.12,0-.23-.04-.45-.11-.67-.07-.22-.22-.37-.45-.45-.8-.29-1.64-.34-2.5-.17-.86.17-1.58.42-2.15.73l-.78.43Z" fill="none" stroke="#231f20" stroke-miterlimit="10"/>
  <path d="M222.86,32.77c-.09.72-.35,1.31-.8,1.77-.45.46-.95.75-1.51.86-.56.11-1.1.04-1.62-.22-.52-.26-.89-.76-1.12-1.51-.26-.8-.36-1.64-.3-2.52s.09-1.69.09-2.43c0-1.55,0-3.09.02-4.63.01-1.54-.05-3.08-.19-4.63-.03-.06-.06-.11-.09-.15-.03-.04-.09-.11-.17-.19-.66-.17-1.36-.13-2.11.13-.75.26-1.38.59-1.9.99-.46.37-.91.88-1.36,1.53-.45.65-.67,1.27-.67,1.87v5.94c0,.46.01.96.04,1.51.03.55,0,1.08-.06,1.59-.07.52-.24.99-.5,1.42-.26.43-.68.75-1.25.95-.32.11-.61.16-.88.13-.27-.03-.57-.1-.88-.21-.52-.17-.89-.47-1.12-.88-.23-.42-.39-.86-.47-1.34-.09-.47-.12-.93-.11-1.38.01-.44.02-.8.02-1.05,0-.66,0-1.62-.02-2.87-.01-1.25-.02-2.56-.02-3.94v-6.81c0-.63.19-1.16.56-1.57.37-.42.81-.69,1.31-.82.5-.13,1.03-.1,1.59.09.56.19,1.03.57,1.4,1.14,1.15-.75,2.41-1.25,3.79-1.51s2.68-.22,3.9.13c1.22.34,2.24.99,3.06,1.94s1.24,2.25,1.27,3.92c0,.06.01.23.04.52.03.29.04.69.04,1.21v11.03Z" fill="none" stroke="#231f20" stroke-miterlimit="10"/>
  <path d="M228.21,19.54c-.57-.14-1.07-.39-1.49-.73-.42-.34-.7-.75-.86-1.21-.16-.46-.16-.93,0-1.42.16-.49.51-.93,1.06-1.34.46-.34.98-.52,1.55-.52h1.68c0-.2-.02-.64-.04-1.31-.03-.67-.04-1.41-.02-2.22.01-.8.06-1.57.15-2.3.09-.73.24-1.24.47-1.53.57-.8,1.28-1.19,2.13-1.14.85.04,1.54.45,2.09,1.23.11.14.22.32.32.52.1.2.15.39.15.56.03,1.03.04,2.07.02,3.1-.01,1.03-.02,2.07-.02,3.1h3.4c.52,0,.96.17,1.34.52.37.34.64.75.8,1.21.16.46.2.93.13,1.42-.07.49-.29.89-.67,1.21-.66.55-1.43.83-2.3.86-.88.03-1.77.04-2.69.04,0,1.58,0,3.16-.02,4.74-.01,1.58,0,3.16.02,4.74,0,.69.04,1.39.11,2.11.07.72.02,1.41-.15,2.07-.14.52-.39.93-.73,1.23-.34.3-.73.49-1.16.56-.43.07-.88.04-1.34-.09-.46-.13-.89-.37-1.29-.71-.2-.2-.35-.54-.45-1.03-.1-.49-.17-1-.19-1.55-.03-.63-.03-1.31,0-2.02v-2.24c0-.92,0-1.87-.02-2.87-.01-.99-.02-1.93-.02-2.82v-2.11l-1.94-.04Z" fill="none" stroke="#231f20" stroke-miterlimit="10"/>
  <path d="M290.45,32.77c-.09.63-.32,1.17-.69,1.62-.37.45-.8.75-1.29.93-.49.17-.99.18-1.51.02-.52-.16-.95-.54-1.29-1.14-.29-.49-.45-1-.5-1.53s-.09-1.08-.15-1.66c-.06-.63-.12-1.19-.19-1.66-.07-.47-.15-1.03-.24-1.66-.26-1.72-.55-3.42-.86-5.1-.32-1.68-.67-3.37-1.08-5.06-.57,1.44-1.12,2.86-1.64,4.26-.52,1.41-1.03,2.83-1.55,4.26-.4,1.06-.8,2.13-1.18,3.21s-.84,2.12-1.36,3.12c-.17.34-.46.62-.86.84-.4.22-.83.34-1.29.37-.46.03-.89-.04-1.29-.19s-.7-.42-.9-.8c-1.24-2.38-2.46-4.75-3.66-7.11-1.21-2.35-2.41-4.72-3.62-7.11-.14,1.46-.27,2.94-.39,4.42-.12,1.48-.24,2.95-.39,4.41-.03.46-.06,1.02-.09,1.68-.03.66-.08,1.33-.15,2-.07.68-.16,1.32-.26,1.94-.1.62-.27,1.1-.5,1.44-.34.57-.8.95-1.36,1.12-.56.17-1.11.19-1.64.04-.53-.14-.98-.44-1.34-.88-.36-.45-.52-1.01-.5-1.7.06-1.18.16-2.34.3-3.49.14-1.15.27-2.31.39-3.49.23-2.56.47-5.1.71-7.62.24-2.53.48-5.08.71-7.67.06-.75.21-1.44.45-2.07.24-.63.77-1.08,1.57-1.34.32-.11.65-.16.99-.13.34.03.66.13.95.3.63.4,1.13.96,1.49,1.66.36.7.7,1.37,1.01,2,.55,1.03,1.08,2.07,1.59,3.12.52,1.05,1.03,2.09,1.55,3.12.63,1.32,1.27,2.62,1.92,3.9.65,1.28,1.31,2.56,2,3.86.17-.43.34-.86.5-1.29.16-.43.32-.86.5-1.29.32-.75.61-1.5.88-2.26.27-.76.55-1.51.84-2.26.4-.98.78-1.94,1.14-2.89.36-.95.71-1.91,1.05-2.89.29-.72.56-1.49.82-2.33.26-.83.67-1.54,1.25-2.11.4-.43.84-.69,1.31-.78.47-.09.92-.05,1.34.11.42.16.79.42,1.12.8.33.37.57.8.71,1.29.17.66.37,1.41.6,2.24.23.83.43,1.58.6,2.24.32,1.21.6,2.39.86,3.55.26,1.16.5,2.35.73,3.55.4,1.98.75,3.94,1.05,5.88s.57,3.9.8,5.88v.3Z" fill="none" stroke="#231f20" stroke-miterlimit="10"/>
  <path d="M311.69,31.99c.23.83.19,1.52-.13,2.07-.32.55-.75.91-1.31,1.1-.56.19-1.17.17-1.83-.06-.66-.23-1.24-.69-1.72-1.38-.8.6-1.59,1.03-2.35,1.27-.76.24-1.63.38-2.61.41-1.46.06-2.77-.11-3.92-.5-1.15-.39-2.12-.97-2.91-1.75s-1.37-1.74-1.74-2.91c-.37-1.16-.5-2.51-.39-4.03.06-.63.16-1.25.32-1.85s.34-1.19.54-1.77c.23-.63.55-1.31.97-2.02.42-.72.84-1.34,1.27-1.85,1.55-1.9,3.49-3.26,5.82-4.09.4-.14.95-.27,1.64-.39.69-.11,1.38-.16,2.09-.15.7.02,1.38.11,2.03.28.65.17,1.13.47,1.44.9.26.34.45.65.56.9.11.26.18.53.19.82s.01.6,0,.93c-.01.33-.02.74-.02,1.23,0,.8,0,1.59-.02,2.35-.01.76,0,1.53.02,2.3v1.01c0,.42.01.86.04,1.31s.06.9.11,1.31c.04.42.11.75.19,1.01l1.72,3.53ZM302.56,30.05c.32-.2.67-.42,1.08-.67.4-.24.76-.52,1.08-.84-.26-1.52-.41-3.04-.45-4.57s-.04-3.06.02-4.61c-1.29.23-2.46.79-3.49,1.68-1.03.89-1.75,1.94-2.15,3.14-.17.49-.32.99-.43,1.51-.12.52-.16,1.02-.13,1.51.03.66.2,1.21.52,1.66.32.45.7.78,1.14,1.01.44.23.92.36,1.42.39.5.03.97-.04,1.4-.22Z" fill="none" stroke="#231f20" stroke-miterlimit="10"/>
  <path d="M331.89,32.77c-.09.72-.35,1.31-.8,1.77-.45.46-.95.75-1.51.86-.56.11-1.1.04-1.62-.22-.52-.26-.89-.76-1.12-1.51-.26-.8-.36-1.64-.3-2.52.06-.88.09-1.69.09-2.43,0-1.55,0-3.09.02-4.63.01-1.54-.05-3.08-.19-4.63-.03-.06-.06-.11-.09-.15-.03-.04-.09-.11-.17-.19-.66-.17-1.36-.13-2.11.13s-1.38.59-1.9.99c-.46.37-.91.88-1.36,1.53-.45.65-.67,1.27-.67,1.87v5.94c0,.46.01.96.04,1.51.03.55,0,1.08-.06,1.59-.07.52-.24.99-.5,1.42-.26.43-.67.75-1.25.95-.32.11-.61.16-.88.13-.27-.03-.57-.1-.88-.21-.52-.17-.89-.47-1.12-.88-.23-.42-.39-.86-.47-1.34s-.12-.93-.11-1.38c.01-.44.02-.8.02-1.05,0-.66,0-1.62-.02-2.87-.02-1.25-.02-2.56-.02-3.94v-6.81c0-.63.19-1.16.56-1.57.37-.42.81-.69,1.31-.82.5-.13,1.03-.1,1.59.09.56.19,1.03.57,1.4,1.14,1.15-.75,2.41-1.25,3.79-1.51s2.68-.22,3.9.13,2.24.99,3.06,1.94,1.24,2.25,1.27,3.92c0,.06.01.23.04.52.03.29.04.69.04,1.21v11.03Z" fill="none" stroke="#231f20" stroke-miterlimit="10"/>
  <path d="M354.21,31.99c.23.83.19,1.52-.13,2.07-.32.55-.75.91-1.31,1.1-.56.19-1.17.17-1.83-.06-.66-.23-1.24-.69-1.72-1.38-.8.6-1.59,1.03-2.35,1.27-.76.24-1.63.38-2.61.41-1.46.06-2.77-.11-3.92-.5-1.15-.39-2.12-.97-2.91-1.75s-1.37-1.74-1.74-2.91c-.37-1.16-.5-2.51-.39-4.03.06-.63.16-1.25.32-1.85s.34-1.19.54-1.77c.23-.63.55-1.31.97-2.02.42-.72.84-1.34,1.27-1.85,1.55-1.9,3.49-3.26,5.82-4.09.4-.14.95-.27,1.64-.39.69-.11,1.38-.16,2.09-.15.7.02,1.38.11,2.03.28.65.17,1.13.47,1.44.9.26.34.45.65.56.9.11.26.18.53.19.82s.01.6,0,.93c-.01.33-.02.74-.02,1.23,0,.8,0,1.59-.02,2.35-.01.76,0,1.53.02,2.3v1.01c0,.42.01.86.04,1.31s.06.9.11,1.31c.04.42.11.75.19,1.01l1.72,3.53ZM345.07,30.05c.32-.2.67-.42,1.08-.67.4-.24.76-.52,1.08-.84-.26-1.52-.41-3.04-.45-4.57s-.04-3.06.02-4.61c-1.29.23-2.46.79-3.49,1.68-1.03.89-1.75,1.94-2.15,3.14-.17.49-.32.99-.43,1.51-.12.52-.16,1.02-.13,1.51.03.66.2,1.21.52,1.66.32.45.7.78,1.14,1.01.44.23.92.36,1.42.39.5.03.97-.04,1.4-.22Z" fill="none" stroke="#231f20" stroke-miterlimit="10"/>
  <path d="M358.51,42.89c-.49-.6-.75-1.23-.78-1.87-.03-.65.11-1.2.43-1.66.32-.46.77-.78,1.36-.95.59-.17,1.24-.09,1.96.26.32.23.6.4.86.52.26.11.62.29,1.08.52.43.2.92.35,1.46.45.54.1,1.06.12,1.55.06.98-.06,1.73-.22,2.26-.5.53-.27.91-.63,1.14-1.08.23-.45.37-.99.41-1.64s.06-1.37.06-2.18c-.92.32-1.84.55-2.76.71-.92.16-1.87.18-2.84.06-1.9-.23-3.45-.9-4.67-2.02s-2.11-2.46-2.67-4.01c-.56-1.55-.79-3.21-.69-4.98.1-1.77.51-3.4,1.23-4.89.43-.86,1.02-1.66,1.77-2.39s1.59-1.34,2.52-1.81c.93-.47,1.91-.78,2.93-.93,1.02-.14,2-.06,2.95.26.54.2,1.08.4,1.59.6.52.2,1.02.46,1.51.78.54-.49,1.18-.73,1.92-.73s1.36.34,1.87,1.03c.11.17.24.37.39.58.14.22.21.42.21.62.03,3.07.04,6.14.02,9.2s-.02,6.12-.02,9.2c0,1.23-.17,2.38-.5,3.45-.33,1.06-.83,2-1.49,2.82-.66.82-1.48,1.49-2.46,2-.98.52-2.11.85-3.4.99-.66.06-1.31.09-1.94.09s-1.28-.07-1.94-.22c-.92-.17-1.8-.46-2.65-.86-.85-.4-1.69-.85-2.52-1.33l-.17-.17ZM363.6,29.75c1.26.6,2.43.8,3.49.58,1.06-.22,2.14-.7,3.23-1.44v-6.85c-.83-.83-1.64-1.41-2.43-1.74-.79-.33-1.73-.42-2.82-.28-.2.12-.39.22-.58.3-.19.09-.38.17-.58.26-.6.69-1.06,1.36-1.38,2-.32.65-.5,1.31-.56,1.98s0,1.36.15,2.07c.16.7.39,1.47.71,2.3.09.14.22.29.39.43.17.14.3.27.39.39Z" fill="none" stroke="#231f20" stroke-miterlimit="10"/>
  <path d="M394.83,28.11c.69-.17,1.3-.18,1.83-.02s.94.42,1.23.8.42.83.39,1.38c-.03.54-.27,1.12-.73,1.72-.37.49-.89.9-1.55,1.25-.66.34-1.28.62-1.85.82-1.41.52-2.74.88-4.01,1.08s-2.45.2-3.55,0-2.14-.62-3.1-1.25c-.96-.63-1.86-1.52-2.69-2.67-.58-.78-1-1.66-1.27-2.65-.27-.99-.42-2-.45-3.04s.06-2.05.26-3.06c.2-1,.49-1.91.86-2.71.49-1,1.26-1.92,2.33-2.76s2.24-1.49,3.53-1.98c1.29-.49,2.61-.77,3.96-.84,1.35-.07,2.54.14,3.58.62.86.4,1.6.98,2.22,1.74.62.76,1.04,1.59,1.27,2.48.23.89.25,1.79.06,2.69s-.65,1.73-1.4,2.48c-.72.72-1.51,1.3-2.37,1.74-.86.45-1.75.83-2.67,1.16-.92.33-1.86.61-2.82.84-.96.23-1.89.49-2.78.78.6.69,1.29,1.13,2.07,1.31s1.59.22,2.43.11c.85-.11,1.7-.35,2.56-.71.86-.36,1.67-.75,2.41-1.18l.26-.13ZM386.13,20.7c-.66.37-1.15.84-1.46,1.4-.32.56-.55,1.34-.69,2.35.75-.23,1.59-.47,2.52-.73.93-.26,1.82-.53,2.65-.82.83-.29,1.54-.6,2.11-.95.57-.34.86-.72.86-1.12,0-.23-.04-.45-.11-.67-.07-.22-.22-.37-.45-.45-.8-.29-1.64-.34-2.5-.17-.86.17-1.58.42-2.15.73l-.78.43Z" fill="none" stroke="#231f20" stroke-miterlimit="10"/>
  <path d="M411.11,21.56v-.6c-.26-.66-.67-1.13-1.25-1.4-.58-.27-1.19-.44-1.85-.5-.37.12-.67.24-.9.39-.23.14-.43.3-.6.47-.17.17-.33.37-.47.58-.14.22-.32.44-.52.67v11.29c0,.89-.27,1.59-.8,2.09-.53.5-1.12.79-1.77.86-.65.07-1.24-.09-1.79-.47s-.83-1.04-.86-1.96c-.06-2.21-.08-4.72-.06-7.54.01-2.81.02-5.96.02-9.43,0-.6.18-1.1.54-1.51.36-.4.79-.67,1.29-.82.5-.14,1.02-.14,1.55.02.53.16.97.48,1.31.97,1.61-.8,3.21-1.06,4.8-.75,1.59.3,3.04,1.06,4.33,2.26.57-.57,1.19-1.09,1.85-1.55.66-.46,1.38-.76,2.15-.9.89-.14,1.79-.11,2.69.11.91.22,1.75.57,2.52,1.06s1.46,1.09,2.05,1.81c.59.72,1.03,1.49,1.31,2.33.14.57.22,1.09.22,1.55v11.72c0,.34-.04.67-.13.99-.26.75-.67,1.27-1.23,1.57-.56.3-1.13.41-1.72.32-.59-.09-1.1-.36-1.53-.82-.43-.46-.65-1.08-.65-1.85v-11.59c-.26-.69-.63-1.19-1.12-1.51-.49-.32-.99-.46-1.51-.43-.52.03-1.01.22-1.49.56-.47.34-.86.82-1.14,1.42v11.29c0,.78-.25,1.42-.75,1.94-.5.52-1.06.85-1.66.99-.6.14-1.17.09-1.7-.17s-.84-.78-.93-1.55l-.22-11.89Z" fill="none" stroke="#231f20" stroke-miterlimit="10"/>
  <path d="M446.74,28.11c.69-.17,1.3-.18,1.83-.02s.94.42,1.23.8.42.83.39,1.38c-.03.54-.27,1.12-.73,1.72-.37.49-.89.9-1.55,1.25-.66.34-1.28.62-1.85.82-1.41.52-2.74.88-4.01,1.08s-2.45.2-3.55,0-2.14-.62-3.1-1.25c-.96-.63-1.86-1.52-2.69-2.67-.58-.78-1-1.66-1.27-2.65-.27-.99-.42-2-.45-3.04s.06-2.05.26-3.06c.2-1,.49-1.91.86-2.71.49-1,1.26-1.92,2.33-2.76s2.24-1.49,3.53-1.98c1.29-.49,2.61-.77,3.96-.84,1.35-.07,2.54.14,3.58.62.86.4,1.6.98,2.22,1.74.62.76,1.04,1.59,1.27,2.48.23.89.25,1.79.06,2.69s-.65,1.73-1.4,2.48c-.72.72-1.51,1.3-2.37,1.74-.86.45-1.75.83-2.67,1.16-.92.33-1.86.61-2.82.84-.96.23-1.89.49-2.78.78.6.69,1.29,1.13,2.07,1.31s1.59.22,2.43.11c.85-.11,1.7-.35,2.56-.71.86-.36,1.67-.75,2.41-1.18l.26-.13ZM438.03,20.7c-.66.37-1.15.84-1.46,1.4-.32.56-.55,1.34-.69,2.35.75-.23,1.59-.47,2.52-.73.93-.26,1.82-.53,2.65-.82.83-.29,1.54-.6,2.11-.95.57-.34.86-.72.86-1.12,0-.23-.04-.45-.11-.67-.07-.22-.22-.37-.45-.45-.8-.29-1.64-.34-2.5-.17-.86.17-1.58.42-2.15.73l-.78.43Z" fill="none" stroke="#231f20" stroke-miterlimit="10"/>
  <path d="M469.74,32.77c-.09.72-.35,1.31-.8,1.77-.45.46-.95.75-1.51.86-.56.11-1.1.04-1.62-.22-.52-.26-.89-.76-1.12-1.51-.26-.8-.36-1.64-.3-2.52.06-.88.09-1.69.09-2.43,0-1.55,0-3.09.02-4.63.01-1.54-.05-3.08-.19-4.63-.03-.06-.06-.11-.09-.15-.03-.04-.09-.11-.17-.19-.66-.17-1.36-.13-2.11.13s-1.38.59-1.9.99c-.46.37-.91.88-1.36,1.53-.45.65-.67,1.27-.67,1.87v5.94c0,.46.01.96.04,1.51.03.55,0,1.08-.06,1.59-.07.52-.24.99-.5,1.42-.26.43-.67.75-1.25.95-.32.11-.61.16-.88.13-.27-.03-.57-.1-.88-.21-.52-.17-.89-.47-1.12-.88-.23-.42-.39-.86-.47-1.34s-.12-.93-.11-1.38c.01-.44.02-.8.02-1.05,0-.66,0-1.62-.02-2.87-.02-1.25-.02-2.56-.02-3.94v-6.81c0-.63.19-1.16.56-1.57.37-.42.81-.69,1.31-.82.5-.13,1.03-.1,1.59.09.56.19,1.03.57,1.4,1.14,1.15-.75,2.41-1.25,3.79-1.51s2.68-.22,3.9.13,2.24.99,3.06,1.94,1.24,2.25,1.27,3.92c0,.06.01.23.04.52.03.29.04.69.04,1.21v11.03Z" fill="none" stroke="#231f20" stroke-miterlimit="10"/>
  <path d="M475.08,19.54c-.57-.14-1.07-.39-1.49-.73-.42-.34-.7-.75-.86-1.21-.16-.46-.16-.93,0-1.42.16-.49.51-.93,1.06-1.34.46-.34.98-.52,1.55-.52h1.68c0-.2-.01-.64-.04-1.31-.03-.67-.04-1.41-.02-2.22.01-.8.06-1.57.15-2.3.09-.73.24-1.24.47-1.53.57-.8,1.29-1.19,2.13-1.14.85.04,1.54.45,2.09,1.23.11.14.22.32.32.52.1.2.15.39.15.56.03,1.03.04,2.07.02,3.1-.01,1.03-.02,2.07-.02,3.1h3.4c.52,0,.96.17,1.33.52.37.34.64.75.8,1.21.16.46.2.93.13,1.42-.07.49-.29.89-.67,1.21-.66.55-1.43.83-2.3.86-.88.03-1.77.04-2.69.04,0,1.58,0,3.16-.02,4.74-.01,1.58,0,3.16.02,4.74,0,.69.04,1.39.11,2.11s.02,1.41-.15,2.07c-.14.52-.39.93-.73,1.23-.34.3-.73.49-1.16.56-.43.07-.88.04-1.33-.09-.46-.13-.89-.37-1.29-.71-.2-.2-.35-.54-.45-1.03-.1-.49-.17-1-.19-1.55-.03-.63-.03-1.31,0-2.02v-2.24c0-.92,0-1.87-.02-2.87-.01-.99-.02-1.93-.02-2.82v-2.11l-1.94-.04Z" fill="none" stroke="#231f20" stroke-miterlimit="10"/>
</svg>