<?xml version="1.0" encoding="UTF-8"?>
<svg xmlns="http://www.w3.org/2000/svg" xmlns:xlink="http://www.w3.org/1999/xlink" viewBox="0 0 1407.41 735.51">
  <defs>
    <style>
      .cls-1 {
        fill: #cc3937;
      }

      .cls-1, .cls-2, .cls-3, .cls-4, .cls-5, .cls-6, .cls-7, .cls-8, .cls-9, .cls-10, .cls-11, .cls-12, .cls-13, .cls-14, .cls-15, .cls-16, .cls-17, .cls-18, .cls-19, .cls-20 {
        stroke: #231f20;
        stroke-miterlimit: 10;
      }

      .cls-1, .cls-6, .cls-7, .cls-12, .cls-14 {
        stroke-width: 5px;
      }

      .cls-2 {
        fill: #c3d5d2;
      }

      .cls-2, .cls-8, .cls-9, .cls-10, .cls-13, .cls-15, .cls-16, .cls-17, .cls-19, .cls-20 {
        stroke-width: .38px;
      }

      .cls-21 {
        fill: url(#linear-gradient-2);
      }

      .cls-22, .cls-6 {
        fill: #231f20;
      }

      .cls-23 {
        fill: #56a1d8;
      }

      .cls-3 {
        fill: #fff8a7;
      }

      .cls-3, .cls-11 {
        stroke-width: 1.06px;
      }

      .cls-4 {
        stroke-width: 3px;
      }

      .cls-4, .cls-7, .cls-11 {
        fill: none;
      }

      .cls-24, .cls-5, .cls-12, .cls-18 {
        fill: #fff;
      }

      .cls-25 {
        fill: #071f35;
      }

      .cls-8 {
        fill: #f1bbc2;
      }

      .cls-9 {
        fill: #f5b4be;
      }

      .cls-10 {
        fill: #9cd7d1;
      }

      .cls-13 {
        fill: #fcf4ea;
      }

      .cls-26 {
        fill: #c3bfbf;
      }

      .cls-14 {
        fill: #f8b4be;
      }

      .cls-15 {
        fill: #9dd7d1;
      }

      .cls-16 {
        fill: #eac7ca;
      }

      .cls-17 {
        fill: #f2c2c8;
      }

      .cls-27 {
        opacity: .64;
      }

      .cls-28 {
        fill: #599642;
      }

      .cls-18 {
        stroke-width: 2px;
      }

      .cls-19 {
        fill: #bcdad5;
      }

      .cls-29 {
        fill: url(#linear-gradient);
      }

      .cls-30 {
        fill: #2479bf;
      }

      .cls-31 {
        fill: #6dac46;
      }

      .cls-20 {
        fill: #a0d7d2;
      }
    </style>
    <linearGradient id="linear-gradient" x1="-834.04" y1="-287.4" x2="-841.48" y2="-279.97" gradientTransform="translate(5714.96 804.57) rotate(-9.55) scale(5.22)" gradientUnits="userSpaceOnUse">
      <stop offset="0" stop-color="#fba92d"/>
      <stop offset="1" stop-color="#fdc06d"/>
    </linearGradient>
    <linearGradient id="linear-gradient-2" x1="1195.7" y1="98.31" x2="1195.7" y2="130.91" gradientTransform="translate(-38.57 156.17) rotate(-9.55)" gradientUnits="userSpaceOnUse">
      <stop offset="0" stop-color="#27180d"/>
      <stop offset="1" stop-color="#010101"/>
    </linearGradient>
  </defs>
  <g id="Layer_1">
    <g>
      <rect class="cls-24" x="2.5" y="2.5" width="1402.41" height="708.43" rx="10" ry="10"/>
      <rect class="cls-7" x="2.5" y="2.5" width="1402.41" height="708.43" rx="10" ry="10"/>
    </g>
    <g>
      <circle class="cls-6" cx="37.9" cy="31.51" r="8.13"/>
      <circle class="cls-6" cx="1373.14" cy="31.51" r="8.13"/>
    </g>
    <polygon class="cls-6" points="1179.02 733.01 1191.36 724.09 1191.36 687.95 244.37 687.95 244.37 696.87 232.03 696.87 232.03 733.01 1179.02 733.01"/>
  </g>
  <g id="Layer_3" class="cls-27">
    <g id="layer1">
      <path id="path4951" class="cls-1" d="M164.08,613.13l-3.22-7.66-38.16,16.04-19.28-45.87,137.27-57.7,19.28,45.87-68.64,28.85,3.22,7.66-30.48,12.81Z"/>
      <path id="path4949" class="cls-12" d="M183.91,595.78l-3.24-7.71,15.11-6.35-12.8-30.45-30.42,12.79,16.04,38.16,15.32-6.44Z"/>
      <path id="path4947" class="cls-1" d="M171.09,565.28l7.42-3.12,6.35,15.11-7.42,3.12-6.35-15.11Z"/>
      <path id="path4945" class="cls-12" d="M142.25,604.22l-9.58-22.79,7.69-3.23,9.58,22.79,7.69-3.23-12.8-30.45-30.42,12.79,12.8,30.45,15.05-6.33Z"/>
      <path id="path2998" class="cls-12" d="M218.57,572.14l-9.58-22.79,7.69-3.23,9.58,22.79,7.69-3.23-9.58-22.79,7.69-3.23,9.58,22.79,7.69-3.23-12.8-30.45-45.84,19.27,12.8,30.45,15.1-6.35Z"/>
    </g>
    <circle class="cls-14" cx="231.63" cy="517.94" r="17.68"/>
    <g>
      <g>
        <rect class="cls-24" x="1134.4" y="46.19" width="50.31" height="49.27" rx="10" ry="10" transform="translate(4.33 193.45) rotate(-9.55)"/>
        <rect class="cls-4" x="1134.4" y="46.19" width="50.31" height="49.27" rx="10" ry="10" transform="translate(4.33 193.45) rotate(-9.55)"/>
      </g>
      <g>
        <path class="cls-29" d="M1136.82,55l39.03-6.57,6.43,38.22-39.03,6.57-6.43-38.22Z"/>
        <path class="cls-21" d="M1154.33,72.06l3.46-.58-2.86-6.42-.6,7ZM1140.28,57.5l5.43,32.25,33.18-5.58-5.43-32.25-33.18,5.58ZM1160.93,78.51l-2-4.15-4.68.79-.53,4.57-3.21.54,1.92-16.17-.28-1.69,4.3-.72,8.03,16.24-3.54.6ZM1169.45,77.08l-3.46.58-2.19-13.01,3.46-.58,2.19,13.01ZM1165.29,62.8c-.99.17-1.93-.49-2.09-1.47s.5-1.91,1.5-2.07,1.93.49,2.09,1.47-.5,1.91-1.49,2.07Z"/>
      </g>
    </g>
    <g>
      <rect class="cls-18" x="1186.1" y="44.78" width="56.84" height="58.29" rx="10.32" ry="10.32" transform="translate(824.54 1226.51) rotate(-74.79)"/>
      <g>
        <path class="cls-25" d="M1205.82,47.67l29.49,8.02c4.47,1.22,7.1,5.81,5.89,10.28l-7.71,28.34c-1.22,4.47-5.81,7.1-10.28,5.89l-29.49-8.02c-4.47-1.22-7.1-5.81-5.89-10.28l7.71-28.34c1.22-4.47,5.81-7.1,10.28-5.89Z"/>
        <path class="cls-23" d="M1199.52,79.48l5.32-19.57c.04-.13.11-.19.25-.16.32.09.63.17,1.07.27.46.11.94.23,1.46.36s1.07.27,1.67.41,1.17.3,1.74.45c1.56.42,2.8.97,3.76,1.66.86.58,1.59,1.35,2.12,2.25.44.77.72,1.65.8,2.55.07.88,0,1.74-.23,2.59-.44,1.64-1.19,2.88-2.24,3.74s-2.33,1.37-3.69,1.49c-1.42.12-2.9-.09-4.46-.52-.46-.12-.76-.21-.95-.28s-.45-.14-.81-.24l-1.66,6.11c-.02.14-.14.23-.28.21l-3.69-1c-.15-.04-.21-.14-.16-.31h0ZM1208.05,64.49l-1.74,6.39c.26.09.5.18.73.24l1.01.27c.74.2,1.51.29,2.28.25.66,0,1.29-.22,1.83-.58.53-.37.89-.96,1.12-1.8.18-.58.19-1.22.02-1.81-.19-.58-.54-1.09-1.04-1.45-.63-.48-1.36-.8-2.14-.99-.49-.13-.93-.25-1.3-.33-.38-.12-.65-.18-.79-.19h0ZM1228.73,75.73c-.49-.46-1.04-.83-1.65-1.14-.66-.34-1.34-.63-2.06-.83-.38-.12-.79-.17-1.18-.18-.26-.01-.51.07-.69.22-.14.13-.25.3-.29.47s-.02.36.06.55c.11.26.3.49.51.69.38.35.78.68,1.18.99.93.62,1.79,1.37,2.55,2.19.52.57.89,1.24,1.07,1.99.14.69.11,1.4-.1,2.08-.22.9-.73,1.72-1.43,2.33-.74.62-1.64,1-2.59,1.11-1.04.15-2.24.04-3.61-.33-.88-.24-1.71-.55-2.52-.95-.63-.3-1.24-.69-1.77-1.14-.11-.11-.17-.27-.11-.42l.9-3.31c.02-.06.06-.13.12-.15s.12.01.17.07c.62.64,1.32,1.16,2.11,1.57.67.39,1.41.69,2.17.9s1.26.24,1.65.16c.34-.05.64-.32.73-.66.07-.27-.01-.55-.25-.89s-.79-.79-1.62-1.4c-.88-.61-1.65-1.31-2.33-2.1-.48-.58-.82-1.26-1.01-2.01-.14-.69-.11-1.4.09-2.06.22-.82.66-1.54,1.27-2.13.68-.63,1.55-1.05,2.47-1.21,1.02-.21,2.2-.12,3.55.25.78.21,1.56.49,2.31.81.55.23,1.06.53,1.52.88.07.04.13.14.14.22,0,.08,0,.16-.02.24l-.84,3.1c-.02.08-.08.14-.15.16-.18,0-.28-.03-.34-.09h0Z"/>
      </g>
    </g>
    <g>
      <g>
        <path class="cls-24" d="M1226.22,59.24c-4.81,2.67-6.56,8.79-3.89,13.6l1.1,1.98,9.7,17.49,1.1,1.98c2.67,4.81,8.79,6.56,13.6,3.89l21.45-11.9c4.81-2.67,6.56-8.79,3.89-13.6l-11.9-21.45c-2.67-4.81-8.79-6.56-13.6-3.89l-21.45,11.9Z"/>
        <path class="cls-4" d="M1226.22,59.24c-4.81,2.67-6.56,8.79-3.89,13.6l1.1,1.98,9.7,17.49,1.1,1.98c2.67,4.81,8.79,6.56,13.6,3.89l21.45-11.9c4.81-2.67,6.56-8.79,3.89-13.6l-11.9-21.45c-2.67-4.81-8.79-6.56-13.6-3.89l-21.45,11.9Z"/>
      </g>
      <g>
        <path class="cls-30" d="M1232.61,81.16l-8.4-15.15,30.29-16.81,16.81,30.29-30.29,16.81"/>
        <path class="cls-24" d="M1239.28,77.53l.68,1.23,3.94-2.19,6.22,11.21,2.79-1.55-6.22-11.21,3.94-2.19-.67-1.21c-.38-.68-.68-1.23-.72-1.23-.01-.02-2.42,1.3-5.33,2.92l-5.29,2.96.69,1.24h-.03s0,0,0,0ZM1256.27,66.45c.87-.25,1.66-.23,2.49.03.45.15,1.16.45,1.26.57.03.05-.79,1.66-1.32,2.59-.02.04-.21-.02-.44-.15-.7-.34-1.24-.36-1.89-.06-.94.44-1.28,1.26-.84,2.05.13.24.26.35.46.5.44.3.95.34,2.41.21,2.68-.27,3.96-.18,5.02.39,1.19.63,2.19,2.09,2.4,3.49.22,1.53-.49,3.04-2.02,4.26-.48.39-1.7,1.04-2.32,1.26-1.34.45-2.83.48-3.98.1-.45-.15-1.44-.66-1.43-.73l.19-.34.77-1.29.58-.97.34.16c.47.26,1.32.47,1.75.48,1.27-.04,2.55-.84,2.87-1.79.14-.41.11-.75-.1-1.13-.19-.35-.33-.48-.66-.65-.43-.2-1.06-.2-2.76-.05-1.94.2-2.84.15-3.82-.16-.57-.2-1.24-.63-1.67-1.05-.36-.38-.99-1.43-1.13-1.92-.51-1.7.04-3.39,1.51-4.6.47-.4,1.75-1.05,2.34-1.2v.02s0,0,0,0Z"/>
      </g>
    </g>
    <path class="cls-5" d="M1081.28,141.53c-4.54-6.32-10.75-7.29-12.55-14.86-1.24-5.2-.61-7.39-.67-11.29-.4-24.98-9.57-46.35-27.65-63.85-6.02-5.88-12.84-10.83-20.29-14.84-12.26-6.52-24.95-11.19-38.72-13.05-5.82-.75-11.69-1.11-17.57-1.08-2.01,0-3.95-.22-5.95-.65l-10.11-3.08-.22-.22c-.43-.14-.36.22-.36.5,1.51,1.37,2.29,3.16,2.73,5.17.35,2.08.14,4.16,0,6.31-.86,11.9.79,23.59,4.23,35.06,4.69,15.39,12.69,28.9,23.24,41.01,3.73,4.44,19.79,17.21,25.24,20.08,14.56,7.53,30.12,10.47,46.32,10.33l7.83-1.65,13.45,11.48,11.06-5.37Z"/>
    <g>
      <path class="cls-28" d="M954.72,25.82l9.03,2.75c1.79.38,3.52.58,5.32.58,5.24-.03,10.48.29,15.68.96,12.29,1.66,23.63,5.83,34.57,11.65,6.66,3.59,12.74,8,18.12,13.25,16.14,15.62,24.33,34.7,24.68,57.01.01,3.58-.27,7.16-.84,10.7-1.09,1.09-2.44.77-3.65.45-2.24-.61-4.35-1.63-6.21-3.01-2.31-1.54-4.48-3.2-6.34-5.31l-.9-.9c-.28-.1-89.4-87.3-89.47-88.14h0Z"/>
      <path class="cls-31" d="M954.53,25.62c-.39-.13-.32.19-.32.45,1.35,1.22,2.05,2.82,2.44,4.61.32,1.86.13,3.71,0,5.63-.76,10.62.71,21.06,3.78,31.31,4.19,13.74,11.33,25.8,20.75,36.62,3.33,3.97,17.67,15.37,22.54,17.93,13,6.72,26.89,9.35,41.36,9.22,3.52-.07,7.04-.38,10.56-.83.58-.58.12-1.15-.12-1.67-.56-1.07-1.21-2.1-1.92-3.07l-8.32-10.89-90.74-89.31Z"/>
      <path class="cls-26" d="M1063.5,128.31c-1.34-1.6-1.85-3.52-2.3-5.51-1.09.45-2.3.39-3.46.13-1.06-.28-2.08-.67-3.07-1.16-3.59-1.79-6.6-4.42-9.6-6.91l-1.66-1.66c-.06.58,2.05,2.82,2.37,3.14,2.72,3.09,5.22,6.36,7.49,9.8.96,1.34,1.98,2.62,2.3,4.36.13.13.26.26.51.39,4.55,2.24,8.32,5.38,12.04,8.71l1.29,1.29c1.54,1.54,1.15,1.27,2.94.51.71-.32,1.34-.83,2.24-.96.39-.39.13-.77-.13-1.02l-2.3-1.92-5.89-5.89c-1.09-.97-1.92-2.18-2.75-3.27h0Z"/>
    </g>
    <g>
      <path class="cls-13" d="M994.17,61.77c.3-1.48.27-2.99.08-4.47-.39-3-1.51-5.72-3.46-8.07-1.65-1.99-3.67-3.52-5.99-4.63-2.37-1.13-4.87-1.83-7.48-2.19-1.36-.19-2.71-.42-4.06-.69-2.37-.47-4.71-1.12-7.12-1.38-1.49-.16-2.88.01-4.03,1.18-.35-1.29-1.38-1.92-2.43-2.48-1.26-.67-2.68-.95-4.05-1.34-1.13-.32-2.3-.38-3.46-.48-1.24-.11-2.48-.05-3.65.47-1.49.65-2.1,2.62-1.21,3.99.49.75,1.2,1.2,2,1.54.72.3,1.02.68.98,1.31-.03.54-.09,1.06-.21,1.59-.8,3.8-1.59,7.6-2.38,11.4-.09.45-.19.9-.39,1.33-.75,1.61-1.93,2.67-3.7,3.05-1.55.33-3.05.09-4.5-.35-1.14-.34-2.16-.95-2.89-1.97-.95-1.33-1.12-2.81-.81-4.35.76-3.77,1.56-7.53,2.35-11.3.14-.65.26-1.31.41-1.96.13-.55.33-1,1.05-.97.36.02.73-.12,1.08-.23,1.17-.37,1.91-1.45,1.89-2.66-.02-1.39-.9-2.18-1.94-2.85-1.49-.96-3.21-1.34-4.88-1.78-1.94-.51-3.92-.87-5.93-.91-1.63-.03-3.26.06-4.45,1.54-.22-1.12-.75-2.05-1.36-2.94-.93-1.35-3.03-1.83-4.42-.97-.29.18-.56.22-.89.15-5.47-1.15-10.94-2.29-16.41-3.42-.33-.07-.56-.2-.76-.49-.75-1.09-2.5-1.64-3.73-1.22-1.36.46-2.35,1.39-3.19,2.49-.95,1.24-1.7,2.59-2.16,4.1-.47,1.55-.87,3.09-.62,4.74.34,2.3,2.42,3.49,4.54,2.54.86-.39,1.41-1.13,1.94-1.87.66-.94,1.25-1.93,1.94-2.85.46-.62,1.02-.82,1.72-.78.26.01.51.12.77.14.42.03.56.28.49.63-.08.44-.06.89-.15,1.32-1.19,5.75-2.36,11.5-3.62,17.24-.24,1.09-.27,1.27-1.4,1.28-.24,0-.47.08-.71.12-1.09.17-1.93.69-2.28,1.77-.41,1.29-.06,2.36.99,3.23,1.5,1.25,3.34,1.76,5.17,2.21,2.27.56,4.56,1.07,6.9,1.24,1.25.09,2.49.09,3.67-.39,1.72-.69,2.38-2.69,1.28-4.16-.38-.51-.87-.86-1.39-1.18-1.02-.61-1.05-.65-.8-1.83.69-3.33,1.4-6.65,2.08-9.99.29-1.43.59-2.87.84-4.31.22-1.24.56-2.48.85-3.71.05-.23.17-.45.26-.67.06-.13.17-.18.31-.19,1.06-.06,2.03.66,2.31,1.69.18.66.29,1.34.41,2.02.22,1.22.37,2.44,1.07,3.53.98,1.51,3.31,1.93,4.73.52,1.47-1.46,1.73-3.34,2.02-5.23.06-.38-.04-.77.11-1.18.38.25.74.48,1.1.71.27.18.33.44.28.73-.17.91-.25,1.83-.44,2.74-.78,3.65-1.53,7.31-2.3,10.97-.18.87-.3,1.74-.34,2.64-.14,3.11.81,5.88,2.75,8.26,2.14,2.63,5.01,4.21,8.24,5.09,1.75.48,3.53.83,5.37.94,3.84.23,7.32-.6,10.34-3.07,2.19-1.79,3.57-4.11,4.23-6.81,1.07-4.42,1.74-8.93,2.92-13.33.28-1.05.52-1.45,1.54-1.51.77-.04,1.54-.27,2.12-.86.21-.21.35-.12.43.14.31.93,1.04,1.47,1.84,1.93.23.13.33.24.32.5-.02.59-.04,1.18-.16,1.76-1.13,5.42-2.26,10.84-3.4,16.26-.11.52-.28,1.03-.45,1.54-.12.37-.32.6-.8.59-.47,0-.94.19-1.39.39-1.9.85-2.29,3.54-.64,4.84.93.73,1.98,1.16,3.1,1.44,2.66.65,5.38,1.01,8,1.79,1.84.55,3.72.92,5.6,1.27.83.16,1.69.24,2.54.25,2.24.03,4.44-.26,6.57-.99,1.27-.43,2.5-.97,3.61-1.71,1.21-.81,2.36-1.72,3.35-2.82,1.36-1.5,2.36-3.23,3.18-5.06.65-1.45.88-3.02,1.19-4.56ZM978.09,68.32c-1.27,1.24-2.77,1.81-4.56,1.46-.38-.07-.77-.15-1.15-.24-.91-.22-1.16-.61-.97-1.51.41-2,.83-4,1.25-6l.63-3c.62-2.98,1.24-5.96,1.87-8.95.21-.99.28-1.03,1.28-1,2.52.09,4.4,1.79,5.1,4.01.53,1.7.64,3.43.49,5.2-.07.83-.17,1.67-.35,2.46-.62,2.77-1.46,5.48-3.59,7.55Z"/>
      <path class="cls-13" d="M1250.8,101.83c-.25-1.2-1.15-1.87-2.14-2.43-1.37-.78-2.9-1.09-4.4-1.49-1-.27-2.05-.32-3.08-.43-1.22-.12-2.41-.06-3.55.4-1.66.67-2.36,2.4-1.58,3.97.43.86,1.18,1.43,2.02,1.85.61.3.78.77.78,1.4,0,.82-.18,1.62-.31,2.41-.29,1.8-.72,3.57-1.09,5.35-.03.13,0,.33-.18.37-.1.02-.14-.09-.18-.18-.81-1.52-1.63-3.03-2.44-4.55-.91-1.71-1.82-3.43-2.73-5.14-.7-1.3-1.39-2.61-2.11-3.9-.63-1.13-1.31-2.23-2.15-3.24-1.3-1.55-3.06-2.23-4.93-2.7-1.33-.33-2.68-.57-4.06-.65-1.67-.09-3.27-.05-4.55,1.31-.41-1.3-1.4-1.96-2.49-2.54-1.37-.73-2.88-1.07-4.36-1.46-1.09-.29-2.22-.46-3.34-.61-1.46-.2-2.91-.32-4.36-.06-2.1.37-3.22,2.25-2.41,4.06.3.68.87,1.14,1.5,1.52.3.18.52.41.44.76-.12.56-.1,1.14-.22,1.71-1.16,5.49-2.3,10.98-3.45,16.47-.03.16-.07.33-.11.49-.21.98-.62,1.69-1.8,1.78-.76.06-1.43.54-1.8,1.27-.71,1.4-.38,2.76.83,3.78,1.37,1.15,3.04,1.61,4.71,2.02,2.01.5,4.05.96,6.14,1.09,1.24.07,2.44-.02,3.61-.47.57-.22.85-.74,1.33-1.14.16,1.07.74,1.83,1.57,2.38,1.28.85,2.71,1.35,4.2,1.69,1.16.26,2.32.54,3.51.62,1.41.09,2.81.13,4.15-.46,1.48-.64,2.2-2.75,1.29-4.02-.54-.75-1.18-1.33-1.98-1.75-.48-.26-.72-.63-.72-1.16,0-.39-.02-.77.06-1.16.62-2.96,1.24-5.93,1.86-8.89.03-.13-.02-.3.2-.39.37.62.76,1.22,1.11,1.85,1.1,1.99,2.19,3.99,3.28,5.98.98,1.78,1.97,3.56,2.93,5.35,1.13,2.1,2.16,4.27,3.54,6.22,1.05,1.48,2.31,2.65,4.28,2.71,1.42.04,2.6-.42,3.38-1.62.76-1.17.99-2.51,1.2-3.88.35-2.29.9-4.55,1.31-6.83.56-3.16,1.3-6.29,1.94-9.44.21-1.06.58-2.07.79-3.12.15-.78.53-1.41,1.52-1.35.42.02.84-.16,1.24-.3,1.54-.51,2.08-2.04,1.8-3.46ZM1212.72,118.74c-.17.35-.36.61-.8.65-1.29.12-2.5.45-3.25,1.69-.28-1.06-.9-1.8-1.78-2.3-.47-.27-.52-.61-.47-1.06.02-.13.05-.26.08-.38,1.28-6.13,2.56-12.26,3.83-18.38.23-1.09.23-1.08,1.32-1.27.77-.14,1.43-.48,1.99-1.12.36,1.23,1.26,1.96,2.27,2.53.69.39.78.94.68,1.6-.84,5.3-2.11,10.52-3.2,15.77-.16.76-.31,1.56-.67,2.28Z"/>
      <path class="cls-13" d="M1168.17,85.93c.34-1.5,1.4-2.13,2.74-2.37,1.47-.25,2.94-.15,4.42.07,1.18.17,2.36.33,3.5.65,1.74.48,3.55.82,5.09,1.84.92.6,1.69,1.32,1.82,2.51.15,1.44-.89,2.82-2.32,3.06-.09.02-.18.02-.28.04-1.26.24-1.27.25-1.54,1.51-.84,4.02-1.68,8.04-2.52,12.06-.34,1.62-.68,3.24-1.01,4.86-.09.45-.1.92-.16,1.37-.07.64.38.84.85.95,1.45.34,2.9.58,4.4.59.71,0,1.16-.32,1.56-.88.94-1.31,1.62-2.79,2.65-4.04.87-1.05,1.95-1.68,3.35-1.46.97.16,1.73.74,2.2,1.64.59,1.11.69,2.33.52,3.52-.38,2.74-1.36,5.26-3.15,7.42-.81.98-1.72,1.83-2.97,2.27-1.52.52-3.15.12-4.1-1.13-.17-.23-.36-.34-.63-.4-3.63-.75-7.25-1.56-10.89-2.24-1.24-.23-2.5-.4-3.72-.71-1.41-.36-2.83-.71-4.1-1.5-2.03-1.26-1.78-3.78-.27-4.93.6-.46,1.33-.56,2.05-.61.38-.03.54-.15.68-.5.21-.54.32-1.1.44-1.66,1.15-5.53,2.3-11.06,3.47-16.58.09-.44.13-.88.15-1.32.01-.36-.1-.62-.46-.8-.69-.34-1.18-.91-1.66-1.56-.04,1.37-.06,2.69-.39,3.96-.31,1.2-.78,2.33-1.69,3.25-1.65,1.66-4.25.79-5.06-1.02-.55-1.24-.64-2.58-.9-3.89-.09-.45-.14-.91-.31-1.35-.35-.89-1.33-1.55-2.28-1.51-.32.01-.4.28-.44.49-.14.73-.44,1.41-.58,2.14-1.08,5.26-2.18,10.51-3.28,15.77-.03.15-.08.29-.09.44-.02.94-.26,1.3.85,1.85.94.47,1.72,1.17,1.9,2.27.22,1.34-.55,2.75-2.08,3.19-1.13.33-2.26.34-3.42.26-2.31-.15-4.56-.68-6.79-1.22-1.74-.42-3.47-.91-4.96-2.01-1.01-.75-1.58-1.69-1.4-2.94.15-1.05.82-1.77,1.82-2.12.5-.17,1.06-.33,1.58-.29.69.04.86-.33,1.02-.84.77-2.6,1.18-5.29,1.76-7.93.57-2.61,1.12-5.23,1.63-7.86.21-1.1.4-2.22.49-3.34.02-.26-.04-.37-.3-.42-.46-.09-.9-.19-1.38-.17-.48.02-.84.22-1.15.58-.77.91-1.36,1.94-2.02,2.93-.56.83-1.19,1.58-2.11,2.01-1.53.72-3.38.19-4.14-1.54-.41-.94-.42-1.92-.33-2.94.2-2.23,1.03-4.23,2.21-6.08.86-1.35,1.9-2.58,3.45-3.21,1.56-.63,3.1-.18,4.08,1.18.14.2.3.3.54.35,5.56,1.16,11.12,2.31,16.68,3.49.36.08.63-.08.89-.22,1.51-.85,3.6-.23,4.59,1.3.69,1.07,1.06,2.24,1.31,3.46.02.11,0,.22.14.33Z"/>
      <path class="cls-13" d="M1081.76,84.88c-.74,1.12-1.45,2.22-2.18,3.32-1.34,2-2.66,4.02-4.11,5.94-.65.85-1.35,1.66-2.25,2.29-2.04,1.41-5.38.35-6.4-1.99-.85-1.94-1.22-4.01-1.63-6.06-.7-3.58-1.35-7.17-1.99-10.76-.51-2.86-.95-5.74-1.44-8.6-.08-.46-.2-.91-.33-1.35-.13-.46-.41-.78-.85-1.04-1.75-1.03-2.12-3.22-.78-4.66.75-.8,1.77-1.06,2.83-1.15,1.73-.15,3.42.12,5.14.34,1.37.18,2.69.55,4.01.9,1.73.46,3.48.98,4.77,2.35,1.3,1.38.87,3.83-1,4.65-.05.02-.1.05-.15.07-1.23.49-1.21.49-1.21,1.78-.01,3.85.66,7.63,1.17,11.42.02.12.02.27.2.35.33-.53.68-1.05.99-1.59,1.16-2,2.31-4.01,3.48-6.02.14-.24.2-.46.16-.73-.14-1.05-.32-2.09-.56-3.12-.09-.38-.3-.7-.62-.96-1.87-1.52-1.31-4.12.48-5,1.01-.5,2.13-.63,3.25-.6,1.24.03,2.46.25,3.69.39,1.33.15,2.58.54,3.84.87,1.63.41,3.24.93,4.57,2.05.94.79,1.35,1.73,1.12,2.94-.24,1.24-1.11,1.82-2.21,2.16-.37.11-.92-.01-1.09.29-.27.46-.32,1.05-.34,1.61-.12,3.29.43,6.53.83,9.78.05.43.13.86.31,1.32.52-.93,1.05-1.85,1.57-2.78,1.46-2.6,2.92-5.19,4.16-7.9.31-.67.29-.75-.37-1.13-.87-.5-1.56-1.16-1.74-2.19-.27-1.59.61-2.9,2.22-3.35,1.29-.37,2.61-.29,3.91-.13,1.23.15,2.44.43,3.64.76,1.44.39,2.82.93,3.9,2.02,1.6,1.62.89,4.29-1.3,4.94-.14.04-.29.1-.43.11-1.7.09-2.6,1.28-3.44,2.53-3.59,5.33-6.88,10.85-10.39,16.24-1,1.53-1.94,3.11-3.27,4.41-2.19,2.15-6.07,1.22-7.24-1.55-.87-2.06-1.2-4.24-1.61-6.4-.42-2.22-.8-4.44-1.2-6.67,0-.01-.03-.02-.12-.11Z"/>
      <path class="cls-13" d="M1373.81,141.7c.48-2.28.95-4.52,1.4-6.76.08-.41.12-.84.13-1.26.01-.68-.16-1.22-.88-1.55-.95-.44-1.7-1.16-2.08-2.15-.59-1.54.36-3.21,2.01-3.73,1.37-.43,2.75-.37,4.13-.19.77.1,1.56.13,2.31.35,1.63.47,3.31.82,4.76,1.78,1.14.76,1.93,1.74,1.77,3.17-.17,1.56-1.17,2.27-2.68,2.65-.23.06-.48.13-.71.1-.59-.06-.9.25-1.05.76-.13.46-.35.89-.45,1.37-.81,3.95-1.61,7.9-2.47,11.84-.65,2.96-1.02,5.96-1.74,8.9-.45,1.83-1.56,3.06-3.33,3.31-1.67.24-3.1-.38-4.24-1.6-1.26-1.34-2.08-2.96-2.94-4.56-.76-1.42-1.53-2.83-2.29-4.25-.86-1.59-1.71-3.19-2.59-4.78-.76-1.38-1.54-2.74-2.31-4.12-.48-.86-.95-1.72-1.42-2.57-.07-.12-.11-.28-.33-.33l-.11.53c-.58,2.76-1.15,5.53-1.73,8.29-.13.62-.13,1.25-.13,1.87,0,.42.18.73.57.94.55.3,1.07.65,1.55,1.08,1.72,1.52,1.01,4.3-1.19,4.96-1.16.35-2.33.38-3.52.29-1.3-.09-2.57-.42-3.84-.69-1.31-.28-2.57-.73-3.7-1.45-1.25-.79-2.11-1.88-1.84-3.45.18-1.07.84-1.87,1.93-2.24.48-.16.96-.33,1.46-.32.57,0,.85-.34,1.02-.79.18-.48.33-.98.44-1.49,1.1-5.25,2.19-10.51,3.3-15.76.08-.39.1-.78.09-1.16-.02-.47-.21-.87-.68-1.13-.87-.5-1.65-1.12-2.1-2.06-.61-1.26.08-3.12,1.37-3.69,1.08-.48,2.21-.53,3.37-.46,1.38.08,2.72.35,4.06.64,2.59.55,4.65,1.82,6.06,4.12,1.01,1.64,1.92,3.34,2.83,5.03,1.06,1.97,2.14,3.93,3.2,5.9.75,1.4,1.48,2.82,2.22,4.22.08.16.15.34.39.45Z"/>
      <path class="cls-13" d="M1274.68,121.11c1.93.35,3.77.86,5.52,1.63.98.43,1.89.99,2.48,1.98.73,1.23.24,3.03-1.03,3.69-.56.29-1.12.49-1.74.54-.62.05-.99.38-1.3.9-.71,1.19-1.46,2.35-2.44,3.37-1.56,1.63-3.41,2.77-5.54,3.49-2.45.83-4.95.96-7.51.69-1.27-.13-2.52-.36-3.72-.71-2.13-.63-4.18-1.49-6.01-2.8-1.12-.81-2.16-1.68-3.1-2.7-1.63-1.79-2.76-3.84-3.48-6.13-.7-2.22-.86-4.51-.65-6.81.17-1.81.62-3.55,1.28-5.25.99-2.55,2.49-4.74,4.51-6.57,1.89-1.71,4.09-2.91,6.56-3.62,2.72-.78,5.45-.86,8.25-.45,2.58.37,4.95,1.24,7.11,2.65.78.51,1.37.73,2.31.32,1.26-.54,2.72.09,3.59,1.21,1.12,1.44,1.42,3.14,1.57,4.89.13,1.55-.07,3.08-.51,4.55-.36,1.21-.95,2.3-2.06,3.07-1.3.91-3.25.58-4.3-.45-1.02-1-1.63-2.24-2.14-3.54-.55-1.4-1.28-2.69-2.42-3.69-1.93-1.69-4.16-2.42-6.7-1.69-1.32.38-2.27,1.31-3.01,2.44-.65,1-1.07,2.09-1.39,3.25-.7,2.61-.76,5.22-.11,7.83.62,2.51,1.77,4.73,4.08,6.13,1.44.88,2.98,1.22,4.61.49.84-.38,1.21-1.14,1.38-1.97.1-.5-.22-.87-.71-1.06-.64-.25-1.26-.53-1.83-.93-.94-.66-1.48-1.53-1.36-2.68.14-1.26.84-2.11,2.08-2.47,1.12-.33,2.27-.37,3.41-.26,1.46.14,2.91.32,4.29.66Z"/>
      <path class="cls-13" d="M874.1,56.33c-2.47-.46-4.65-1.44-6.68-2.78-.18-.12-.32-.22-.54-.06-1.58,1.11-3.36.67-4.64-.59-1.65-1.61-2.2-3.69-2.43-5.89-.15-1.44.03-2.86.43-4.23.45-1.53,1.33-2.77,2.99-3.15,1.12-.26,2.09.15,2.88,1.01.96,1.05,1.23,2.43,1.87,3.64,1.3,2.45,3.15,4.22,5.86,5.04,1.15.35,2.26.41,3.42.07,1.23-.36,1.93-2.25.82-3.23-1.01-.89-2.19-1.46-3.38-2.01-2.12-.98-4.22-2-6.13-3.35-2.31-1.63-4.22-3.58-4.9-6.44-.29-1.21-.31-2.43-.14-3.68.28-2.13,1.07-3.99,2.44-5.6,1.94-2.29,4.49-3.52,7.43-3.98,2.28-.36,4.52-.08,6.72.51,1.56.41,3.03,1.1,4.37,2.01.18.12.32.22.54.06,1.58-1.15,3.88-.33,4.91,1.21,1.86,2.78,2.3,5.8,1.35,8.97-.41,1.38-1.4,2.47-2.95,2.63-1.61.17-2.7-.5-3.58-2.13-.51-.96-.85-2.01-1.43-2.94-.89-1.42-2.1-2.48-3.74-2.99-1.17-.36-2.34-.49-3.53-.07-1.34.47-1.71,1.98-.71,2.98.95.95,2.17,1.48,3.36,2.03,2.49,1.16,4.96,2.35,7.12,4.08,1.78,1.43,3.13,3.15,3.79,5.36.39,1.3.43,2.61.26,3.95-.28,2.2-1.11,4.15-2.54,5.85-1.24,1.47-2.81,2.44-4.55,3.17-1.46.61-2.99.89-4.55.95-1.41.05-2.81-.08-4.13-.41Z"/>
      <path class="cls-13" d="M998.14,81.86c-1.6-.25-3.23-.7-4.79-1.35-1.1-.46-2.17-1.07-2.7-2.21-.86-1.82.12-3.66,2.22-4,.99-.16,1.23-.71,1.39-1.48.93-4.47,1.87-8.95,2.8-13.42.31-1.47.6-2.95.93-4.42.09-.4.04-.81.11-1.21.05-.29-.18-.42-.39-.54-.53-.32-1-.68-1.35-1.22-1-1.56-.3-3.57,1.46-4.17,1.24-.42,2.51-.43,3.79-.32,1.57.14,3.14.36,4.66.76,1.83.47,3.67.92,5.27,2,.74.5,1.32,1.13,1.54,2.03.38,1.5-.41,2.79-1.89,3.31-.19.07-.4.16-.59.15-.99-.07-1.17.65-1.31,1.35-1.28,6.09-2.55,12.18-3.82,18.28-.2.95-.13,1.05.65,1.59.98.68,1.68,1.56,1.5,2.83-.19,1.39-1.06,2.18-2.39,2.54-1.17.32-2.35.23-3.53.14-1.19-.08-2.35-.34-3.58-.63Z"/>
      <path class="cls-9" d="M991.25,57.3c.09-1.12.16-2.26-.28-3.35-.3-1.14-.96-2.07-1.67-2.98-2.4-3.08-5.65-4.8-9.34-5.78-2.14-.57-4.35-.79-6.52-1.18-2.29-.4-4.56-.93-6.84-1.41-.53-.11-1.07-.12-1.61-.06-.49.05-1.04.11-1.17.67-.13.59.38.88.83,1.11.39.2.72.44.97.8.55.77.61,1.65.43,2.51-1.3,6.33-2.61,12.66-3.96,18.99-.28,1.32-1.04,2.48-2.74,2.54-.44.02-.88.16-1.09.64.13.18.33.23.54.27,3.89.7,7.69,1.77,11.54,2.64,2.68.6,5.36.61,8.03.04,3.52-.75,6.48-2.46,8.83-5.2,2.52-2.95,3.73-6.43,4.05-10.24ZM977.99,69.78c-1.72.94-5.02,1.93-6.77.43-1.4-1.21-.71-3.09.81-12.74,1.07-6.76,1.29-9.36,3.11-10.04,1.51-.56,3.19.54,3.89,1,4.47,2.94,4.21,9.8,4.14,10.94-.09,1.56-.45,7.82-5.19,10.4Z"/>
      <path class="cls-9" d="M930.29,64.18c-2.85-2.01-4.23-4.79-4.3-8.24-.01-.66.04-1.33.17-1.98.86-4.14,1.75-8.28,2.57-12.43.17-.84.35-1.7.35-2.58,0-1.11-.38-1.97-1.46-2.47-.35-.17-.86-.39-.76-.92.1-.55.62-.61,1.09-.69.95-.16,1.89-.05,2.82.05.83.09,1.65.24,2.47.39,1.66.31,3.28.79,4.87,1.36-.05.3-.3.36-.52.43-.39.13-.8.18-1.21.22-.45.05-.76.27-.96.67-.17.33-.31.67-.38,1.04-.92,4.42-1.86,8.83-2.75,13.26-.27,1.34-.15,2.67.5,3.91.12.22.14.46.19.69.17,1.18.4,2.32,1.02,3.38.76,1.33,1.85,2.28,3.2,2.9,1.92.89,3.96,1.33,6.07,1.05,3.03-.4,5.15-2.04,6.24-4.93.15-.4.27-.81.35-1.22.83-3.96,1.65-7.93,2.48-11.89.13-.62.18-1.25.15-1.88-.06-1.46-.8-2.46-2.14-3.04-.3-.13-.61-.29-.88-.48-.52-.36-.47-.84.12-1.1.68-.3,1.41-.31,2.13-.28,2.12.11,4.19.53,6.18,1.29.05.02.08.07.12.11-.03.26-.26.3-.44.37-.37.14-.75.23-1.14.23-.76.02-1.25.41-1.54,1.09-.35.8-.6,1.64-.78,2.49-.8,3.78-1.5,7.58-2.39,11.34-1.1,4.61-3.86,7.78-8.51,9.17-2.54.76-5.1.75-7.68.27-1.21-.23-2.42-.43-3.59-.84-.58-.2-1.14-.44-1.67-.76Z"/>
      <path class="cls-9" d="M896.76,57.09c0-.33.16-.52.49-.56.33-.05.66-.14.99-.14,1.53,0,2.24-.85,2.76-2.16.3-.75.43-1.53.59-2.31,1-4.78,1.99-9.56,2.99-14.33.24-1.12.4-2.26.48-3.4.09-1.38-.56-2.27-1.91-2.55-.58-.12-1.15-.29-1.76-.26-.16-.13-.17-.32-.18-.51-.04-.48-.31-.73-.78-.79-.18-.02-.37-.07-.55-.11-1.4-.34-2.47.12-3.27,1.29-.55.8-1.04,1.62-1.58,2.42-.29.43-.61.84-.99,1.2-.13.12-.24.31-.47.22.33-2.38,1.16-4.55,2.72-6.4.42-.5.89-.94,1.5-1.21.76-.34,1.43-.08,1.67.71.1.33.27.47.6.54,6.36,1.32,12.72,2.64,19.07,3.97.27.06.51.1.69-.17.59-.89,1.9-.56,2.26.43.19.47.24.97.23,1.47-.04,1.54-.18,3.07-.75,4.52-.22.56-.55,1.05-.96,1.49-.16.17-.31.38-.6.31-.33-.79-.3-1.66-.51-2.48-.3-1.2-.54-2.42-1.7-3.17-.73-.47-1.51-.76-2.36-.92-.7-.94-1.68-1.37-2.81-1.54-.57-.08-.82.03-1.09.54-.14.26-.27.54-.32.83-.19,1.01-.55,1.96-.76,2.97-.89,4.33-1.8,8.66-2.71,12.98-.17.82-.29,1.64-.38,2.48-.08.77,0,1.49.72,1.98.09.06.14.17.2.27-.15.67-.18,1.35-.07,2.02.11.65.4,1.22.9,1.66-.22.38-.61.45-.99.54-1.23.3-2.47.18-3.71.04-1.66-.19-3.29-.58-4.93-.9-.75-.15-1.45-.46-2.2-.59-.24-.04-.38-.22-.54-.37Z"/>
      <path class="cls-10" d="M930.29,64.18c1.87.74,3.81,1.26,5.8,1.55,3.8.56,7.45.16,10.71-2.08,1.95-1.34,3.29-3.17,4.17-5.36.45-1.12.71-2.3.95-3.48.71-3.43,1.42-6.87,2.17-10.3.17-.79.37-1.58.78-2.3.34-.6.81-.93,1.52-.95.58-.02,1.15-.12,1.65-.44.63.15,1.17.48,1.63.92.44.42.36.78-.21,1.01-.15.06-.32.1-.49.11-2.21.13-3.03,1.42-3.52,3.27-1.15,4.31-1.82,8.73-2.86,13.06-1.16,4.86-4.89,7.93-9.9,8.39-1.78.16-3.53,0-5.25-.36-2.5-.53-4.92-1.29-7-2.86-.06-.04-.1-.11-.14-.17Z"/>
      <path class="cls-10" d="M958.27,69.79c2.24.47,4.49.88,6.71,1.42,2,.49,3.98,1.09,6.01,1.45,3.79.69,7.49.35,10.98-1.31,3.69-1.75,6.3-4.61,7.82-8.38,1.17-2.89,1.64-5.91,1.18-9.03.34.34.44.8.57,1.24.63,2.13.74,4.28.4,6.48-.43,2.79-1.47,5.3-3.2,7.52-1.79,2.28-4.12,3.83-6.88,4.71-2.95.95-5.93.98-8.96.33-3.38-.72-6.68-1.78-10.1-2.34-1.12-.18-2.22-.41-3.27-.83-.57-.23-1.29-.41-1.27-1.27Z"/>
      <path class="cls-10" d="M908.3,54.69c-1-.49-1.26-1.13-1.09-2.4.3-2.27.87-4.48,1.32-6.72.62-3.09,1.26-6.19,1.94-9.27.22-.99.44-1.99.81-2.94.33-.89.61-1.05,1.55-.85.61.12,1.19.3,1.73.61.43.25.79.55.89,1.08-.31-.06-.62-.16-.93-.16-.84-.02-1.38.46-1.78,1.14-.36.63-.61,1.31-.76,2.02-1.23,5.83-2.45,11.67-3.67,17.5Z"/>
      <path class="cls-10" d="M932.98,56.89c-1.01-1.54-1.16-3.21-.8-4.96.9-4.36,1.82-8.72,2.73-13.07.08-.39.25-.73.44-1.07.21-.39.52-.58.98-.62.62-.05,1.27-.05,1.79-.49.52.24,1.02.53,1.47.89.24.19.39.41.34.71-.05.32-.33.37-.58.45-.19.06-.4.11-.6.11-1.22-.01-1.97.65-2.44,1.69-.18.4-.33.82-.42,1.26-.91,4.42-1.84,8.83-2.75,13.24-.12.61-.12,1.25-.17,1.87Z"/>
      <path class="cls-10" d="M893.58,35.09c.72-.55,1.21-1.29,1.69-2.04.53-.83,1.05-1.65,1.68-2.42.71-.86,1.61-.97,2.61-.87.17.02.33.06.49.1q1.26.24,1.34,1.53c-2.12-.09-3.21,1.34-4.22,2.88-.48.73-.9,1.49-1.47,2.16-.16.18-.31.37-.49.53-.56.48-1.21.31-1.47-.38-.18-.48-.19-.98-.17-1.48Z"/>
      <path class="cls-10" d="M896.76,57.09c.76.23,1.52.49,2.29.67,2.13.5,4.27.96,6.46,1.13,1.25.1,2.48.07,3.63-.52.48.32,1.04.5,1.48.88.2.17.43.35.35.64-.07.26-.3.41-.56.5-.74.24-1.5.24-2.26.19-2.33-.16-4.6-.67-6.85-1.22-1.31-.32-2.62-.69-3.79-1.42-.35-.22-.62-.47-.75-.86Z"/>
      <path class="cls-10" d="M920.01,40.76c.96-.65,1.42-1.63,1.7-2.7.41-1.58.57-3.19.37-4.82-.01-.09.01-.18.02-.27.53.66.69,1.46.85,2.26.42,2.15.31,4.27-.47,6.33-.1.25-.25.5-.42.71-.61.78-1.38.69-1.76-.22-.17-.4-.34-.82-.28-1.29Z"/>
      <path class="cls-9" d="M1218.14,118.99c0,.76-.09,1.51.12,2.26.21.73.63,1.29,1.21,1.75-.15.38-.51.47-.84.58-1.08.36-2.2.3-3.32.21-1.23-.1-2.42-.39-3.62-.63-.39-.08-.75-.21-1.05-.49-.14-.42.04-.69.43-.82.3-.1.61-.25.91-.24,1.54.04,2.32-.89,2.85-2.15.38-.91.6-1.87.8-2.83,1.01-4.66,1.99-9.34,2.92-14.02.24-1.2.5-2.44.07-3.67-.24-.67-.62-1.21-1.26-1.56-.44-.24-.84-.55-1.21-.89-.44-.39-.39-.81.11-1.13.27-.18.58-.27.9-.27,2.63-.04,5.17.37,7.55,1.56,1.16.58,1.85,1.66,2.47,2.72.96,1.65,1.85,3.34,2.76,5.02,1.18,2.19,2.33,4.39,3.5,6.57.96,1.8,1.95,3.58,2.93,5.37.52.96,1.06,1.9,1.62,2.9.49-.79.56-1.65.79-2.45.8-2.84,1.39-5.74,1.91-8.64.24-1.31.57-2.64.32-4.01-.19-1.06-.72-1.8-1.68-2.26-.37-.18-.69-.43-1.01-.69-.54-.45-.44-1.02.23-1.27.69-.27,1.43-.26,2.15-.22,2.05.1,4.04.51,5.97,1.24.09.03.16.1.24.15-.07.35-.36.46-.63.56-.47.18-.96.28-1.47.31-.58.03-.96.33-1.21.84-.45.93-.69,1.93-.91,2.92-.84,3.87-1.7,7.73-2.41,11.62-.39,2.1-.85,4.18-1.21,6.29-.13.75-.24,1.5-.5,2.22-.42,1.17-1.18,1.96-2.42,2.24-.27.06-.56.1-.79-.12-.4-.25-.58-.68-.8-1.05-1.88-3.26-3.58-6.61-5.4-9.9-1.68-3.05-3.33-6.12-5.11-9.11-.8-1.35-1.6-2.7-2.42-4.08-.52.69-.35,1.55-.77,2.21-.24-.02-.36-.19-.45-.38-.21-.41-.49-.79-.67-1.23-.1.97-.46,1.86-.66,2.8-.49,2.25-.95,4.51-1.41,6.76-.16.76-.22,1.54-.34,2.31-.15,1.02.03,1.96.83,2.7Z"/>
      <path class="cls-9" d="M1204.35,116.68c-.15.72-.22,1.45-.11,2.19.06.39.29.71.45,1.06-.21.45-.64.53-1.05.64-1.12.28-2.25.22-3.38.1-1.71-.18-3.37-.59-5.04-.94-.54-.11-1.09-.25-1.54-.6-.15-.39.04-.6.39-.71.18-.06.36-.11.54-.11,1.42-.04,2.14-.94,2.53-2.14.25-.75.46-1.52.62-2.31,1.08-5.26,2.18-10.51,3.28-15.77.16-.76.24-1.53.27-2.31.04-1.09-.34-1.95-1.36-2.48-.38-.2-.88-.41-.77-.96.11-.55.65-.59,1.1-.67.93-.17,1.85-.05,2.77.06,1.18.14,2.36.31,3.51.61,1.2.31,2.4.62,3.56,1.09-.05.33-.32.38-.56.46-.25.09-.51.15-.76.15-.73.01-1.11.44-1.33,1.07-.09.26-.15.54-.2.81-1.26,6.02-2.51,12.04-3.77,18.06-.05.25-.11.51-.13.77-.07.66-.01,1.27.69,1.61.14.07.22.2.29.33Z"/>
      <path class="cls-10" d="M1235.35,127.96c1.43.07,2.73-.8,3.07-2.22.63-2.59,1.14-5.2,1.55-7.84.02-.15.05-.29.08-.44.83-4,1.65-8,2.51-11.98.21-.95.43-1.91.88-2.8.3-.59.71-.89,1.39-.92.74-.03,1.48-.16,2.07-.69.59.23,1.18.48,1.56,1.02.35.51.23.91-.34,1.14-.26.11-.53.19-.81.19-1.56.03-2.21.4-3,2.31-.27.66-.4,1.35-.55,2.04-1.22,5.85-2.44,11.71-3.64,17.57-.21,1.01-.25,2.06-.65,3.03-.5,1.23-1.68,1.65-2.81.95-.55-.34-1.08-.72-1.32-1.37Z"/>
      <path class="cls-10" d="M1204.35,116.68c-1.2-.64-1.38-.97-1.1-2.3,1.31-6.31,2.63-12.62,3.95-18.92.06-.29.17-.57.29-.84.2-.46.53-.72,1.07-.75.55-.03,1.12-.08,1.57-.46.53.23,1.04.48,1.49.85.25.2.34.45.3.74-.04.3-.29.4-.56.46-.11.02-.22.07-.33.07-1.88,0-2.49,1.3-2.83,2.8-.55,2.42-1.03,4.86-1.54,7.29-.77,3.68-1.54,7.37-2.31,11.05Z"/>
      <path class="cls-10" d="M1218.14,118.99c-.72-.32-.97-.92-1.02-1.65-.08-1.05.14-2.07.33-3.08.46-2.48.99-4.94,1.54-7.4.2-.88.43-1.75.65-2.68.57.56.75,1.29,1.21,1.83-.9,4.32-1.8,8.65-2.71,12.97Z"/>
      <path class="cls-10" d="M1193.68,119.12c1.64.5,3.31.85,4.99,1.14,1.38.24,2.78.46,4.2.28.65-.08,1.27-.24,1.82-.62.34.35.78.57,1.19.81.29.17.55.4.51.73-.04.36-.37.54-.7.63-.85.24-1.73.2-2.59.11-1.81-.18-3.6-.56-5.36-1.01-1.26-.33-2.56-.63-3.63-1.47-.21-.16-.41-.32-.44-.61Z"/>
      <path class="cls-10" d="M1210.65,122.68c1.98.61,3.99,1,6.06,1.02.98,0,1.93-.12,2.76-.69.47.14.88.39,1.26.7.27.22.56.47.47.88-.09.4-.45.52-.79.61-.47.13-.94.2-1.43.17-2.54-.13-5.02-.53-7.31-1.7-.43-.22-.83-.5-1.01-.99Z"/>
      <path class="cls-9" d="M1136.5,85.69c-.11-.87.27-1.64.52-2.42.56-1.72,1.41-3.3,2.77-4.55.46-.42.96-.83,1.68-.69.47.09.79.33.87.81.06.35.24.48.58.55,6.38,1.32,12.75,2.65,19.12,3.98.24.05.44.1.66-.12.87-.87,1.57-.78,2.22.28.06.16.13.31.15.47.2,2.45.12,4.84-1.45,6.92-.2.26-.4.55-.81.49-.28-1.28-.41-2.59-.83-3.85-.48-1.46-1.59-2.11-2.93-2.54-.26-.08-.56-.06-.77-.28-.19-.06-.3-.21-.42-.35-.73-.81-1.71-1.01-2.72-1.12-.4-.04-.59.28-.74.59-.29.62-.5,1.28-.64,1.95-1.16,5.51-2.31,11.02-3.46,16.53-.1.46-.08.92-.1,1.39-.02.72.48,1.13.89,1.6-.01.75-.18,1.5.03,2.26.15.55.46,1,.81,1.43-.13.32-.43.39-.71.47-1.28.38-2.57.27-3.86.12-1.59-.18-3.14-.54-4.7-.85-.84-.17-1.63-.49-2.47-.65-.23-.04-.41-.17-.54-.37-.07-.3.09-.46.36-.52.33-.07.66-.15.99-.16,1.81-.03,2.61-1.15,2.95-2.47,1.4-5.45,2.39-10.99,3.53-16.5.21-1,.45-2.03.45-3.07,0-.56-.03-1.11-.26-1.63-.23-.52-.62-.88-1.19-1-.74-.16-1.48-.37-2.25-.36-.02-.03-.06-.06-.06-.09,0-.97-.63-1.2-1.44-1.33-1.25-.19-2.29-.01-3.08,1.12-.57.8-1.1,1.62-1.64,2.45-.27.42-.58.82-.92,1.18-.16.17-.3.4-.59.33Z"/>
      <path class="cls-9" d="M1175.8,110.17c.08.59-.1,1.17-.06,1.76.09,1.41.75,2.25,2.13,2.53,1.62.33,3.21.73,4.88.81,1.82.08,3.15-.62,4.08-2.16.67-1.11,1.36-2.21,2.08-3.28.3-.44.63-.94,1.3-.89.18.67-.09,1.28-.27,1.89-.48,1.63-1.2,3.14-2.2,4.52-.54.74-1.16,1.39-1.89,1.95-.67.51-1.43.76-2.29.62-.22-.05-.45-.09-.67-.14-.66-.19-1.24-.47-1.6-1.09-.13-.23-.39-.27-.63-.32-3.95-.83-7.89-1.69-11.86-2.45-1.18-.23-2.39-.35-3.53-.76-.19-.07-.4-.11-.53-.29.12-.44.49-.52.86-.59,2.1-.36,2.73-.9,3.18-3,1.27-5.98,2.52-11.96,3.74-17.94.2-1.01.28-2.07-.25-3.04-.29-.53-.79-.83-1.29-1.12-.31-.18-.64-.39-.58-.8.06-.42.43-.5.79-.59,1.1-.27,2.21-.15,3.32-.03,1.37.15,2.73.39,4.05.74,1.05.28,2.12.52,3.12.98-.04.3-.3.36-.52.44-.33.12-.69.17-1.04.2-.64.04-1.02.38-1.23.96-.14.4-.28.8-.37,1.22-1.14,5.49-2.28,10.97-3.43,16.45-.11.55-.15,1.1-.19,1.66-.05.65.08,1.23.72,1.57.08.04.13.13.18.21Z"/>
      <path class="cls-10" d="M1175.8,110.17c-.9-.29-1.19-.82-1.09-1.9.08-.87.25-1.72.42-2.57,1.09-5.23,2.18-10.46,3.28-15.69.09-.41.23-.82.39-1.21.23-.57.66-.84,1.29-.87.55-.02,1.11-.08,1.57-.45.52.17.99.42,1.42.75.26.2.51.46.41.85-.09.39-.44.41-.74.48-.14.04-.29.05-.44.06-1.44.15-2.12.75-2.58,2.12-.25.74-.41,1.5-.57,2.26-1.03,4.9-2.05,9.81-3.07,14.71-.1.49-.2.97-.31,1.46Z"/>
      <path class="cls-10" d="M1151.12,105.35c-1.12-.43-1.13-1.3-1.04-2.59.01-.17.06-.33.09-.49,1.12-5.39,2.25-10.78,3.38-16.18.16-.78.38-1.55.7-2.27.33-.75.55-.84,1.35-.66.6.13,1.19.26,1.73.57.43.25.78.56.97,1.03-.14.1-.29.04-.43.02-1.09-.18-1.85.21-2.36,1.21-.46.9-.71,1.87-.92,2.84-1.18,5.5-2.32,11.01-3.47,16.52Z"/>
      <g>
        <path class="cls-13" d="M1120.49,79.95l-1.81-.19-8.41,12.27,13.23,2.73-3.02-14.81ZM1119.3,90.98c-1.22-.28-2.44-.52-3.66-.77-.28-.06-.35-.16-.19-.4.95-1.39,1.9-2.78,2.85-4.17.04-.05.1-.09.22-.2.27,1.16.52,2.26.76,3.35.13.6.25,1.19.38,1.79.07.3.06.49-.36.39Z"/>
        <path class="cls-13" d="M1136.14,105.16c-.33-.81-.89-1.41-1.67-1.79-.43-.21-.67-.54-.85-.97-.4-.97-.64-1.98-.86-2.99-.56-2.57-1.06-5.15-1.6-7.73-.49-2.34-.99-4.68-1.49-7.01-.52-2.45-.97-4.92-1.79-7.29-1.18-3.44-4.03-5.09-7.27-5.08-2.44,0-4.29,1.55-4.97,3.89-.49,1.68-1.24,3.23-2.23,4.68-1.86,2.75-3.72,5.49-5.65,8.18-1.38,1.93-2.75,3.87-4.23,5.72-.74.92-1.56,1.68-2.85,1.73-.41.01-.83.2-1.22.36-1.1.44-1.75,1.5-1.73,2.67.03,1.5.97,2.34,2.15,2.99,1.74.97,3.67,1.38,5.61,1.74,1.52.28,3.05.37,4.59.15,1.58-.22,2.7-1.18,2.95-2.54.23-1.24-.43-2.06-1.31-2.81-.39-.33-1.18-.38-1.15-.96.02-.5.46-.99.71-1.48.03-.07.08-.12.11-.19.08-.17.2-.21.4-.21,1.12.04,2.19.36,3.3.49,1.74.2,3.39.85,5.11,1.17.41.08.67.31.65.81-.02.54-.08,1.07-.14,1.6-.03.25-.15.24-.34.25-.54.04-1.07.14-1.58.32-1.58.56-2.2,2.07-1.67,3.52.41,1.15,1.41,1.74,2.44,2.23,1.97.94,4.08,1.45,6.3,1.89,1.66.39,3.44.66,5.24.75,1.22.06,2.41-.03,3.55-.5,1.31-.54,2.03-2.27,1.5-3.59ZM1122.04,93.83c-2.95-.63-5.9-1.24-8.85-1.86-.37-.08-.73-.11-1.1-.13-.37-.03-.56-.12-.27-.54.69-1.01,1.33-2.05,2-3.07,1.16-1.72,2.31-3.45,3.47-5.17.72-.83,1.28-1.76,1.93-2.64.05-.07.11-.14.26-.32.22.85.43,1.58.61,2.33.57,2.36,1.16,4.72,1.63,7.1.26,1.29.49,2.59.78,3.87.11.5-.03.51-.45.43Z"/>
      </g>
      <path class="cls-10" d="M1183.56,117.92c1.57-.02,2.65-.93,3.58-2.05,1.67-2.01,2.64-4.35,3.07-6.92.39-.15.54.16.69.39.42.64.47,1.38.37,2.09-.16,1.15-.36,2.3-.9,3.35-.15.27-.25.57-.39.84-.65,1.44-1.52,2.72-2.87,3.6-.56.37-1.2.53-1.82.07-.12-.09-.28-.19-.3-.31-.14-.81-.75-.97-1.42-1.05Z"/>
      <path class="cls-10" d="M1136.5,85.69c.75-.55,1.23-1.32,1.71-2.09.46-.74.97-1.44,1.48-2.15.7-.98,1.67-1.14,2.75-1.03.24.02.47.09.71.14.98.19,1.18.46,1.09,1.48-1.02.06-1.99.23-2.74,1.03-.66.71-1.23,1.49-1.74,2.31-.43.69-.85,1.4-1.41,1.99-.32.33-.67.62-1.17.48-.49-.14-.58-.59-.68-1.01-.09-.38-.12-.77,0-1.15Z"/>
      <g>
        <path class="cls-13" d="M1349.16,133.76c.07-3.02-.65-5.89-2.14-8.57-1.07-1.93-2.44-3.58-4.14-4.96-1.72-1.38-3.66-2.37-5.75-3.09-1.8-.62-3.65-.98-5.53-1.1-1.7-.11-3.4.01-5.09.34-3.42.66-6.36,2.21-8.87,4.58-.98.92-1.85,1.95-2.54,3.11.32-1.09.66-2.14.78-3.28.27-2.53.03-4.96-1.09-7.25-.94-1.93-3.02-2.91-5.02-1.87-.26.13-.5.26-.84.19-5.54-1.17-11.08-2.32-16.63-3.48-.23-.05-.41-.12-.55-.32-1.09-1.47-2.53-1.88-4.22-1.15-1.52.65-2.51,1.88-3.37,3.22-1.19,1.88-2.02,3.9-2.19,6.15-.07.96-.06,1.89.35,2.77.53,1.15,1.37,1.82,2.72,1.85,1.25.03,2.12-.58,2.87-1.44,1.01-1.14,1.64-2.56,2.63-3.72.35-.41.74-.64,1.29-.64.42,0,.81.08,1.21.15.29.05.37.2.37.51-.01,1.03-.26,2.02-.44,3.01-.54,3-1.2,5.97-1.84,8.95-.51,2.34-.88,4.71-1.56,7.01-.23.78-.29.84-1.11.93-.5.05-1,.13-1.47.29-.98.33-1.67,1.01-1.85,2.04-.23,1.27.35,2.24,1.36,3.01,1.47,1.12,3.22,1.6,4.95,2.02,2.25.55,4.52,1.08,6.85,1.23,1.15.07,2.29.07,3.41-.27,1.72-.53,2.6-2.35,1.84-3.88-.42-.84-1.15-1.35-1.97-1.75-.42-.2-.57-.5-.59-.92-.02-.31,0-.62.07-.94,1.13-5.38,2.26-10.76,3.36-16.15.14-.69.42-1.34.56-2.03.04-.21.12-.48.44-.48,1.04-.02,2.04.67,2.31,1.62.12.41.19.83.27,1.25.25,1.27.34,2.56.86,3.78.85,2.02,3.64,2.8,5.26.93.09-.1.14-.27.32-.27.07.14-.01.25-.08.36-.71,1.23-1.11,2.58-1.43,3.94-.57,2.36-.65,4.75-.25,7.15.38,2.36,1.21,4.56,2.53,6.53,1.16,1.75,2.62,3.24,4.34,4.49,1.78,1.29,3.74,2.22,5.83,2.8,1.96.55,3.98.87,6.04.85,4.42-.04,8.41-1.32,11.75-4.19,4.05-3.48,5.9-8.06,6.02-13.33ZM1344.22,138.52c-2.05,3.96-5.17,6.69-9.43,8.09-3.28,1.08-6.6,1.17-9.97.49-1.1-.22-2.17-.53-3.21-.92-.37-.14-.68-.38-1.01-.58-2.54-1.81-4.24-4.23-5.2-7.17-.95-2.89-1.01-5.83-.25-8.76,1.06-4.1,3.38-7.3,7.09-9.4,2.8-1.58,5.86-2.22,9.06-2.02,3.11.19,6.06,1.01,8.72,2.69,1.54.97,2.84,2.19,3.95,3.64.72.94,1.29,1.94,1.73,3.02.49,1.56.45,3.16.28,4.75-.23,2.15-.76,4.23-1.75,6.17Z"/>
        <path class="cls-9" d="M1345.7,127.61c-.44-1.09-1.01-2.09-1.73-3.02-1.11-1.44-2.41-2.66-3.95-3.64-2.66-1.69-5.62-2.5-8.72-2.69-3.2-.2-6.26.44-9.06,2.02-3.72,2.1-6.03,5.3-7.09,9.4-.76,2.93-.69,5.87.25,8.76.96,2.94,2.66,5.36,5.2,7.17.33.2.64.44,1.01.58,1.05.39,2.11.7,3.21.92,3.37.68,6.69.59,9.97-.49,4.26-1.4,7.38-4.13,9.43-8.09,1-1.93,1.52-4.02,1.75-6.17.17-1.59.22-3.19-.28-4.75ZM1337,143.24c-1.35,2.06-3.17,3.37-5.75,3.27-2.23-.09-4-1.08-5.37-2.84-1.41-1.81-2.18-3.9-2.72-6.09-.05-.2-.13-.39-.19-.58-.57-2.07-.62-4.18-.49-6.3.15-2.42.66-4.75,2.01-6.81,1.53-2.34,3.67-3.52,6.52-3.24.27.03.5.12.72.28,3.37,1.05,4.98,3.7,6.08,6.76,1.04,2.9,1.32,5.91,1.12,8.97-.15,2.34-.62,4.59-1.92,6.58Z"/>
        <path class="cls-13" d="M1337.79,127.69c-1.1-3.06-2.71-5.71-6.08-6.76-.21-.16-.45-.26-.72-.28-2.85-.28-4.99.89-6.52,3.24-1.35,2.06-1.86,4.39-2.01,6.81-.13,2.12-.08,4.23.49,6.3.06.19.14.38.19.58.54,2.19,1.31,4.28,2.72,6.09,1.37,1.76,3.14,2.76,5.37,2.84,2.58.1,4.41-1.2,5.75-3.27,1.3-1.99,1.77-4.24,1.92-6.58.2-3.07-.08-6.07-1.12-8.97ZM1334.69,142.64c-1.76,2.32-4.71,1.98-6.4.35-1.41-1.35-2.16-3.08-2.7-4.92-.7-2.37-.87-4.8-.74-7.25.04-.75.08-1.52.27-2.03.4-1.85.96-3.39,2.18-4.59,1.5-1.48,3.75-1.58,5.42-.31,1.5,1.14,2.32,2.71,2.94,4.43.98,2.73,1.25,5.55,1.04,8.42-.15,2.13-.67,4.14-2.01,5.9Z"/>
      </g>
      <path class="cls-10" d="M1164.74,112.86c5.29,1.22,10.65,2.14,15.95,3.32.4.09.71.19.91.61.25.53.82.72,1.29.99-2-.42-4.02-.8-6.01-1.25-2.83-.64-5.71-1.02-8.54-1.68-1.04-.24-2.09-.54-3.03-1.07-.34-.19-.68-.42-.57-.91Z"/>
      <path class="cls-13" d="M1046.02,69.84c-.02-1.45-.23-2.88-.63-4.27-.56-1.95-1.45-3.74-2.64-5.4-1.27-1.76-2.81-3.22-4.65-4.33-2.34-1.42-4.86-2.37-7.6-2.78-1.62-.24-3.25-.37-4.86-.23-3.55.3-6.8,1.42-9.65,3.63-2.86,2.21-4.83,5.07-5.88,8.49-.89,2.93-1.11,5.94-.48,9,.82,3.95,2.78,7.19,5.87,9.76,2.41,2.01,5.2,3.24,8.65,3.95.81.25,2.04.37,3.26.4,2.85.07,5.6-.38,8.25-1.5,2.56-1.07,4.72-2.66,6.43-4.8,2.79-3.47,4.01-7.48,3.94-11.91ZM1031.48,79.49c-1.84,2.22-4.65,1.9-6.47.14-1.18-1.14-1.82-2.6-2.34-4.11-.89-2.63-1.16-5.33-.91-8.09.18-1.94.53-3.84,1.61-5.51.99-1.52,2.36-2.39,4.21-2.12,1.3.19,2.35.93,3.17,1.99,1.55,2,2.23,4.33,2.61,6.76.37,2.32.38,4.63-.17,7.05-.24,1.36-.74,2.72-1.72,3.9Z"/>
      <path class="cls-9" d="M1042.87,68.67c.11-1.41.17-2.82-.3-4.19-.08-.23-.12-.47-.23-.68-1.2-2.45-2.93-4.45-5.23-5.93-2.83-1.82-5.94-2.73-9.29-2.84-3.87-.12-7.43.84-10.53,3.22-1.72,1.32-3.06,2.95-4.04,4.88-.97,1.91-1.47,3.94-1.68,6.06-.19,1.92.02,3.81.57,5.65.66,2.24,1.8,4.22,3.42,5.91.64.66,1.28,1.33,2.11,1.77.27.16.54.32.83.44,1.73.67,3.52,1.08,5.37,1.24,4.56.39,8.77-.5,12.5-3.26,1.95-1.44,3.46-3.25,4.58-5.39,1.12-2.16,1.74-4.46,1.92-6.87ZM1033.88,79.98c-1.34,2.08-3.17,3.4-5.79,3.29-2.07-.09-3.75-.94-5.08-2.51-1.27-1.48-2.05-3.21-2.61-5.05-.19-.64-.35-1.28-.52-1.93-.65-2.08-.69-4.21-.52-6.34.16-2,.5-3.98,1.42-5.8,1.1-2.15,2.67-3.73,5.17-4.17.66-.12,1.34-.08,2-.04.25.02.47.11.66.27,3.15.99,4.77,3.41,5.89,6.29.99,2.54,1.38,5.19,1.35,7.89-.03,2.83-.38,5.63-1.96,8.09Z"/>
      <path class="cls-10" d="M1139.66,107.76c2.19.71,4.44,1.19,6.72,1.54,1.21.18,2.42.35,3.65.26.67-.05,1.33-.17,1.91-.52.5.28,1.03.53,1.5.85.57.4.5.89-.17,1.15-.72.28-1.5.25-2.26.2-2.31-.15-4.56-.66-6.8-1.21-1.25-.31-2.53-.62-3.65-1.31-.38-.23-.86-.41-.91-.96Z"/>
      <path class="cls-10" d="M1162.82,91.42c.87-.49,1.29-1.3,1.59-2.19.63-1.85.71-3.76.52-5.69.63.83.82,1.82.97,2.8.28,1.92.21,3.83-.47,5.69-.15.41-.37.76-.68,1.07-.55.56-1.23.44-1.56-.29-.2-.44-.34-.9-.38-1.39Z"/>
      <path class="cls-17" d="M1189.97,115.62c.04-.32.13-.62.39-.84-.05.32-.13.62-.39.84Z"/>
      <path class="cls-9" d="M1287.37,138.57c-.11-.34.12-.44.38-.53.39-.14.8-.15,1.21-.17,1.06-.05,1.8-.57,2.3-1.5.45-.84.66-1.77.86-2.68,1.02-4.71,2.03-9.43,2.95-14.17.24-1.21.52-2.42.57-3.67.02-.59-.06-1.16-.29-1.68-.22-.49-.62-.83-1.17-.95-.74-.15-1.48-.36-2.25-.36-.02-.03-.06-.06-.06-.09,0-.93-.58-1.18-1.38-1.32-1.3-.21-2.36-.02-3.17,1.15-.55.79-1.07,1.6-1.6,2.4-.28.42-.58.82-.92,1.18-.16.17-.3.4-.59.33-.11-.87.27-1.64.52-2.42.54-1.74,1.42-3.3,2.78-4.55.47-.43.99-.85,1.74-.67.42.1.72.32.79.75.06.35.23.52.61.6,6.36,1.31,12.72,2.64,19.08,3.98.27.06.48.05.7-.16.86-.82,1.57-.7,2.21.32.42.96.26,1.97.18,2.96-.08.95-.18,1.91-.55,2.81-.26.64-.56,1.25-1.03,1.75-.19.2-.37.43-.7.35-.24-1.06-.38-2.15-.62-3.21-.41-1.83-1.61-2.8-3.35-3.22-.2-.05-.41-.07-.56-.23-.19-.06-.3-.21-.42-.35-.73-.8-1.71-1.01-2.72-1.11-.4-.04-.59.28-.73.59-.29.62-.5,1.28-.64,1.95-1.16,5.51-2.31,11.02-3.46,16.53-.09.42-.09.85-.11,1.27-.04.75.46,1.22.91,1.71-.06.92-.2,1.83.19,2.73.16.37.43.64.64.96-.15.36-.5.42-.82.5-1.25.32-2.51.24-3.77.09-1.72-.2-3.41-.6-5.1-.94-.71-.14-1.38-.44-2.1-.57-.21-.04-.37-.17-.48-.35Z"/>
      <path class="cls-10" d="M1320.59,145.61c1.62.73,3.3,1.23,5.05,1.5,4.13.64,8.09.19,11.82-1.81,3.25-1.74,5.58-4.35,7.01-7.7,1.25-2.91,1.72-5.99,1.29-9.17-.04-.27-.05-.55-.08-.83.53,1.01.8,2.11,1,3.22.38,2.14.32,4.29-.17,6.4-.98,4.18-3.2,7.51-6.96,9.69-2.66,1.55-5.58,2.24-8.65,2.14-3.51-.12-6.82-.99-9.78-2.98-.2-.13-.36-.31-.54-.47Z"/>
      <path class="cls-10" d="M1298.81,136.16c-1.12-.42-1.16-1.37-1.03-2.64.02-.24.09-.47.14-.71,1.1-5.27,2.2-10.53,3.3-15.8.17-.82.39-1.62.72-2.38.33-.75.55-.84,1.35-.66.6.13,1.19.25,1.74.57.43.25.78.56.97,1.03-.14.1-.29.04-.43.02-1.08-.18-1.85.21-2.36,1.21-.45.88-.7,1.83-.91,2.79-1.18,5.52-2.32,11.05-3.48,16.57Z"/>
      <path class="cls-10" d="M1284.2,116.5c.75-.55,1.23-1.32,1.71-2.09.46-.74.97-1.44,1.48-2.15.7-.98,1.67-1.14,2.75-1.03.24.02.47.09.71.13.98.19,1.19.46,1.09,1.48-.35.04-.7.07-1.05.13-1.33.21-2.02,1.23-2.75,2.19-.72.96-1.24,2.07-2.05,2.97-.16.18-.35.34-.56.45-.5.25-.99.08-1.18-.45-.19-.53-.31-1.07-.14-1.63Z"/>
      <path class="cls-10" d="M1287.37,138.57c.74.22,1.48.48,2.24.66,2.15.5,4.31.98,6.52,1.14,1.2.09,2.41.09,3.52-.52.5.28,1.03.53,1.5.85.57.4.5.89-.17,1.15-.72.28-1.5.25-2.26.2-2.31-.15-4.56-.66-6.8-1.21-1.25-.31-2.53-.62-3.65-1.31-.38-.23-.87-.4-.9-.97Z"/>
      <path class="cls-10" d="M1310.52,122.23c.89-.49,1.3-1.34,1.6-2.24.61-1.84.69-3.73.5-5.64.64.85.82,1.86.98,2.86.24,1.53.15,3.06-.16,4.58-.34.74-.63,1.51-1.12,2.17-.5.48-1.11.36-1.41-.3-.21-.45-.35-.93-.39-1.43Z"/>
      <path class="cls-8" d="M1312.32,123.96c.27-.78.64-1.51,1.12-2.17-.21.81-.36,1.65-1.12,2.17Z"/>
      <path class="cls-9" d="M1090.91,85.25c.32,1.28.45,2.6.69,3.9.17.9.3,1.81.45,2.72-.85,1.66-1.88,3.2-3.29,4.44-.42.37-.94.6-1.51.68-.2.03-.41.1-.58-.07-.55-1.01-.71-2.13-.93-3.24-.98-4.88-1.75-9.8-2.62-14.7,0-.05-.03-.1-.05-.19-.88,1.25-1.59,2.57-2.52,3.74-.28-.25-.27-.61-.3-.93-.05-.64-.37-1.25-.17-1.91.21-.68.65-1.24.97-1.86.41-.79.86-1.56,1.3-2.32.14-.24.2-.46.16-.74-.21-1.35-.37-2.71-.72-4.04-.2-.79-.55-1.49-1.2-2.02-.29-.24-.59-.53-.48-.94.12-.43.51-.59.92-.71,1.13-.31,2.28-.2,3.42-.1,1.35.12,2.69.36,3.99.73,1.18.33,2.42.54,3.5,1.17-.03.25-.23.32-.42.39-.28.1-.57.16-.87.2-.93.13-1,.21-1.22,1.15-.43,1.82-.22,3.66-.07,5.49.24,2.94.69,5.86,1.16,8.77.04.22.03.46.37.38Z"/>
      <path class="cls-9" d="M1068.74,93.19c-.58-1.26-.82-2.62-1.09-3.96-.96-4.63-1.77-9.28-2.57-13.94-.37-2.17-.71-4.35-1.09-6.52-.12-.67-.3-1.34-.51-1.99-.28-.87-.82-1.57-1.65-2.02-.36-.19-.61-.46-.56-.88.06-.43.42-.57.8-.67.95-.25,1.91-.27,2.87-.18,1.72.14,3.44.39,5.1.85,1.12.31,2.27.52,3.3,1.1-.19.39-.57.5-.94.62-.94.29-1.22.64-1.27,1.63-.05.87-.04,1.74.02,2.61.24,3.93.86,7.81,1.48,11.69.05.3.16.34.4.27.34,1.99.69,3.99,1.03,5.98.03.16.02.33.04.49,0,.17-.06.33-.15.47-.9,1.27-1.77,2.57-2.91,3.65-.49.46-1.04.77-1.71.88-.2.03-.4.1-.58-.06Z"/>
      <path class="cls-10" d="M1086.67,96.92c1.23-.01,2.11-.66,2.87-1.55.81-.94,1.47-1.98,2.14-3.02.11-.17.18-.36.36-.48.04.14.08.28.15.52,2.56-3.93,4.77-7.97,7.04-11.97.15-.25.25-.53.45-.76,1-1.87,2.17-3.62,3.47-5.3.76-.98,1.68-1.73,2.99-1.85.53-.05.96-.39,1.47-.48.59.15,1.08.48,1.52.89.36.34.3.86-.1,1.15-.23.16-.49.24-.78.27-1.46.15-2.55.92-3.46,2.02-1.53,1.85-2.76,3.9-4.04,5.92-2.94,4.62-5.88,9.25-8.85,13.86-.48.74-1.02,1.44-1.71,2.03-1.07.91-3.22.27-3.53-1.24Z"/>
      <path class="cls-10" d="M1068.74,93.19c1.52,0,2.41-1.02,3.25-2.07.74-.92,1.41-1.9,2.1-2.86.06.15.13.3.23.54.54-.83,1.04-1.6,1.54-2.37,1.36-2.12,2.68-4.27,3.96-6.44.06-.11.17-.19.26-.28.16.95.31,1.89.47,2.84-.6,1.15-1.37,2.2-2.08,3.27-1.63,2.45-3.2,4.94-5.01,7.26-.3.38-.61.74-.94,1.09-1.04,1.1-2.89.82-3.56-.53-.07-.15-.14-.3-.21-.45Z"/>
      <path class="cls-9" d="M1107.62,72.02c-.41.39-.93.56-1.46.62-1.22.13-2.08.8-2.81,1.71-1.2,1.48-2.2,3.1-3.22,4.7-.14.22-.28.44-.41.66-.04.04-.08.03-.11-.02.51-1.06,1.04-2.12,1.52-3.2.31-.67.57-1.36.53-2.13-.04-.68-.33-1.2-.92-1.55-.4-.24-.81-.46-1.18-.74-.45-.34-.41-.69.06-1.02.55-.39,1.19-.36,1.82-.36,2.11.03,4.15.46,6.11,1.24.03.01.05.06.07.08Z"/>
      <path class="cls-10" d="M1090.91,85.25c-.16.07-.14.31-.39.36-.15-.93-.32-1.85-.45-2.78-.46-3.21-.94-6.42-1.01-9.67-.02-.97.05-1.92.29-2.87.19-.74.33-.87,1.08-.96.53-.07,1.08-.1,1.52-.47.66.18,1.25.49,1.67,1.04.34.44.18.87-.37,1.01-.2.05-.4.11-.6.11-1.38,0-1.95.79-2.27,2.02-.46,1.82-.34,3.68-.2,5.52.15,2.05.41,4.09.71,6.12.03.18,0,.37,0,.55Z"/>
      <path class="cls-10" d="M1073.03,81.78c-.11.14-.23.28-.4.49-.18-1.07-.38-2.06-.52-3.06-.49-3.37-1.04-6.74-1.13-10.15-.03-.97-.16-1.96.26-2.9.15-.34.38-.54.73-.6.5-.09.95-.3,1.37-.59.55.15,1.03.43,1.42.84.52.54.38,1.06-.31,1.33-.12.05-.24.1-.37.12-1.27.16-1.89,1.23-2,2.45-.36,3.89.39,7.7.88,11.53.02.18.05.37.08.55Z"/>
      <path class="cls-16" d="M1099.61,79.69s.07.01.11.02c-.16.24-.25.52-.48.72.05-.28.15-.54.37-.73Z"/>
      <path class="cls-9" d="M1354.66,147.47c-.23,1.53-.02,2.94,1.24,4.01-.12.44-.53.49-.86.59-1.04.33-2.12.31-3.2.21-1.24-.11-2.45-.38-3.67-.64-.41-.09-.78-.23-1.1-.49-.11-.48.16-.74.56-.88.31-.1.65-.18.98-.18,1.37.01,2.09-.83,2.58-1.94.32-.72.55-1.49.72-2.27,1.09-5.22,2.19-10.43,3.26-15.66.19-.91.21-1.83-.06-2.75-.21-.72-.63-1.25-1.27-1.62-.47-.27-.95-.53-1.3-.95-.37-.45-.31-.78.19-1.1.34-.22.74-.28,1.12-.28,1.89,0,3.73.31,5.53.87.46.14.92.29,1.36.48,1.54.66,2.34,2.03,3.12,3.37.92,1.59,1.77,3.21,2.64,4.83,1.17,2.19,2.33,4.38,3.51,6.57.98,1.83,1.98,3.65,2.98,5.47.47.86.96,1.71,1.43,2.54.17.02.18-.08.2-.17,1.16-3.96,1.92-8.01,2.72-12.04.19-.95.28-1.93.09-2.92-.19-1.02-.76-1.71-1.65-2.17-.42-.22-.81-.46-1.12-.81-.4-.45-.36-.7.14-1.04.45-.31.97-.35,1.49-.35,2.46,0,4.83.42,7.09,1.4-.02.3-.28.37-.48.48-.51.27-1.07.32-1.62.37-.57.05-.97.33-1.23.83-.29.56-.5,1.16-.63,1.78-1.15,5.47-2.32,10.94-3.41,16.42-.27,1.38-.48,2.78-.78,4.16-.22.99-.65,1.87-1.5,2.46-.58.4-1.23.72-1.97.36-.95-1.22-1.67-2.58-2.39-3.94-.94-1.75-1.88-3.49-2.82-5.23-1.01-1.87-2.03-3.74-3.06-5.61-.77-1.4-1.54-2.79-2.34-4.17-.92-1.59-1.87-3.16-2.82-4.73-.09-.15-.16-.34-.39-.45-.21.77-.41,1.53-.62,2.29-.34-.05-.38-.38-.53-.59-.21-.28-.37-.59-.58-.88-.22.15-.19.36-.22.52-.71,3.39-1.42,6.79-2.13,10.18-.11.55-.12,1.1-.16,1.66-.07.85.39,1.44.93,1.99Z"/>
      <path class="cls-10" d="M1371.79,156.42c1.64.1,2.85-.9,3.28-2.71.5-2.09.76-4.24,1.21-6.34,1.02-4.82,2.01-9.64,3.03-14.45.13-.63.35-1.25.65-1.82.29-.54.7-.82,1.32-.85.76-.03,1.51-.17,2.13-.68.53.18,1.01.48,1.41.87.52.51.38,1.1-.32,1.32-.3.09-.62.19-.93.18-1.33-.04-2.1.72-2.6,1.82-.3.65-.53,1.34-.68,2.05-1.1,5.27-2.23,10.53-3.27,15.82-.31,1.56-.58,3.13-.91,4.7-.38,1.86-1.92,2.39-3.41,1.21-.38-.3-.74-.62-.93-1.09Z"/>
      <path class="cls-10" d="M1354.66,147.47c-.85-.38-1.19-1.18-1.09-2.38.07-.84.24-1.65.41-2.46.65-3.11,1.3-6.21,1.95-9.32.04-.21.1-.42.19-.76.46.76.85,1.4,1.23,2.04-.96,3.6-1.57,7.28-2.38,10.92-.14.65-.3,1.3-.31,1.97Z"/>
      <path class="cls-10" d="M1347.08,151.14c1.02.35,2.08.57,3.14.74,1.35.23,2.71.41,4.09.19.58-.09,1.12-.25,1.59-.61.56.17,1.05.45,1.47.86.51.49.37,1.03-.3,1.27-.77.28-1.56.27-2.36.2-2.19-.19-4.33-.58-6.34-1.51-.54-.25-1.03-.59-1.3-1.15Z"/>
      <path class="cls-9" d="M1254.1,131.62c-2.62-1.95-4.37-4.49-5.24-7.64-.56-2.03-.64-4.07-.36-6.16.54-4.09,2.26-7.54,5.45-10.16,2.87-2.36,6.25-3.42,9.96-3.36,3.83.06,7.28,1.24,10.3,3.61.29.23.57.47.84.73.25.24.43.21.61-.09.14-.24.31-.47.49-.67.63-.71,1.38-.65,1.93.16.38.82.21,1.68.13,2.52-.16,1.56-.48,3.08-1.55,4.32-.29.33-.63.57-1.03.73-.17.07-.34.16-.52,0-.42-.47-.59-1.07-.8-1.63-.65-1.71-1.67-3.16-3.01-4.4-.95-.88-2.08-1.47-3.27-1.95-.77-.49-1.5-1.05-2.35-1.38-1.45-.56-2.93-.85-4.47-.46-2.27.58-3.73,2.1-4.66,4.15-1.51,3.29-1.7,6.73-.93,10.23.17.78.44,1.53.6,2.31.42,1.54.79,3.09,1.56,4.5,1.27,2.32,2.99,4.11,5.58,4.97,2.05.68,3.97.61,5.79-.63,1.24-.84,2.2-2.95,1.71-4.56-.34-1.12-1.13-1.74-2.15-2.14-.47-.18-.94-.36-1.3-.72-.46-.47-.37-.86.25-1.08.79-.28,1.61-.22,2.42-.18,2.11.1,4.15.61,6.19,1.08.88.2,1.76.45,2.57.86-.02.28-.26.34-.46.41-.34.11-.68.21-1.03.24-.71.06-1.2.42-1.58,1-.47.73-.92,1.48-1.43,2.19-2.19,2.99-5.19,4.61-8.79,5.16-3.29.51-6.48.01-9.6-1.06-.39-.13-.77-.27-1.12-.47-.23-.18-.51-.27-.74-.44Z"/>
      <path class="cls-10" d="M1254.83,131.98c1.64.66,3.34,1.14,5.09,1.41,3.92.62,7.68.21,11.09-1.97,1.67-1.06,2.96-2.52,3.99-4.2.23-.38.46-.76.7-1.13.37-.58.88-.93,1.59-.99.55-.05,1.11-.13,1.57-.5.6.22,1.17.47,1.64.91.45.43.39.81-.17,1.07-.18.08-.39.13-.59.15-1.41.1-2.37.81-3.06,2.02-.75,1.33-1.63,2.56-2.79,3.58-2.06,1.82-4.51,2.66-7.2,2.93-2.28.23-4.49-.15-6.67-.73-1.91-.51-3.69-1.35-5.33-2.46,0-.11.03-.15.14-.09Z"/>
      <path class="cls-10" d="M1256.23,122.51c-.99-2.27-1.29-4.65-1.15-7.1.12-1.99.52-3.92,1.43-5.71,1.19-2.35,2.95-4,5.73-4.18,2.06-.14,3.89.54,5.51,1.81.11.09.2.22.3.33-1.09-.22-2.16-.51-3.3-.48-2.53.06-4.46,1.24-5.99,3.16-1.08,1.35-1.69,2.93-2.11,4.6-.6,2.38-.75,4.77-.41,7.2.02.13,0,.26,0,.38Z"/>
      <path class="cls-10" d="M1275.12,115.63c1.28-.28,1.89-1.23,2.31-2.34.66-1.69.79-3.45.65-5.25.6.65.75,1.48.9,2.29.35,1.96.18,3.87-.54,5.73-.42,1.08-1.27,1.57-2.05,1.16-.64-.34-1.1-.87-1.28-1.6Z"/>
      <path class="cls-2" d="M1254.83,131.98s-.09.06-.14.09c-.19-.15-.46-.21-.59-.45.27.07.52.18.73.36Z"/>
      <path class="cls-9" d="M886.36,32.47c-.37-.73-.7-1.48-1.12-2.17-1.15-1.91-2.77-3.27-4.9-3.99-1.05-.78-2.16-1.46-3.46-1.74-1.46-.32-2.88-.38-4.18.53-1.06.75-1.34,2.1-.67,3.2.17.28.46.49.51.85.09.55-.1,1.1.02,1.65.31,1.39,1.24,2.28,2.36,3.04,1.5,1.02,3.17,1.68,4.79,2.47,2.13,1.04,4.17,2.2,5.85,3.91.48.49.93,1.01,1.2,1.66.32.89.07,1.77-.09,2.63-.29,1.51-.9,2.89-1.84,4.13-1.68,2.2-3.94,3.47-6.6,4.05-3.09.67-6.1.24-9.03-.85-.33-.12-.63-.31-.94-.48-.55-.26-.94-.73-1.44-1.07-.14-.09-.29-.3-.41.01-.49.08-.76-.32-1.11-.53-.63-.38-.61-.39-1.19.05-.31.23-.61.58-1.08.35-.58-.71-.69-1.58-.85-2.43-.27-1.38-.2-2.76.16-4.13.11-.44.29-.84.54-1.21.58-.84,1.4-.79,1.85.13.43.88.81,1.79,1.23,2.68.73,1.57,1.82,2.87,3.12,4,1.68,1.46,3.61,2.32,5.81,2.6,2.16.27,4.38-.43,5.41-2.2,1.15-1.98.62-4.29-1.28-5.58-.97-.66-2-1.21-3.02-1.78-1.69-1.03-3.5-1.82-5.24-2.75-.25-.15-.52-.26-.75-.44-1.21-.81-2.31-1.74-3.14-2.96-.97-1.43-1.33-2.98-1.22-4.69.12-1.74.69-3.3,1.76-4.65,1.49-1.89,3.5-3,5.84-3.38,4.28-.69,8.13.33,11.42,3.23.29.25.5.36.7-.08.08-.16.25-.29.32-.45.48-1.01,1.65-.93,2.32-.07.17.22.29.47.43.71.26.54.24,1.13.19,1.7-.11,1.13-.23,2.27-.98,3.2-.33.41-.68.85-1.3.83Z"/>
      <path class="cls-10" d="M868.26,51.36c1.5.55,3.01,1.06,4.6,1.29,3.61.53,7.01.01,9.98-2.23,1.77-1.33,2.94-3.1,3.51-5.26.29-1.08.41-2.17.41-3.28.86,1.23,1.07,2.62.99,4.07-.1,1.9-.75,3.62-1.97,5.09-1.53,1.83-3.55,2.88-5.87,3.26-4.22.69-8.05-.41-11.55-2.81-.04-.03-.07-.09-.1-.13Z"/>
      <path class="cls-10" d="M872.55,29.15c-1.73-1.63-1.19-3.9,1.07-4.7,2.08-.73,5.5.35,6.72,1.86-1-.18-1.97-.46-3.02-.43-1.94.05-4.2,1.12-4.67,3.16-.01.05-.07.08-.11.12Z"/>
      <path class="cls-10" d="M886.36,32.47c1.01-.47,1.59-1.26,1.86-2.33.29-1.12.35-2.25.24-3.39.56.79.72,1.73.93,2.65.23,1.01.16,2.02.03,3.03-.07.51-.29,1-.64,1.39-.64.71-1.4.61-1.9-.24-.2-.35-.34-.73-.51-1.1Z"/>
      <path class="cls-10" d="M863.02,50.17c.56-.04.98-.35,1.32-.75.22-.26.37-.24.63-.05.46.34.92.69,1.44.93-.2.35-.38.72-.59,1.06-.31.48-.78.66-1.29.45-.75-.3-1.28-.84-1.5-1.64Z"/>
      <path class="cls-20" d="M870.75,39.45c1.81.82,3.67,1.55,5.25,2.81-1.56-.63-3.06-1.38-4.52-2.22-.29-.17-.57-.34-.86-.51,0-.1.03-.15.13-.08Z"/>
      <path class="cls-19" d="M870.75,39.45s-.09.06-.13.08c-.2-.15-.47-.21-.6-.46.27.08.52.18.74.37Z"/>
      <path class="cls-9" d="M1130.56,99.94c.36,1.17.53,2.39,1.09,3.5.21.41.46.8.7,1.2-.1.39-.43.48-.75.59-.69.24-1.41.32-2.14.31-1.51,0-3-.19-4.48-.47-1.62-.31-3.24-.64-4.83-1.12-.34-.1-.67-.23-.94-.47-.08-.37.18-.49.45-.58.33-.11.68-.14,1.04-.16,1.23-.05,1.83-.6,2.13-1.78.35-1.39.2-2.79.13-4.18-.02-.32-.22-.42-.5-.49-.96-.26-1.89-.63-2.87-.83-.08-.02-.15-.1-.23-.15-.13-.81-.78-1-1.43-1.15-1.43-.33-2.83-.75-4.28-1.02-1.44-.27-2.9-.45-4.35-.67-.33-.05-.58.06-.75.34-.4.65-.75,1.33-1.03,2.03-.23.58-.11.87.42,1.22.29.19.66.28.79.66-.31.64-.6,1.29-.48,2.04.08.52.31.92.73,1.23-.08.39-.43.43-.72.53-1.1.37-2.24.31-3.37.23-1.25-.09-2.46-.37-3.68-.64-.42-.09-.83-.23-1.16-.51-.02-.48.34-.83,1-.92.7-.1,1.39-.18,2.03-.53.74-.39,1.31-.96,1.84-1.58,1.59-1.83,2.96-3.84,4.39-5.8.74-1.01,1.37-2.11,2.23-3.04.78-.13,1.5.15,2.22.38.28.27.04.48-.1.68-.51.78-1.02,1.55-1.52,2.33-.31.48-.29.54.28.58.32.02.63.08.94.15,2.79.58,5.57,1.16,8.36,1.74.66.14.7.1.57-.54-.68-3.31-1.32-6.63-2.19-9.9-.22-.84-.37-1.7-.66-2.56-.3.12-.38.38-.54.57-.52.62-.85,1.39-1.49,1.92-.31,0-.32-.26-.38-.46-.18-.56-.28-1.14-.41-1.71-.04-.19-.07-.4-.21-.56.6-1.13,1-2.33,1.41-3.54.59-1.74,1.72-2.49,3.57-2.25,1.62.21,3.02.86,3.88,2.37.14.25.2.51.31.77.33.83.51,1.7.7,2.56,1.19,5.38,2.27,10.78,3.39,16.17.24,1.18.55,2.35.9,3.5Z"/>
      <path class="cls-10" d="M1108.72,96.72c-.35-.21-.69-.44-1.05-.62-.4-.2-.53-.52-.43-.92.27-.99.81-1.86,1.33-2.74.11-.19.32-.19.5-.17,2.54.35,5.09.67,7.55,1.42.66.2,1.33.36,2,.5.72.16.77.55.73,1.11-.36.14-.7-.02-1.03-.12-1.85-.58-3.77-.77-5.67-1.06-.55-.08-1.1-.13-1.65-.22-.47-.08-.8,0-1.04.47-.41.79-.88,1.54-1.24,2.35Z"/>
      <path class="cls-10" d="M1119.21,103.48c1.91.63,3.86,1.07,5.83,1.43,1.62.3,3.25.53,4.91.44.85-.04,1.71-.13,2.4-.72.4.27.8.53,1.19.81.29.21.59.44.49.86-.1.4-.46.52-.8.59-.82.17-1.66.17-2.49.12-2.2-.14-4.35-.61-6.47-1.15-1.45-.37-2.92-.71-4.22-1.52-.35-.22-.7-.43-.83-.86Z"/>
      <path class="cls-10" d="M1116.38,80.35c.29-.1.24.15.27.28.22.81.42,1.62.63,2.44.13.25-.06.42-.18.6-.94,1.36-1.86,2.73-2.78,4.1-.13.2-.23.44-.51.47-.76-.16-1.53-.33-2.29-.49.53-.97,1.22-1.84,1.83-2.76,1.02-1.54,2.1-3.03,3.03-4.62Z"/>
      <path class="cls-10" d="M1100.04,99.6c1.04.35,2.11.58,3.19.77,1.37.24,2.75.39,4.14.2.57-.08,1.13-.2,1.6-.57.46.28.93.55,1.37.85.24.16.53.32.47.69-.06.35-.35.46-.63.55-.96.31-1.94.24-2.92.15-1.52-.14-3.01-.45-4.46-.93-.76-.25-1.5-.55-2.16-1-.26-.18-.51-.38-.59-.71Z"/>
      <path class="cls-15" d="M1130.56,99.94c-.57-1.14-.81-2.39-1.07-3.62-1.26-5.95-2.41-11.93-3.78-17.86-.06-.25-.09-.51-.14-.77.49.76.64,1.64.83,2.5.68,3,1.35,6,1.98,9.01.74,3.52,1.45,7.04,2.18,10.56.01.05,0,.11,0,.17Z"/>
      <path class="cls-10" d="M1017.68,82.52c1.67.62,3.37,1.17,5.15,1.41,4.12.56,8.07.08,11.74-1.99,3.59-2.02,5.97-5.03,7.28-8.91.94-2.79,1.15-5.64.73-8.55.52.83.72,1.78.91,2.71.57,2.71.37,5.4-.42,8.02-1.08,3.55-3.17,6.4-6.37,8.32-2.87,1.72-6.02,2.46-9.38,2.26-2.77-.17-5.43-.77-7.89-2.12-.61-.33-1.27-.62-1.75-1.16Z"/>
      <path class="cls-9" d="M992.68,77.19c-.14-.62.28-.74.74-.77,1.21-.06,2.09-.6,2.56-1.72.19-.44.36-.9.46-1.36,1.28-6.07,2.56-12.13,3.79-18.21.2-1,.32-2.06-.34-3.01-.26-.36-.59-.59-.97-.8-.35-.19-.79-.4-.74-.87.05-.51.54-.62.96-.7,1.01-.19,2.03-.08,3.04.04,1.12.13,2.24.31,3.35.58,1.22.3,2.43.65,3.61,1.1-.03.25-.22.33-.41.4-.22.09-.46.19-.7.19-.92,0-1.38.5-1.59,1.34-.08.32-.19.64-.25.97-1.21,5.78-2.41,11.56-3.62,17.35-.05.25-.11.51-.13.77-.09.8-.09,1.58.76,2.03.08.04.11.15.16.22-.12,1.11-.32,2.23.35,3.25-.25.47-.72.55-1.16.67-1.08.28-2.18.17-3.27.06-1.67-.16-3.3-.56-4.93-.92-.57-.12-1.16-.25-1.65-.62Z"/>
      <path class="cls-10" d="M1003.34,74.75c-1.22-.61-1.27-.73-1.05-2.5.13-1.07.42-2.11.64-3.17,1.03-4.93,2.06-9.85,3.08-14.78.11-.51.28-1,.45-1.49.18-.53.54-.84,1.16-.87.53-.02,1.08-.09,1.51-.46.54.24,1.1.44,1.53.88.21.21.34.45.28.75-.07.32-.37.39-.64.46-.16.04-.33.07-.49.07-1.28-.02-1.9.82-2.3,1.85-.25.65-.42,1.34-.56,2.03-1.19,5.75-2.39,11.49-3.59,17.23Z"/>
      <path class="cls-10" d="M992.68,77.19c1.66.51,3.35.87,5.05,1.15,1.51.25,3.04.51,4.58.21.51-.1.95-.3,1.38-.55.37.35.82.58,1.25.84.26.15.52.32.49.68-.03.36-.32.5-.59.61-.62.25-1.28.27-1.92.21-2.99-.26-5.92-.8-8.72-1.93-.61-.24-1.25-.51-1.51-1.22Z"/>
      <path class="cls-10" d="M978.43,47.12c-1.19-.24-2.36-.42-3.58-.12-.64.16-1.05.55-1.33,1.09-.25.49-.46,1.01-.57,1.56-1.22,5.85-2.45,11.7-3.67,17.54-1.18-.6-1.4-.76-1.1-2.24,1.21-5.98,2.47-11.96,3.73-17.93.37-1.76.55-1.92,2.35-1.84,1.63.07,3.06.7,4.17,1.94Z"/>
      <path class="cls-10" d="M1331.72,120.93c-1.47-.28-2.9-.24-4.28.44-1.64.82-2.72,2.15-3.48,3.76-.92,1.95-1.28,4.04-1.36,6.18-.07,1.82.04,3.62.39,5.41.02.09-.01.18-.02.27-1.07-2.6-1.43-5.32-1.39-8.1.03-2.2.33-4.36,1.33-6.36.72-1.45,1.74-2.62,3.32-3.19,1.78-.64,4.36.1,5.49,1.59Z"/>
      <path class="cls-10" d="M1028.61,57.7c-3.65-.78-6.35,1.14-7.74,4.15-1.28,2.78-1.54,5.73-1.38,8.74.06,1.07.24,2.13.38,3.2-.65-1.35-.96-2.8-1.18-4.27-.33-2.23-.37-4.45,0-6.69.36-2.15,1.03-4.12,2.66-5.66,1.5-1.42,3.75-1.71,5.58-.73.62.33,1.23.69,1.66,1.27Z"/>
      <path class="cls-13" d="M983.97,60.46c.37-2.08.51-4.15.14-6.23-.35-2.01-1.09-3.84-2.59-5.31-.88-.86-1.96-1.38-3.1-1.8-.72-.52-1.57-.45-2.37-.44-1.8.02-2.42.55-2.98,2-.12.31-.23.63-.3.96-1.17,5.6-2.34,11.2-3.5,16.79-.05.25-.13.51,0,.76-.04.24-.11.47-.13.71-.11,1.59-.1,2.37,1.57,3.33.89.51,1.88.71,2.87.83,1.55.19,3.04-.09,4.39-.89,1.89-1.11,3.15-2.79,4.12-4.7.96-1.89,1.48-3.92,1.86-6.01ZM978.09,68.32c-1.27,1.24-2.77,1.81-4.56,1.46-.38-.07-.77-.15-1.15-.24-.91-.22-1.16-.61-.97-1.51.41-2,.83-4,1.25-6l.63-3c.62-2.98,1.24-5.96,1.87-8.95.21-.99.28-1.03,1.28-1,2.52.09,4.4,1.79,5.1,4.01.53,1.7.64,3.43.49,5.2-.07.83-.17,1.67-.35,2.46-.62,2.77-1.46,5.48-3.59,7.55Z"/>
    </g>
    <g id="Layer_2">
      <path class="cls-3" d="M186.27,553.63c11.48,3.87-52.69,2.16-64.22-8.63-11.53-10.79-6.1-74.03-6.1-74.03l65.49,6.54s-6.65,72.26,4.83,76.13Z"/>
      <line class="cls-11" x1="125.05" y1="487.08" x2="161.04" y2="490.67"/>
      <g>
        <path class="cls-22" d="M132.93,498.65c-.11.48-.24.95-.21,1.06.05.33-.19.46-.41.59-.06.02-.14.06-.26.05-.19-.01-.29-.21-.36-.35-.12-.08-.33-.28-.33-.51,0-.24.22-.35.26-.57.05-.27.48-2.02.68-2.79.1-.39.37-1.17.62-1.91.26-.76.46-1.4.46-1.54.02-.49,0-1.32.69-1.26s1.17,1.15,1.44,1.74c.31.65.89,2.09.98,2.27.05.11.13.24.52.29.27.04,1.35-.01,1.35.46,0,.34-.18.64-.68.52-.26-.07-.7-.23-.7-.1,0,.15.34,1.18.42,1.39.24.75-.18.63-.39,1.01l-.04.06c-.05.1-.14.18-.27.17-.33-.02-.27-.46-.46-.54-.19-.07-.47-.1-.47-.38,0-.26.28-.41.23-.61-.09-.3-.22-.72-.27-.86-.03-.06-.05-.04-.17-.03-.27.07-.75.24-1.14.34-.39.09-.76.26-1.17.19,0,.2-.29,1.21-.32,1.3ZM134.38,493.53c-.03.28-.53,1.99-.71,2.41-.04.08.04.06.08.05.19-.07,1.21-.27,1.57-.29-.31-.7-.61-1.41-.88-2.14-.04-.09-.07-.05-.06-.02Z"/>
        <path class="cls-22" d="M140.7,499.24c-.1.13-.22.21-.38.2-.3-.02-.58-.44-.69-.72-.06-.14-.11-.33-.11-.58,0-.43-.15-2.13-.22-2.76-.06-.64-.08-3.21-.08-3.45,0-.41.3-.45.54-.43.38.03.85.51.75.8-.06.17-.08.39-.08.58s.21,1.97.21,2.63.21,1.59.21,2.07c0,.41.24.79.24,1.1,0,.19-.1.31-.18.37-.08.07-.14.11-.2.2Z"/>
        <path class="cls-22" d="M144.62,496.36c.17.01.51.36.53.36.25.07.2.48.25.5.22.12.49.52.54.76.04.1.11.06.26.07.16.01.28-.04.29-.41s-.06-.69-.13-1.04c-.04-.28-.07-.72-.07-.91,0-.29.32-.63.58-.61.4.03.39.21.69.42.18.15.46.29.46.58,0,.34-.38.47-.38.59,0,.24.08.91.07,1.16,0,.26-.15,1.1-.38,1.3-.2.17-.65.25-.82.24-.01,0-.02.01-.04.02l-.02.02c-.09.06-.19.1-.31.09-.22-.02-.75-.36-.97-.59-.1-.11-.52-.75-.6-.76-.04,0-.1.03-.1.15,0,.11-.07.21-.14.27l-.05.06c-.14.14-.12.23-.23.37l-.04.05s-.04.02-.04.05c0,.25-.04.46-.35.44-.22-.02-.87-.21-.91-.6-.03-.31-.24-.51-.24-.89,0-.23.06-.65-.04-.87-.13-.32-.15-.72-.15-.96,0-.35.2-.81.45-.79.13.01.23.09.32.17l.04.03s.02.03.04.03c.29.02.54.5.52.76-.01.13.02.43.04.64.12-.32.59-.74.93-.71Z"/>
        <path class="cls-22" d="M151.58,495.45s.08.02.13.02c.23.02.64.29.82.42.19.13.53.43.52.89,0,.21-.07.85-.04,1.03.05.27.69,1.57.92,1.78.21.18.59.46.58.78,0,.28-.3.61-.58.59s-.49-.39-.7-.54c-.5-.35-.33-.57-.61-.92-.21-.25-.26-.27-.39-.59,0-.01.04-.04.03-.04s-.12.03-.15.24c-.04.38-.29.45-.41.63-.09.15-.61.68-1.24.64-.41-.03-.67-.27-.95-.58-.29-.34-.22-.15-.3-.64-.11-.61-.22-.36-.21-1.08,0-.41.3-1.08.49-1.47.12-.22.81-1.02,1.14-1.04.04,0,.22,0,.23,0,.13-.2.33-.1.5-.05.07-.06.16-.08.23-.07ZM151.78,496.69s-.1.02-.13.02c-.05,0-.11.02-.17.01-.11,0-.16-.04-.29-.05-.01,0-.01.03-.03.02-.05.08-.1.14-.16.2-.08.14-.11.29-.29.33-.1.18-.17.51-.43.49-.15-.01-.06.53-.07.78,0,.24-.05.6.22.62.34.03.66-.64.83-.94.18-.34.33-.89.38-1.09,0-.04.09-.27.14-.4Z"/>
        <path class="cls-22" d="M157.39,503.32c.05-.18.12-.64.14-1.22s-.04-2.04-.13-2.25c-.08-.19-.08-.51-.09-.71,0-.14.13-.26.08-.27-.18-.01-.53.76-1.03.8-.14.12-.26.3-.46.29-.25-.02-.49-.31-.57-.34-.2-.05-.44-.57-.43-.88,0-.27-.05-.93-.05-1.18.01-.31.13-1.04.28-1.12l.03-.06c.05-.11.16-.2.34-.18s.28.17.38.19c.23.07.33.47.32.67,0,.18-.14.82-.15,1.06,0,.14-.11.3-.01.31.3.02,1.03-.99,1.12-1.28.08-.22.35-.28.45-.28.15.01.36.28.41.28.17.01.35.38.33.91-.01.3-.05.49.01.56.09.08.25.82.24,1.16-.01.28.13,1.82.11,2.23,0,.2-.03.43-.04.62,0,.1-.05.17-.04.19.08.07.13.6.11,1.08-.02.42-.03.72-.32.98-.07.06-.17.12-.29.11-.22-.01-.33-.25-.39-.27-.16-.06-.27-.45-.33-.63h.04c-.09-.09-.14-.53-.08-.78Z"/>
        <path class="cls-22" d="M161.9,498.2c-.01.32.63,1.11.59,1.92-.02.5-.3.6-.62.77-.24.14-.67.18-.88.16-.13,0-.37-.14-.46-.1-.24.11-.52.13-.74,0-.21-.11-.64-.5-.63-.79.02-.37.51-.69.85-.57.14.05.15-.03.29-.11.41-.24.6.21.6.37,0,.05.01-.02.2-.07.15-.04.19-.08.09-.2-.24-.34-.52-1.36-.5-1.78s.31-.93.61-1.21c.12-.12.31-.25.53-.23.28.02.52.17.78.26.22.07.58.35.57.67-.01.27-.39.77-.7.74-.18-.01-.26-.12-.31-.21-.07.07-.15.13-.24.14-.02.08,0,.14,0,.22Z"/>
        <path class="cls-22" d="M134.7,514.91c-.68-.04-1.14-.1-1.29-.16-.36-.12-.5.41-.97-.15l-.08-.08c-.44-.55-.32-.71-.35-1.31-.04-.5-.12-1.01-.07-1.52.04-.4.13-2.53-.07-3-.1-.24-.22-.43.05-.62.2-.13.3-.27.57-.28.19,0,.25-.04.29-.19.08-.26.8-1.33,1.33-1.29.48.03.74.37,1,.72.28.37.4.75.4,1.14,0,.35-.1.99-.39,1.22-.09.07-.16.17-.06.22.67.27,1.08.37,1.58,1,.55.71.72,1.19.72,1.81s-.29,1.22-.66,1.65c-.37.45-1.26.9-2.01.86ZM134.38,510.75c-.48.13-.48-.43-.56-.52-.03-.03-.05-.05-.06-.08l-.04-.04c-.1-.1-.17-.22-.17-.37,0-.13.07-.24.16-.33l.08-.09c.23-.26.35-.59.47-.92.04-.11.05-.19.05-.28,0-.16.01-.36-.11-.38-.27-.04-.39.64-.59.73-.1.05-.16.61-.29,1.26-.12.61-.09.77,0,.91.2.29,0,1.73.11,1.86l.08.04c.21.14.5.4.34.68-.06.12-.15.22-.19.36-.02.08.06.03.15.03.23.02.55-.01.85,0,.54.03,1.01-.29,1.24-.53.21-.22.38-.68.38-1.04,0-.29-.16-.52-.72-.96-.51-.41-.93-.4-1.17-.33Z"/>
        <path class="cls-22" d="M141.28,510.33s.09.02.14.02c.23.01.65.27.83.39.19.13.55.4.54.84,0,.2-.06.82-.03,1,.06.26.72,1.5.96,1.7.22.17.6.43.59.74,0,.27-.29.6-.58.59s-.5-.36-.72-.51c-.51-.33-.35-.54-.63-.87-.22-.24-.27-.25-.41-.56,0-.01.04-.04.03-.04s-.12.03-.15.23c-.03.36-.29.44-.4.62-.09.15-.61.68-1.24.65-.42-.02-.68-.25-.97-.54-.29-.32-.22-.14-.32-.61-.12-.59-.23-.34-.23-1.04,0-.39.28-1.05.47-1.43.11-.21.8-1,1.13-1.04.04,0,.22,0,.23-.01.13-.2.33-.11.51-.06.07-.06.16-.08.23-.08ZM141.5,511.53s-.1.02-.14.02c-.05,0-.11.02-.17.02-.11,0-.16-.03-.29-.04-.01,0-.01.02-.03.02-.05.07-.1.13-.16.19-.07.14-.1.29-.29.33-.1.17-.16.5-.42.49-.15,0-.05.52-.06.76,0,.23-.04.58.23.59.34.02.66-.64.82-.93.17-.33.32-.87.37-1.06,0-.04.09-.26.14-.39Z"/>
        <path class="cls-22" d="M146.58,515.57c-.24-.01-.35-.12-.52-.25-.01-.01-.02-.01-.04-.01-.29.09-.87-.15-1.09-.51-.19-.3-.46-.94-.45-1.3.01-.68.62-2.41,1.32-2.6.26-.06.51-.21.79-.2.49.03,1,.45.99,1,0,.2-.18.46-.45.44-.19-.01-.41-.19-.48-.19-.36-.02-.67.93-.79,1.23-.08.22-.12.36-.12.43,0,.3-.02.45.35.51.28.05.35.09.57.22.04.03.1.03.14.03.35.02.5-.05.54-.09.32-.38,1.04.34.51.8-.22.19-.87.52-1.28.5Z"/>
        <path class="cls-22" d="M151.78,515.16c-.53-.12-.61-.56-.85-.57-.19,0-.53-.47-.6-.67-.02-.08-.04-.14-.05-.2-.02-.04.04-.09.01-.09-.08,0-.01.11-.02.21,0,.2.08.39.08.59,0,.17-.21.66-.5.64-.19,0-.73-.23-.72-.54,0-.39-.14-.78-.09-1.19.04-.32-.15-.78-.1-1.21.02-.2.01-.63,0-1.05,0-.43-.02-.88.04-1.08.08-.32-.02-.67-.01-1.01,0-.22.13-.72.58-.69.29.02.58.43.57.69,0,.18-.06,1.75-.07,2.14,0,.33-.17.94,0,.95.12,0,.63-.57.88-.62.16-.04.94-.86,1.24-.85.2.01.7.26.69.58,0,.1-.05.18-.11.24l-.04.04c-.07.08.02.18-.2.43-.2.23-.41.43-.67.55-.16.08-.24.19-.36.29-.12.09-.23.16-.23.34-.01.45,0,.25.26.5.12.11.21.23.36.27.21.05.36.17.53.25.02.01.03.03.05.03.18,0,.72.34.71.67,0,.26-.46.74-.68.73s-.47-.29-.7-.35Z"/>
        <path class="cls-22" d="M157.11,515.25c-.26-.15-.57-.52-.69-.79l-.13-.47c-.03-.08-.02-.17-.05-.18-.02,0-.18.22-.21.26-.12.17-.23.25-.4.35-.04.04-.11.07-.11.12-.05.29-.71.57-.88.56-.22-.01-.75-.42-.85-.72-.05-.18-.07-.37-.1-.56-.03-.14-.01-.27-.05-.29-.1-.08-.07-.77.05-1.13.07-.21.17-.33.27-.5.12-.19.11-.54.44-.52.2.01.61.27.6.54,0,.2-.15.43-.21.61-.07.21-.11.89.09.9.19,0,.31-.19.5-.18.03,0,.04-.08.06-.16.15-.31.25-.48.47-.75.13-.18.3-.31.41-.3.21.01.58.25.66.62.08.39.36.7.41,1.09.04.25.43.84.61,1.01.13.1.29.2.28.41-.01.26-.21.39-.42.38-.17,0-.54-.17-.76-.29Z"/>
        <path class="cls-22" d="M160.39,516.27l.02.79c0,.29.02.54.04.62.04.21.12.62.11.8-.01.23-.21.64-.58.62-.57-.02-.5-.26-.72-.67-.17-.33-.33-.57-.31-.98.01-.29-.08-.61-.12-.89-.07-.36-.11-.77,0-1.18.19-.76.21-1.79.15-1.91-.11-.23-.29-.57,0-.77.25-.17.4,0,.6,0,.02,0-.04-.04-.03-.06.13-.29.22-.27.46-.46.37-.28.66-.47,1.15-.44.29.02.95.31,1.14.6.03.04.09.16.14.18.28.13.13.56.12.78,0,.17-.11.74-.4,1.03-.23.23-.35.64-.73.62-.27-.01-.44.04-.72.03-.19,0-.4-.07-.53-.16.07.48.2.99.22,1.46ZM160.17,513.89c.15-.11.38-.07.55-.06.21.01.31-.08.44-.21.11-.1.22-.29.22-.39,0-.13-.08-.31-.24-.32s-.5.21-.65.36c-.14.16-.33.47-.34.61h0Z"/>
        <path class="cls-22" d="M121.91,525.03c-.01-.46.66-1.45,1.22-1.93.57-.47,1.61-1,1.88-.99.32.01.45.33.65.55.08.09.13.18.13.27,0,.11-.22.61-.51.6-.11,0-.17-.06-.27-.11-.21.13-.35.36-.58.48-.18.08-.62.41-.81.65-.22.27-.36.53-.36.63,0,.11.08.05.46.04.56-.02.74.11,1.15.38.35.23.78.67.54,1.04-.25.36-.67.76-.98,1.1-.2.22-.46.51-.45.82,0,.18.13.16.38.17.39,0,1.65,0,1.94-.13.52-.22.89.18.56.5-.21.2-.53.51-.99.62-.44.1-1.23.18-1.69.17-.49-.01-1.38-.51-1.41-1.09-.02-.32-.26-.2-.19-.72.06-.38.28-.6.53-.85.12-.13.17-.28.31-.41l.37-.31c-.71-.11-1.85-.62-1.87-1.46Z"/>
        <path class="cls-22" d="M129.6,527.58c.07-.12.13-.27.22-.36.13-.17.17-.55.4-.69.02-.01.12-.54.39-.59.02,0-.04-.05-.03-.09.01-.16.05-.37.27-.39.15-.02.13-.33.36-.37.35-.06.53-.45.83.07.1.19.4.18.4.5,0,.2-.17.67-.5.66-.01,0-.27.3-.34.36-.05.27-.23.23-.31.45-.13.35-.11.27-.37.55-.04.05-.12.07-.12.11.06.21-.11.44-.29.49.02,0,.04.01.05.01v.06c-.02.07-.06.16-.13.2h0c-.06.29-.37.41-.37.52,0,.23-.24.42-.49.42-.27,0-.75-.32-.88-.76-.1-.34-.32-.4-.38-.88-.06-.44-.2-.86-.25-.92-.15-.18-.11-.64-.15-.71-.13-.14-.14-.89.33-.88.21,0,.69.18.73.45h.02s.05.05.05.05c.37.32-.02.48.12.82.1.25.3.47.33.75l.03.31s.04-.1.07-.15Z"/>
        <path class="cls-22" d="M136.47,529.57c-.23.1-.53.19-.97.18-.86-.02-1.17-.13-1.72-.68-.59-.61-.91-1.22-.71-1.35.05-.04,0-.15-.01-.28-.03-.22-.06-.45-.06-.62,0-.37.34-1.17.75-1.42.37-.23,1.25-.5,1.53-.49.6.02.79.21.99.57.24.46.23.76.11,1.21-.1.34-.34.34-.52.59-.18.27-.32.42-.57.65-.18.17-.38.31-.51.31-.04,0-.07,0-.05.02.15.15.29.3,1.03.31.12,0,.41.02.53-.08l.02-.02c.07-.07.16-.11.27-.1.19,0,.77-.08.77.25,0,.18-.13.45-.4.64-.16.1-.29.22-.47.31ZM134.3,527.02c.12-.25.42-.43.59-.65.02-.04.06-.06.1-.09h-.09c-.07,0-.12,0-.38.26-.22.21-.31.35-.33.6.05-.04.09-.07.11-.11Z"/>
        <path class="cls-22" d="M140.08,525.59c.37-.06.39-.22.88-.2.25,0,.61.43.6.65,0,.18-.28.35-.55.35-.4-.01-.62.16-.9.41-.16.16-.18.25-.3.41-.08.12-.15.17-.15.32,0,.32-.02.67.04.99.07.34-.08.91-.53.9-.52-.01-.77-.5-.81-.92l-.02-.31c-.01-.13.05-.25.03-.26-.16-.05-.21-.51-.08-.76.06-.13-.01-.38-.07-.57-.08-.33-.1-.94.44-.92.12,0,.49.1.54.35.3-.22.53-.35.89-.42Z"/>
        <path class="cls-22" d="M144.66,532.15c.05-.16.1-.6.11-1.13s-.09-1.87-.18-2.06c-.08-.17-.09-.47-.11-.65,0-.13.12-.25.07-.25-.18,0-.51.73-1,.79-.13.12-.25.29-.45.29-.25,0-.49-.26-.58-.29-.2-.04-.44-.5-.44-.79,0-.25-.07-.85-.07-1.08,0-.29.11-.96.25-1.04l.02-.06c.05-.11.16-.19.34-.18s.28.14.38.16c.23.05.34.42.34.6,0,.17-.12.77-.12.98,0,.13-.1.28,0,.29.3,0,1-.96,1.08-1.23.07-.2.34-.28.44-.28.15,0,.36.24.41.24.16,0,.36.33.35.82,0,.27-.04.45.03.51.09.07.27.74.26,1.05,0,.26.17,1.67.16,2.05,0,.19-.02.4-.02.58,0,.09-.05.16-.04.18.08.06.14.54.13.99,0,.39-.01.67-.3.92-.07.06-.16.11-.28.11-.22,0-.33-.21-.39-.23-.16-.05-.27-.4-.34-.57h.03c-.09-.08-.16-.48-.09-.72Z"/>
        <path class="cls-22" d="M149.2,528.39c-.01.44-.14.85-.28,1.02-.13.17-.33.36-.55.35-.35,0-.45-.21-.65-.44-.01-.01-.01-.02-.02-.02l-.02-.04c-.08-.07-.14-.14-.13-.26,0-.2.22-.35.35-.48.1-.1.11-.55.11-.95,0-.23.01-.49,0-.7,0-.12.09-.21.04-.21-.27,0-.23.17-.64,0-.22-.09-.42-.2-.41-.49,0-.38.2-.66.42-.66.07,0,.26.06.42.06.06,0,.13.06.13,0,0-.3-.06-.84-.06-1.04,0-.25.19-1.11.49-1.1.26,0,.55.11.62.38.04.16.15.52.14.82l-.02.82s.06.01.09.01c.18-.02.37.12.56.14.17.02.33.08.51.16.08.03.14.09.18.06.2-.11.81.05.8.43,0,.34-.66.46-.91.46-.12,0-.24-.02-.39-.07-.41-.15-.44.23-.85.01.01.35.08,1.37.07,1.73Z"/>
        <path class="cls-22" d="M156.21,529.63c-.19,0-.36-.22-.53-.3-.3-.17-.28-.41-.43-.59-.18-.18-.14-.59-.28-.69-.11-.1-.32-.36-.44-.36-.34,0-.62.59-.77.86-.07.15-.11.26-.11.33,0,.3-.12.73-.33.79-.14.04-.17.17-.4.17s-.67-.14-.66-.54c0-.14-.1-.55-.14-.7-.07-.32-.15-.7-.17-.99,0-.54-.24-2.77-.28-3.21-.03-.44,0-.95,0-1.14.01-.36.51-.47.62-.47.37.01.56.58.55.79,0,.31-.09.61-.06.92,0,.17.09.74.17,1.3.06.55.14,1.14.13,1.27-.03.18-.17.73-.09.73.02,0,.01-.06.03-.09.2-.31.39-.59.66-.84.22-.22.55-.45.91-.44.64.02,1.1.51,1.2.84.08.25.25.36.27.65.03.35.75,1.03.74,1.43,0,.22-.2.27-.29.3-.09.02-.18,0-.27,0Z"/>
        <path class="cls-22" d="M159.02,524.17c-.02.44-.35.77-.61.76s-.36-.25-.54-.35c-.14-.09-.41-.32-.4-.59,0-.22.26-.61.53-.6.18,0,.53.11.63.33.24.03.39.15.38.45ZM158.26,529.75c-.26,0-.55-.24-.53-.72.02-.38-.06-1.01-.09-1.31-.02-.13.02-.76-.02-.83-.07-.13-.14-.28-.13-.43,0-.09.17-.58.47-.57.17,0,.66.19.64.56,0,.19-.04.6.03.8.07.22.14.63.13.87s.24.69,0,.85c-.08.07-.07.38-.08.49,0,.23-.15.31-.43.3Z"/>
        <path class="cls-22" d="M161.93,526.83c.21-.11.31-.32.59-.31.14,0,.33-.19.51-.18.19,0,.52.29.72.33.3.05.66.54.76.87.14.46.12,1.06.44,1.4.09.09.21.19.2.34-.01.22-.49.77-.74.76-.18,0-.68-.2-.66-.63.01-.26-.13-.82-.19-1.11-.04-.14-.29-.68-.48-.76-.1-.04-.54.22-.63.27-.14.09-.25.19-.34.34-.2.31-.42.74-.39.9.09.42-.23.33-.38.56l-.04.05c-.07.1-.14.17-.27.17-.25,0-.71-.78-.7-1.01,0-.17.05-1.17-.05-1.42-.13-.35-.15-1.11.4-1.1.23,0,.69.18.67.71l-.02.38c.19-.26.31-.41.58-.55Z"/>
        <path class="cls-22" d="M169.68,532.14c-.03.42-.25.64-.44.97-.12.2-.28.29-.5.34-.41.08-.91.24-1.33.24-.31,0-.97-.05-1.48-.5-.24-.21-.33-.33-.41-.63-.23-.2-.15-.65-.08-.81.1-.18.62-.59.84-.27l.09.12.04.03c.1.13.08.25.02.42-.06.17.05.16.38.32.42.2.34.12.76.13,1.06.02,1.41-1.08,1.46-1.99.03-.48,0-.7-.04-.76-.06-.09-.08-.35-.1-.47-.02-.09.03-.2-.02-.21-.06,0-.1.2-.11.26-.05.17-.15.27-.23.35l-.05.04s-.05.06-.06.1c-.09.28-.5.58-.88.57-.36,0-.88-.11-1.25-.73-.33-.58-.39-.72-.35-1.36s.52-1.34.81-1.58c.25-.2.76-.56,1.19-.54.47.01.79.28,1.15.52.19.13.26.28.25.52-.02.3.24.74.34,1,.14.46.46,1.4.4,2.36-.03.47-.14.82-.23,1.09-.03.07-.17.39-.18.46ZM167.38,527.75c-.14.18-.33.7-.35.94s.16.26.25.42c.05.1.08.13.21.13.11,0,.16-.04.22-.13l.02-.06c.08-.12.26-.26.27-.42.01-.19.17-.36.19-.65.01-.24,0-.62-.21-.62-.08,0-.49.21-.61.39Z"/>
      </g>
      <g>
        <path class="cls-22" d="M1253.54,172.23l.12-.04h.25s.72-.84.72-.84c.22-.65.21-1.25-.04-1.81l-.71-.65-1.04-.21-1.71.71c.1-.47.18-.93.23-1.39l.83-3.1c.65.13,1.32.1,2-.1l.63-.75c.22-.62.21-1.19,0-1.7l-.7-.68c-1.89-.41-3.74-.69-5.54-.82-1.8-.13-3.6-.24-5.39-.32l-.75.82c-.23.67-.21,1.26.05,1.78l.63.67c.56.2.99.25,1.3.14l.09.06c-.62,1.32-1.37,2.78-2.27,4.37-.8,1.42-1.67,2.76-2.58,4.05.48.2.9.52,1.17.98.38.66.41,1.49.2,2.21.26-.03.53-.1.8-.21,1.46-1.75,2.7-3.55,3.72-5.41,1.02-1.86,1.92-3.71,2.7-5.55l.32-.02-.86,3.2c-.09.87-.27,1.8-.54,2.79-.27.99-.37,2.01-.3,3.07.33.42.74.72,1.21.89.68.18,1.35.15,2-.1l.35-.37.13.04.47-.58.8-.1.04-.13.22-.05.2.05.08-.3.24-.11.14-.14.36-.04.4-.32Z"/>
        <path class="cls-22" d="M1248.72,157.19c.96.21,1.95.38,2.97.52,1.02.13,2.08.21,3.16.21l.69-.73c.3-.7.3-1.34,0-1.95l-.7-.68c-1.14-.21-2.22-.39-3.24-.52-1.01-.13-2.1-.22-3.27-.28l-.75.82c-.22.65-.21,1.23.03,1.74.29.41.66.7,1.11.86Z"/>
        <path class="cls-22" d="M1267.32,182.62l-.02-.32-.39-.64-.31-.3.08-.3-.13-.04.04-.13-.3-.08.04-.13-.35-.52-.23-.06.07-.26-.35-.66-.67-.67c-.7-.28-1.35-.29-1.94-.03-.36.3-.63.68-.8,1.13-.09.52-.06,1.01.1,1.48l.26.49c.29.24.51.62.65,1.13l.07.02v.17s1.01,1.44,1.01,1.44c.3.46.7.78,1.19.96.47.08.96.01,1.47-.21l.6-.65c.22-.63.21-1.19,0-1.7l-.07-.13Z"/>
        <path class="cls-22" d="M1270.6,160.71l-1.88-.51c-.44-.12-.91-.16-1.41-.13l.7-1.15v-.61c.8.22,1.68.42,2.62.6.41.08.83.13,1.25.15-.48-.43-.94-.88-1.37-1.33-.87-.92-1.67-1.91-2.42-2.94-.55-.06-1.1-.12-1.64-.16-2.38-.17-4.84-.42-7.36-.75l-.75.82c-.23.67-.22,1.26.02,1.77.29.41.65.69,1.08.86.96.3,1.89.5,2.81.58.62.05,1.32.07,2.1.07l-.21.4-.5.04-.04.17h-.03s-.38.21-.38.21c-.42.24-.7.5-.84.76-.45-.17-.99-.15-1.61.06l-.88.5c-.45.35-.8.78-1.05,1.27l-1.46,5.44c-.12.46-.32.92-.58,1.36l-.76,2.83c-.07.59-.19,1.23-.37,1.9-.18.67-.16,1.39.06,2.15l.73.69.81.15.92.53c.71,0,1.37.03,1.99.08.62.05,1.2.08,1.75.08l1.88.51.13.32.7.68c.67.23,1.27.21,1.81-.04.51-.59.91-1.24,1.19-1.94l1.35-5.01.48-1,1.31-4.88h.08c.49-1.32.67-2.6.54-3.86l-.73-.69ZM1264.52,173.6c-.71-.24-1.58-.44-2.6-.59-.79-.12-1.69-.16-2.69-.12l.25-1.17c.06-.31.13-.62.22-.93.04.13.09.25.15.36.29.41.66.7,1.11.86.71.1,1.4.21,2.1.35.56.1,1.16.12,1.79.06l-.32,1.19ZM1266.07,168.61l-.46,1.04-.47-.48c-.8-.26-1.56-.44-2.29-.55-.73-.1-1.51-.08-2.35.07l-.09.08c.09-.24.18-.48.27-.74l.3-1.12c.29.41.66.7,1.11.87.62.07,1.24.16,1.86.25.62.1,1.3.05,2.03-.12l.4-.42-.3,1.12ZM1267.29,164.09l-.51,1.88c-.05-.18-.11-.35-.18-.51l-.67-.67c-.74-.24-1.45-.4-2.14-.47-.71-.07-1.43-.02-2.16.16l.35-1.29c.75.09,1.64.16,2.66.22.98.05,1.92.1,2.82.16l-.18.52Z"/>
        <path class="cls-22" d="M1258.7,176.95c-.69-.23-1.32-.21-1.89.06l-.94.6-2.07.72-.1-.03-.76.86c-.23.67-.22,1.26.02,1.77.3.36.69.63,1.16.81,1.1.04,2.2-.23,3.29-.81l.3-.2.74-.37.33-.16.65-.71c.22-.65.21-1.26-.03-1.85l-.7-.68Z"/>
        <path class="cls-22" d="M1281.59,170.17c.78.33,1.76.37,2.94.12.21-.27.5-.45.85-.55.76-.71,1.31-1.53,1.65-2.44.34-.91.73-1.74,1.17-2.5.39-.93.46-1.81.21-2.63l-.73-.69c-1.03-.28-2.03-.45-3-.53-.97-.07-1.98-.01-3.02.18l-.69.73c-.23.67-.22,1.26.02,1.77.29.41.66.7,1.11.86.71.07,1.44.09,2.18.06-.13.3-.28.64-.46,1.04-.26.52-.45.93-.58,1.22l-2.83-.76-.98.23-.7.77-.12.71c-.23.67-.53,1.31-.91,1.93-.38.62-.74,1.29-1.08,2.03-.43,1.16-.57,2.34-.43,3.56.32.39.7.67,1.15.84.78.16,1.47.11,2.06-.15l1.52.41c-.33,1.21-.79,2.55-1.41,4.04-.51,1.21-1.13,2.35-1.84,3.43l-.05-.19-.17-.04.03-.1-.27-.57-.3-.58-.71-.65c-.65-.22-1.26-.21-1.85.03l-.68.7c-.23.67-.22,1.25.03,1.74l.82,1.95-.07.26.26.07c.6.66,1.29,1.2,2.07,1.62.67.23,1.31.22,1.91-.02,1.27-1.21,2.29-2.56,3.07-4.03.77-1.48,1.45-3.02,2.02-4.63l.76-2.83c.17-.8.13-1.64-.1-2.5l-.73-.69-3.36-.91c.08-.21.3-.57.64-1.08.35-.51.55-.92.61-1.23Z"/>
        <path class="cls-22" d="M1294.77,169.78c.82-.46,1.66-.88,2.49-1.3.75-.38,1.59-.18,2.05.54.42.65.17,1.7-.54,2.05-.03.02-.06.03-.09.05.69.08,1.41.02,2.14-.18l.72-.72c.22-.65.19-1.24-.08-1.79l-.64-.63c-.77-.21-1.48-.3-2.15-.29l-1.65-.44.37-.71c.58.04,1.31.13,2.19.27l1.18.46c.58.2,1.13.18,1.65-.09l.67-.67c.28-.7.28-1.35,0-1.95l-.67-.67-1.11-.23-.18-.12c-.98-.22-1.94-.38-2.89-.5s-1.92-.2-2.92-.26c-.45.35-.76.75-.92,1.2l-.76,2.83-.31,1.68c-.12.63-.33,1.21-.61,1.74l-.19.97-.08.29c.74-.56,1.51-1.08,2.32-1.54Z"/>
        <path class="cls-22" d="M1301.94,190.71h-.03s.04-.17.04-.17c-.39-.32-.63-.72-.73-1.22l-.43-.5.08-.3-.3-.08-.09-.31-.45-.44-.22-.48-.39-.53-.11-.24-.23-.34h-.03s1.14-.3,1.14-.3l.04-.17.07.02.17-.1.43-.27.52-.11.68-.7c.28-.7.29-1.37.01-2.01l-.69-.61c-.7-.28-1.35-.32-1.95-.1l-.54.28-1.04.57-.02.07-.64.15-.06-.05-.52-.71-.42-.79-.73-.58c-.67-.23-1.26-.21-1.78.05l-.68.7c-.26.8-.23,1.52.09,2.15.56.53.97,1.16,1.22,1.88.37.38.6.88.69,1.5l.1.03.47.73.47.48-.03.1.45.55-.02.07.89,1.41.64,1.3.21.41.58.47v.31c.34.45.74.76,1.19.92.47.08.96.01,1.47-.21l.68-.7c.23-.67.22-1.25-.03-1.74l-.22-.38Z"/>
        <path class="cls-22" d="M1304.23,178.53c-.59-.42-1.23-.81-1.91-1.19-1.12-.11-2.24-.27-3.34-.47l-3.33-.62-.63-.17c.11-.32.17-.75.17-1.3.47.17,1.11.33,1.92.48.81.15,1.64.12,2.49-.07l.66-.74c.23-.67.22-1.27,0-1.8l-.71-.65c-.72-.29-1.34-.36-1.85-.21l-.22-.06c-1.19.62-2.35,1.28-3.42,2.09l.23-.18c-.33.26-.64.42-1.06.44-.4.02-.77-.18-1.06-.44-.1-.09-.18-.22-.25-.35l-.24.91v1.42c-.59-.16-1.23-.32-1.91-.48-.78-.18-1.56-.2-2.36-.04l-.69.73c-.23.67-.22,1.26.02,1.77.25.4.59.68,1.04.85l.61.09.4.11-1,3.72c-.33.71-.62,1.46-.86,2.26-.24.79-.5,1.56-.79,2.28-.34.92-.35,1.82-.02,2.68.28.43.66.72,1.11.87.68.18,1.35.15,2-.1l.09-.08c.95-.19,2.08-.44,3.38-.75l.04-.13.77-.25.69-.73c.23-.67.21-1.26-.05-1.78l-.71-.65c-.85-.25-1.56-.24-2.13.03-.33.17-.72.3-1.17.39l.37-1.1c.2-.56.42-1.11.66-1.66l1.15-4.25c1.18.08,2.47.29,3.88.62,1.41.33,2.81.57,4.21.71l.64.38c.84.27,1.68.29,2.5.04l.69-.73c.21-.67.2-1.3-.02-1.88Z"/>
        <path class="cls-22" d="M1334.79,180.45c-.05-.29-.14-.56-.25-.83-.12-.27-.29-.49-.53-.66-.24-.17-.49-.28-.76-.33-.59.08-1.12.18-1.6.31-.48.13-.94.27-1.37.41-.43.14-.95.38-1.55.71-.61.33-1.07.56-1.39.69-.32.13-.67.25-1.05.37-.39.12-.86.28-1.44.48-.18.05-.48.13-.92.25.36-.3.64-.5.83-.59.57-.29,1.03-.57,1.36-.84.33-.26.54-.57.64-.92.07-.26.11-.55.11-.86,0-.31-.09-.58-.26-.81s-.37-.43-.59-.58-.47-.26-.76-.31l-1.52.12.08-.3c.08-.31.11-.59.07-.86-.03-.27-.13-.54-.28-.8-.15-.26-.33-.47-.54-.61-.21-.14-.44-.24-.68-.31-.44-.12-.85-.14-1.24-.07s-.69.25-.92.53c-.23.28-.41.59-.55.93s-.23.71-.26,1.1l-.13.6c-.09,0-.24,0-.45.02-.21.02-.47.03-.8.03-.33,0-.6,0-.82,0-.21,0-.55.04-1.02.1-.47.06-.93.19-1.41.36s-.8.62-.99,1.32c-.07.26-.09.53-.06.8.03.27.12.53.27.78.14.25.31.45.51.6.2.15.46.26.79.35l2.71.06c-.22.03-.37.04-.43.03-.07-.02-.18.07-.34.26-.16.19-.32.37-.48.54-.16.17-.31.3-.45.41-.13.11-.33.25-.58.45s-.46.34-.63.45c-.17.11-.34.21-.52.3-.18.09-.36.22-.54.38-.18.16-.34.33-.45.5-.12.17-.24.34-.38.5-.14.16-.32.36-.53.6s-.38.39-.49.45c-.11.06-.31.2-.59.41-.28.21-.5.39-.66.55-.16.16-.32.34-.49.56-.16.22-.29.48-.37.78-.13.48-.06.99.21,1.52.27.53.72.88,1.36,1.06.31.08.65.07,1.01-.03.37-.1.7-.26,1-.49.26-.09.55-.19.87-.29.32-.1.61-.22.86-.37.2-.11.49-.3.9-.57l-.24,1.03-.83,2.71c-.15.22-.27.52-.35.91-.08.39-.06.75.06,1.08.12.33.31.63.55.91.24.28.57.47.99.58.26.07.54.09.81.06.28-.03.55-.11.8-.23s.47-.3.66-.53c.18-.23.3-.47.37-.71l.18-1.05.81-2.61.45-1.93.82-2.5.79-.29c.1-.12.22-.23.36-.31-.09-.81.38-1.7,1.43-1.7.68,0,1.12.38,1.32.86l2.66-.99-1.86,5.19c-.38.87-.53,1.75-.45,2.67.07.92.3,1.79.68,2.64.38.85.94,1.59,1.68,2.24.73.65,1.58,1.1,2.55,1.36.59.16,1.16.11,1.7-.14s.89-.67,1.04-1.24c.14-.53.14-.97,0-1.35-.15-.37-.36-.66-.63-.86-.28-.2-.61-.4-1.01-.59-.4-.19-.75-.38-1.05-.56-.3-.19-.51-.56-.62-1.12-.11-.56-.08-1.16.09-1.79.07-.26.14-.53.21-.79.07-.26.17-.58.29-.95.12-.37.24-.68.36-.95.12-.26.23-.52.33-.76.1-.24.21-.58.33-1.01s.21-.75.3-.98c.08-.23.19-.49.32-.8.13-.31.27-.57.42-.79.15-.22.31-.43.47-.63s.38-.46.66-.76c.28-.3.5-.58.65-.85.15-.26.27-.53.34-.79.09-.33.11-.64.05-.92Z"/>
        <path class="cls-22" d="M1350.44,190.27l.65-3.08c.37-.66.71-1.42,1.04-2.3.33-.88.6-1.7.81-2.47.18-.68.15-1.28-.1-1.79-.25-.52-.65-.85-1.2-1-.57-.15-1.07-.11-1.48.13-.42.24-.72.53-.9.85-.18.33-.31.59-.39.78-.08.19-.15.44-.23.73-.08.3-.15.54-.2.74-.05.2-.11.37-.17.5-.06.14-.16.34-.31.61s-.25.49-.33.65c-.08.17-.16.37-.25.6s-.14.52-.16.84l-1.48,6.74c1.43-1.1,3.04-1.88,4.7-2.55Z"/>
        <path class="cls-22" d="M1345.83,200.3c-.72-.2-1.39-.05-2.01.43-.61.48-1.03,1.13-1.25,1.94-.18.68-.12,1.29.18,1.82.3.53.81.89,1.51,1.08.83.22,1.53.13,2.09-.29.56-.42.94-1.01,1.15-1.78.21-.79.13-1.48-.24-2.08-.37-.59-.85-.97-1.45-1.13Z"/>
        <path class="cls-22" d="M1348.5,194.52c-.19.11-.37.23-.55.36-.08.05-.16.11-.23.16-.03.02-.03.02-.03.02-.01.01-.02.02-.05.04-.63.51-1.5.63-2.12,0-.09-.09-.17-.21-.24-.33l-.21.59c-.09.24-.15.53-.2.87-.04.34-.01.68.1,1.02.11.34.26.64.45.9.19.26.49.45.91.56.42.11.81.07,1.18-.12.37-.19.66-.47.88-.82.21-.36.39-.69.52-1.01.13-.32.27-.7.42-1.16l.36-1.71c-.4.2-.8.42-1.18.65Z"/>
      </g>
    </g>
    <polygon class="cls-6" points="1191.36 687.95 244.37 687.95 244.37 696.87 232.03 696.87 232.03 733.01 1179.02 733.01 1179.02 724.09 1191.36 724.09 1191.36 687.95"/>
  </g>
</svg>