<svg xmlns="http://www.w3.org/2000/svg" width="224.261" height="173.432" viewBox="0 0 224.261 173.432">
  <path id="Path_231" data-name="Path 231" d="M236.8,109.239a29.012,29.012,0,0,0,3.426-13.594c0-18.5-17.776-33.516-39.816-33.516a46.889,46.889,0,0,0-9.883,1.041V62.128c0-18.494-17.822-33.5-39.807-33.5s-39.789,15.022-39.789,33.5V63.16C93.7,66.844,80.946,79.978,80.946,95.626h0c-21.985,0-39.816,14.994-39.816,33.5,0,15.308,12.222,28.211,28.893,32.236,2.763,16.229,19.342,28.7,39.4,28.7A44.422,44.422,0,0,0,135,182.231a44.366,44.366,0,0,0,25.568,7.829c17.5,0,32.337-9.487,37.679-22.676a46.291,46.291,0,0,0,15.326,2.57c21.985,0,39.816-14.994,39.816-33.5C253.419,125.237,246.861,115.318,236.8,109.239Z" transform="translate(-35.13 -22.63)" fill="#fff" stroke="#011936" stroke-width="12"/>
</svg>
