<?xml version="1.0" encoding="UTF-8"?>
<svg id="Layer_2" data-name="Layer 2" xmlns="http://www.w3.org/2000/svg" xmlns:xlink="http://www.w3.org/1999/xlink" viewBox="0 0 159.32 99.13">
  <defs>
    <radialGradient id="radial-gradient" cx="80.44" cy="40.62" fx="80.44" fy="40.62" r="99.19" gradientTransform="translate(0 86.1) scale(1 -.73)" gradientUnits="userSpaceOnUse">
      <stop offset="0" stop-color="#fff"/>
      <stop offset=".28" stop-color="#f9fcfd"/>
      <stop offset=".66" stop-color="#e8f4f6"/>
      <stop offset="1" stop-color="#d3eaed"/>
    </radialGradient>
  </defs>
  <g id="Layer_1-2" data-name="Layer 1">
    <path d="M139.1,38.47c.18-1.08.27-2.19.27-3.31,0-12.56-10.38-23.67-24.32-23.67-7.07,0-13.46,3.55-18.04,7.76-2.69-10.27-11.66-18.75-22.33-18.75-11.72,0-21.4,9.12-22.93,20.94-2.24-.97-4.69-1.52-7.27-1.52-8.48,0-14.73,7.67-17.16,15.71-1.05-.15-2.12-.23-3.2-.23C11.58,35.4.5,43.71.5,56.24s10.15,22.68,22.68,22.68c2.91,0,5.69-.55,8.25-1.55,1.72,8.44,9.19,14.79,18.14,14.79,4.51,0,8.64-1.62,11.85-4.29,4.51,6.51,12.03,10.77,20.55,10.77,9.05,0,16.99-4.82,21.37-12.02,3.9,3.45,9.02,5.54,14.64,5.54,10.34,0,17.11-8,19.54-17.59.13,0,20.37,1.85,21.29-18.05.48-10.41-9.32-17.94-19.71-18.04Z" style="fill: url(#radial-gradient); stroke: #fff; stroke-miterlimit: 10;"/>
  </g>
</svg>