<?xml version="1.0" encoding="UTF-8"?>
<svg id="Layer_2" data-name="Layer 2" xmlns="http://www.w3.org/2000/svg" xmlns:xlink="http://www.w3.org/1999/xlink" viewBox="0 0 157.57 95.23">
  <defs>
    <radialGradient id="radial-gradient" cx="85.05" cy="-203.1" fx="85.05" fy="-203.1" r="90.1" gradientTransform="translate(0 -85.67) scale(1 -.71)" gradientUnits="userSpaceOnUse">
      <stop offset="0" stop-color="#fff"/>
      <stop offset=".41" stop-color="#fdfefe"/>
      <stop offset=".64" stop-color="#f4fafb"/>
      <stop offset=".84" stop-color="#e6f3f5"/>
      <stop offset="1" stop-color="#d3eaed"/>
    </radialGradient>
  </defs>
  <g id="Layer_1-2" data-name="Layer 1">
    <path d="M137.11,36.31c-1.39,0-2.74.14-4.05.41-2.84-5.78-8.77-9.77-15.65-9.77-.27,0-.53.03-.79.04-1.15-9.31-9.91-16.55-20.55-16.55-4.96,0-9.51,1.57-13.07,4.2C76.98,6.07,67.29.5,56.35.5c-17.34,0-31.55,13.99-32.91,31.78-1.23-.25-2.5-.38-3.81-.38C9.07,31.9.5,40.47.5,51.03s7.77,18.29,17.64,19.06c2.09,11.59,12.29,20.39,24.55,20.39,7.1,0,13.51-2.95,18.05-7.69,3.19,3.5,7.77,5.71,12.88,5.71,3.85,0,7.4-1.27,10.29-3.38,5.11,5.91,12.5,9.61,20.72,9.61,12.15,0,22.49-8.12,26.35-19.46,1.93.62,3.98.96,6.12.96,11.02,0,19.96-8.94,19.96-19.96,0-11.03-8.94-19.96-19.96-19.96Z" style="fill: url(#radial-gradient); stroke: #fff; stroke-miterlimit: 10;"/>
  </g>
</svg>