<?xml version="1.0" encoding="UTF-8"?>
<svg id="Layer_2" data-name="Layer 2" xmlns="http://www.w3.org/2000/svg" xmlns:xlink="http://www.w3.org/1999/xlink" viewBox="0 0 161.51 97.45">
  <defs>
    <radialGradient id="radial-gradient" cx="73.95" cy="922.13" fx="73.95" fy="922.13" r="105.31" gradientTransform="translate(143.84 -679.75) rotate(179.77) scale(1 -.81)" gradientUnits="userSpaceOnUse">
      <stop offset="0" stop-color="#fff"/>
      <stop offset=".31" stop-color="#fbfdfd"/>
      <stop offset=".6" stop-color="#f0f8f9"/>
      <stop offset=".88" stop-color="#ddeff1"/>
      <stop offset="1" stop-color="#d3eaed"/>
    </radialGradient>
  </defs>
  <g id="Layer_1-2" data-name="Layer 1">
    <g>
      <g style="opacity: .7;">
        <path d="M161.02,58.04c0-10.39-8.42-18.8-18.8-18.8-2.96,0-5.76.71-8.25,1.93.3-1.51.45-3.08.45-4.68,0-13.42-10.88-24.31-24.31-24.31-6.62,0-12.62,2.65-17.01,6.95C87.43,7.92,75.82.25,62.42.25,44.76.25,30.22,13.56,28.25,30.69c-1.69-.41-3.46-.63-5.28-.63C10.56,30.06.5,40.12.5,52.53c0,10.19,9.17,18.8,20.18,18.8-1.83,10.09,7.74,22.67,19.26,22.67,6.03,0,11.53-2.35,15.73-6.21,2.56,5.56,7.98,9.4,14.27,9.4,6.97,0,12.87-4.71,15-11.25,2.53,2.31,5.88,3.73,9.57,3.73,4.96,0,9.31-2.54,11.86-6.38,4.11,4.49,10.01,7.3,16.58,7.3,9.35,0,16.05-8.25,16.05-17.43,11.01,2.75,22.01-5.25,22.01-15.14Z" style="fill: #fff;"/>
        <path d="M161.46,57.79c-.04-6.34-3.26-12.34-8.6-15.79-2.58-1.67-5.57-2.69-8.64-2.94-1.96-.16-3.95-.01-5.87.44-1,.24-1.99.56-2.94.96-.17.07-.34.15-.51.22-.08.04-.17.08-.25.12-.27.21-.34.16-.2-.16-.07-.48.2-1.25.25-1.73.72-6.49-1.26-13.11-5.42-18.15-4-4.83-9.82-8-16.06-8.68-7.53-.82-15.14,2.05-20.55,7.3.29-.17.58-.33.87-.5C87.91,7.85,76.59.5,64.19.02c-11.04-.42-22.07,4.7-28.99,13.29-4.07,5.05-6.62,11.19-7.38,17.62.29-.17.58-.33.87-.5-7.86-1.84-16.24.71-21.96,6.38C1.11,42.38-1.68,51.34,1.21,58.91c1.42,3.71,4.06,6.89,7.35,9.1,1.7,1.15,3.56,2.04,5.52,2.64,1.01.31,2.03.54,3.07.7.53.08,1.06.14,1.6.18.33.02,1.4-.06,1.49.15.1.22-.15,1.08-.17,1.34-.04.45-.05.91-.04,1.36.01.92.11,1.84.28,2.75.35,1.92,1.02,3.77,1.9,5.51,1.8,3.53,4.55,6.61,7.9,8.75,3.56,2.27,7.61,3.19,11.81,2.75,4.12-.43,7.99-2.05,11.4-4.37.99-.67,1.92-1.41,2.8-2.21-.29.17-.58.33-.87.5,2.3,4.9,6.86,8.56,12.28,9.27,4.71.62,9.49-1.13,13.03-4.24,2.25-1.98,3.89-4.55,4.84-7.38-.29.17-.58.33-.87.5,3.58,3.21,8.55,4.49,13.22,3.25,3.61-.96,7-3.32,9.08-6.41-.29.17-.58.33-.87.5,4.54,4.91,11.4,7.91,18.15,7.22,5.2-.53,10.09-3.87,12.75-8.33,1.71-2.88,2.58-6.18,2.6-9.52-.29.17-.58.33-.87.5,4.37,1.06,8.99.52,12.99-1.54,3.32-1.71,6.29-4.09,8.12-7.4,1.13-2.06,1.74-4.35,1.76-6.7,0,.16-.86.32-.87.5-.03,3.65-1.53,7.08-3.97,9.76-2.7,2.96-6.31,4.73-10.27,5.26-2.31.31-4.64.17-6.9-.38-.07-.02-.87.46-.87.5-.03,5.37-2.32,10.71-6.56,14.09-4.69,3.75-11.49,3.38-16.81,1.3-3.2-1.25-6.06-3.24-8.39-5.76-.01-.01-.82.43-.87.5-1.05,1.56-2.36,2.9-3.92,3.95-1.61,1.09-3.67,1.65-5.58,1.85-4.05.43-8.05-.94-11.06-3.65-.02-.01-.85.44-.87.5-1.52,4.55-4.91,8.59-9.57,10.05-4.67,1.47-9.83.55-13.74-2.37-2.2-1.65-3.93-3.84-5.1-6.33,0,.01-.8.44-.87.5-6.39,5.82-16.22,7.68-23.82,3.11-6.06-3.64-10.74-10.74-10.52-17.97.01-.42.04-.84.09-1.25.02-.18.08-.39.08-.57,0-.05.07-.25.05-.29-.04-.06-.51,0-.58,0-.99-.03-1.99-.13-2.97-.29-1.9-.33-3.76-.92-5.5-1.76-3.38-1.62-6.33-4.17-8.34-7.34-4.1-6.46-3.38-14.82.55-21.2,1.96-3.17,4.8-6.08,8.14-7.78,3.58-1.81,7.63-2.62,11.63-2.35,1.27.09,2.53.29,3.77.58.07.02.86-.44.87-.5,1.3-10.99,8.09-21.47,18.13-26.42,10.42-5.14,23.11-4.56,33.02,1.48,5.47,3.33,9.92,8.17,12.83,13.87,0,0,.8-.44.87-.5,2.81-2.72,6.14-4.65,9.93-5.64,3.32-.88,6.82-1.04,10.2-.48,5.82.96,11.17,4.09,14.89,8.66,3.95,4.86,5.88,11.16,5.35,17.4-.04.49-.1.97-.17,1.46-.03.19-.06.38-.09.57-.02.1-.03.19-.05.29-.14.32-.08.38.2.16.4-.04.9-.4,1.28-.55.48-.19.97-.35,1.46-.5,1.85-.55,3.78-.8,5.71-.75,3.03.07,6.02.88,8.67,2.35,5.95,3.31,9.64,9.66,9.68,16.45,0-.16.86-.33.86-.5Z" style="fill: #e2e2e2;"/>
      </g>
      <g>
        <path d="M161.02,58.04c0-10.39-8.42-18.8-18.8-18.8-2.96,0-5.76.71-8.25,1.93.3-1.51.45-3.08.45-4.68,0-13.42-10.88-24.31-24.31-24.31-6.62,0-12.62,2.65-17.01,6.95C87.43,7.92,75.82.25,62.42.25,44.76.25,30.22,13.56,28.25,30.69c-1.69-.41-3.46-.63-5.28-.63C10.56,30.06.5,40.12.5,52.53c0,10.19,9.17,18.8,20.18,18.8-1.83,10.09,7.74,22.67,19.26,22.67,6.03,0,11.53-2.35,15.73-6.21,2.56,5.56,7.98,9.4,14.27,9.4,6.97,0,12.87-4.71,15-11.25,2.53,2.31,5.88,3.73,9.57,3.73,4.96,0,9.31-2.54,11.86-6.38,4.11,4.49,10.01,7.3,16.58,7.3,9.35,0,16.05-8.25,16.05-17.43,11.01,2.75,22.01-5.25,22.01-15.14Z" style="fill: url(#radial-gradient);"/>
        <path d="M161.51,58.14c-.03-4.91-1.91-9.65-5.33-13.18-3.33-3.45-7.93-5.55-12.71-5.89-3.42-.24-6.82.42-9.9,1.91.3.1.59.19.89.29,1.53-8.1-1.07-16.53-7.01-22.27-5.64-5.45-13.72-7.95-21.46-6.73-5.03.79-9.69,3.17-13.34,6.71.32.07.63.13.94.2C88.1,8.43,77.26,1.16,65.24.15c-11.52-.97-22.99,3.87-30.2,12.93-4,5.03-6.52,11.12-7.28,17.5.18-.03.35-.06.53-.09-9.66-2.26-19.94,1.79-25.08,10.36C.82,44.85-.41,49.71.12,54.36c.52,4.56,2.88,8.74,6.29,11.76,3.98,3.52,9.18,5.4,14.48,5.43-.23-.11-.47-.22-.7-.32-1.09,6.22,1.89,12.64,6.25,16.97,2.23,2.22,4.93,4,7.91,5.03,3.34,1.16,6.93,1.23,10.38.54,4.27-.85,8.19-2.91,11.4-5.83-.32-.07-.63-.13-.94-.2,2.19,4.67,6.39,8.19,11.46,9.29,5,1.09,10.28-.28,14.08-3.71,2.18-1.97,3.78-4.5,4.7-7.29-.31-.03-.62-.06-.93-.09,3.25,2.92,7.6,4.33,11.95,3.84,4.22-.48,8.02-2.84,10.39-6.35-.3-.05-.6-.09-.9-.14,4.42,4.77,10.72,7.53,17.23,7.51,5.77-.01,10.93-3.21,13.81-8.16,1.66-2.85,2.5-6.1,2.52-9.39-.18.03-.35.06-.53.09,7.94,1.93,17.04-1.39,20.93-8.81,1.04-1.99,1.6-4.18,1.61-6.42,0-.31-.98-.45-.98-.21-.06,7.87-6.82,14.03-14.26,15.31-2.41.42-4.85.31-7.22-.26-.08-.02-.53-.08-.53.09-.03,5.32-2.27,10.6-6.45,13.98-4.71,3.81-10.99,4.07-16.55,2.07-3.33-1.2-6.3-3.24-8.7-5.83-.13-.14-.76-.36-.9-.14-2.07,3.07-5.24,5.31-8.89,6.04-4.2.85-8.46-.4-11.63-3.25-.14-.13-.83-.39-.93-.09-1.48,4.44-4.74,8.21-9.11,10.01-4.65,1.92-9.96,1.29-14.03-1.67-2.24-1.63-3.99-3.85-5.17-6.35-.11-.24-.74-.38-.94-.2-5.18,4.71-12.99,7.59-19.92,5.46-5.85-1.8-10.61-6.7-12.92-12.29-1.22-2.96-1.76-6.21-1.21-9.39.04-.25-.56-.32-.7-.32-9.1-.05-17.74-6.6-19.26-15.76-1.45-8.73,3.46-17.82,11-22.14,4.84-2.78,10.57-3.6,16-2.32.1.02.51.08.53-.09,1.29-10.91,7.83-20.76,17.46-26.08,10.29-5.69,23.16-5.63,33.3.37,5.6,3.31,10.16,8.21,13.12,14,.12.23.74.39.94.2,6.11-5.92,15.11-8.37,23.32-5.93,6.99,2.08,12.72,7.45,15.38,14.22,1.68,4.29,2.06,8.97,1.21,13.49-.06.29.73.37.89.29,4.86-2.34,10.55-2.54,15.47-.26,4.03,1.87,7.3,5.23,9.1,9.29,1.06,2.38,1.58,4.95,1.6,7.56,0,.31.98.44.98.2Z" style="fill: #fff;"/>
      </g>
    </g>
  </g>
</svg>