<?xml version="1.0" encoding="UTF-8"?>
<svg id="Layer_1" xmlns="http://www.w3.org/2000/svg" version="1.1" viewBox="0 0 1500 1000">
  <!-- Generator: Adobe Illustrator 29.3.1, SVG Export Plug-In . SVG Version: 2.1.0 Build 151)  -->
  <defs>
    <style>
      .st0 {
        stroke-width: 5px;
      }

      .st0, .st1 {
        fill: #4a4b4c;
      }

      .st0, .st2, .st3, .st4 {
        stroke: #231f20;
        stroke-miterlimit: 10;
      }

      .st2 {
        fill: #1d1500;
      }

      .st2, .st4 {
        stroke-width: 2px;
      }

      .st5 {
        opacity: .4;
      }

      .st6 {
        fill: #808285;
      }

      .st7 {
        fill: #231f20;
      }

      .st3 {
        fill: none;
        stroke-width: 3px;
      }

      .st4 {
        fill: #e4c432;
      }

      .st8 {
        fill: #aaacae;
      }
    </style>
  </defs>
  <g id="Layer_2">
    <g class="st5">
      <rect class="st7" x="94" y="774.7" width="134.5" height="258.8"/>
      <path class="st7" d="M229,1034H93.4v-259.8h135.5v259.8h0ZM94.5,1033h133.5v-257.8H94.5v257.8Z"/>
      <rect class="st7" x="446.1" y="773.2" width="62.4" height="258.8"/>
      <path class="st7" d="M508.9,1032.5h-63.4v-259.8h63.4v259.8ZM446.6,1031.5h61.4v-257.8h-61.4v257.8Z"/>
      <rect class="st7" x="869.2" y="705.9" width="134.5" height="289.8"/>
      <path class="st7" d="M1004.3,996.2h-135.5v-290.8h135.5v290.8h0ZM869.8,995.2h133.5v-288.8h-133.5v288.8h0Z"/>
      <polygon class="st7" points="819.7 1033.7 625.5 1033.7 625.5 598.6 722.7 506.4 819.7 598.6 819.7 1033.7"/>
      <path class="st7" d="M820.2,1034.2h-195.3v-435.8l.2-.2,97.6-92.5,97.5,92.7v435.8h0ZM626,1033.2h193.3v-434.3l-96.5-91.8-96.8,91.8v434.3h0Z"/>
      <rect class="st7" x="1205.6" y="716.3" width="72.2" height="289.8"/>
      <path class="st7" d="M1278.2,1006.6h-73.2v-290.8h73.2v290.8h0ZM1206.1,1005.6h71.2v-288.8h-71.2v288.8h0Z"/>
      <rect class="st7" x="1290.4" y="729" width="134.5" height="289.8"/>
      <path class="st7" d="M1425.5,1019.2h-135.5v-290.8h135.5v290.8ZM1290.9,1018.2h133.5v-288.8h-133.5v288.8Z"/>
      <rect class="st7" x="47.7" y="958.6" width="1464.9" height="170.9"/>
      <path class="st7" d="M1513.1,1130H47.2v-171.9h1465.9v171.9ZM48.2,1129h1463.9v-169.9H48.2v169.9Z"/>
    </g>
    <g>
      <rect class="st8" x="87.3" y="767.1" width="134.5" height="258.8"/>
      <path class="st7" d="M222.4,1026.4H86.8v-259.8h135.5v259.8h0ZM87.8,1025.4h133.5v-257.8H87.8v257.8Z"/>
      <rect class="st8" x="439.4" y="765.7" width="62.4" height="258.8"/>
      <path class="st7" d="M502.3,1025h-63.4v-259.8h63.4v259.8ZM439.9,1024h61.4v-257.8h-61.4v257.8Z"/>
      <rect class="st8" x="862.6" y="698.4" width="134.5" height="289.8"/>
      <path class="st7" d="M997.7,988.7h-135.5v-290.8h135.5v290.8h0ZM863.1,987.7h133.5v-288.8h-133.5v288.8h0Z"/>
      <polygon class="st8" points="813.1 1026.1 618.8 1026.1 618.8 591.1 716.1 498.9 813.1 591.1 813.1 1026.1"/>
      <path class="st7" d="M813.6,1026.6h-195.3v-435.8l.2-.2,97.6-92.5,97.5,92.7v435.8h0ZM619.3,1025.6h193.3v-434.3l-96.5-91.8-96.8,91.8v434.3h0Z"/>
      <rect class="st8" x="1198.9" y="708.8" width="72.2" height="289.8"/>
      <path class="st7" d="M1271.6,999h-73.2v-290.8h73.2v290.8h0ZM1199.4,998h71.2v-288.8h-71.2v288.8h0Z"/>
      <rect class="st8" x="1283.8" y="721.4" width="134.5" height="289.8"/>
      <path class="st7" d="M1418.8,1011.7h-135.5v-290.8h135.5v290.8h0ZM1284.3,1010.7h133.5v-288.8h-133.5v288.8h0Z"/>
      <rect class="st8" x="41.1" y="951.1" width="1464.9" height="170.9"/>
      <path class="st7" d="M1506.5,1122.5H40.6v-171.9h1465.9v171.9ZM41.6,1121.5h1463.9v-169.9H41.6v169.9Z"/>
    </g>
  </g>
  <g id="Layer_4">
    <polygon class="st6" points="1403 649.4 1403 492.4 1309.4 492.4 1309.4 795.4 1187.3 795.4 1187.3 492.4 1118.5 492.4 1118.5 790.1 1008.1 790.1 1008.1 762.4 897.7 762.4 897.7 606.9 824.7 606.9 824.7 840.4 735.6 840.4 735.6 729.8 662.7 729.8 662.7 492.4 564.4 492.4 564.4 964.4 514.6 964.4 514.6 914.9 416.4 914.9 416.4 729.8 318.1 729.8 318.1 597.4 239.8 597.4 239.8 856.6 109.9 856.6 109.9 770.5 .8 770.5 .8 1032.4 109.9 1032.4 239.8 1032.4 318.1 1032.4 416.4 1032.4 514.6 1032.4 564.4 1032.4 662.7 1032.4 735.6 1032.4 824.7 1032.4 897.7 1032.4 1008.1 1032.4 1118.5 1032.4 1187.3 1032.4 1309.4 1032.4 1403 1032.4 1496.5 1032.4 1496.5 649.4 1403 649.4"/>
  </g>
  <g id="Layer_11" data-name="Layer_1">
    <rect class="st2" x="238.5" y="678.2" width="14.7" height="25.3"/>
    <rect class="st2" x="260.4" y="677.8" width="14.7" height="25.3"/>
    <rect class="st2" x="282" y="678.2" width="14.7" height="25.3"/>
    <rect class="st2" x="238.5" y="713.2" width="14.7" height="25.3"/>
    <rect class="st2" x="260.4" y="713.2" width="14.7" height="25.3"/>
    <rect class="st2" x="282" y="713.2" width="14.7" height="25.3"/>
    <polygon class="st0" points="1395 644.3 1395 487.4 1301.5 487.4 1301.5 790.4 1179.4 790.4 1179.4 487.4 1110.6 487.4 1110.6 785.1 1000.2 785.1 1000.2 757.4 889.8 757.4 889.8 601.9 816.8 601.9 816.8 835.4 727.6 835.4 727.6 724.8 654.8 724.8 654.8 487.4 556.5 487.4 556.5 959.4 506.7 959.4 506.7 909.9 408.5 909.9 408.5 724.8 310.2 724.8 310.2 592.4 231.9 592.4 231.9 851.6 102 851.6 102 765.5 -7.2 765.5 -7.2 1027.4 102 1027.4 231.9 1027.4 310.2 1027.4 408.5 1027.4 506.7 1027.4 556.5 1027.4 654.8 1027.4 727.6 1027.4 816.8 1027.4 889.8 1027.4 1000.2 1027.4 1110.6 1027.4 1179.4 1027.4 1301.5 1027.4 1395 1027.4 1488.6 1027.4 1488.6 644.3 1395 644.3"/>
    <rect class="st2" x="262" y="624.7" width="14.7" height="25.3"/>
    <rect class="st4" x="240.2" y="660.1" width="14.7" height="25.3"/>
    <rect class="st2" x="262" y="660.1" width="14.7" height="25.3"/>
    <rect class="st4" x="283.7" y="660.1" width="14.7" height="25.3"/>
    <rect class="st2" x="240.3" y="695.5" width="14.7" height="25.3"/>
    <rect class="st2" x="283.8" y="695.5" width="14.7" height="25.3"/>
    <rect class="st2" x="262.1" y="730.4" width="14.7" height="25.3"/>
    <rect class="st2" x="283.8" y="730.4" width="14.7" height="25.3"/>
    <rect class="st2" x="240.3" y="765.8" width="14.7" height="25.3"/>
    <rect class="st4" x="262.1" y="765.4" width="14.7" height="25.3"/>
    <rect class="st2" x="283.8" y="765.8" width="14.7" height="25.3"/>
    <rect class="st2" x="262.1" y="800.8" width="14.7" height="25.3"/>
    <rect class="st4" x="240.4" y="836.2" width="14.7" height="25.3"/>
    <rect class="st2" x="262.2" y="835.8" width="14.7" height="25.3"/>
    <rect class="st2" x="283.9" y="836.2" width="14.7" height="25.3"/>
    <rect class="st2" x="240.4" y="871.2" width="14.7" height="25.3"/>
    <rect class="st2" x="262.2" y="871.2" width="14.7" height="25.3"/>
    <rect class="st2" x="240.3" y="906.6" width="14.7" height="25.3"/>
    <rect class="st2" x="262.1" y="906.1" width="14.7" height="25.3"/>
    <rect class="st4" x="283.8" y="906.6" width="14.7" height="25.3"/>
    <rect class="st2" x="283.8" y="941.5" width="14.7" height="25.3"/>
    <rect class="st2" x="240.5" y="976.9" width="14.7" height="25.3"/>
    <rect class="st2" x="262.3" y="976.5" width="14.7" height="25.3"/>
    <rect class="st2" x="284" y="976.9" width="14.7" height="25.3"/>
    <rect class="st4" x="313.9" y="752.7" width="14.7" height="25.3"/>
    <rect class="st2" x="357.4" y="752.7" width="14.7" height="25.3"/>
    <rect class="st2" x="313.9" y="783.5" width="14.7" height="25.3"/>
    <rect class="st2" x="377.1" y="783.5" width="14.7" height="25.3"/>
    <rect class="st2" x="313.6" y="814.2" width="14.7" height="25.3"/>
    <rect class="st2" x="335.5" y="814.2" width="14.7" height="25.3"/>
    <rect class="st2" x="313.6" y="845" width="14.7" height="25.3"/>
    <rect class="st4" x="357.2" y="845" width="14.7" height="25.3"/>
    <rect class="st2" x="376.9" y="845" width="14.7" height="25.3"/>
    <rect class="st2" x="313.6" y="875.8" width="14.7" height="25.3"/>
    <rect class="st2" x="335.5" y="875.8" width="14.7" height="25.3"/>
    <rect class="st2" x="376.9" y="875.8" width="14.7" height="25.3"/>
    <rect class="st2" x="313.6" y="906.6" width="14.7" height="25.3"/>
    <rect class="st2" x="357.2" y="906.6" width="14.7" height="25.3"/>
    <rect class="st2" x="313.6" y="939.3" width="14.7" height="25.3"/>
    <rect class="st2" x="335.5" y="939.3" width="14.7" height="25.3"/>
    <rect class="st2" x="376.9" y="939.3" width="14.7" height="25.3"/>
    <rect class="st2" x="313.6" y="970.1" width="14.7" height="25.3"/>
    <rect class="st4" x="335.5" y="970.1" width="14.7" height="25.3"/>
    <rect class="st2" x="357.2" y="970.1" width="14.7" height="25.3"/>
    <rect class="st2" x="376.9" y="970.1" width="14.7" height="25.3"/>
    <rect class="st2" x="335.5" y="1000.8" width="14.7" height="25.3"/>
    <rect class="st2" x="171.6" y="863.4" width="14.7" height="25.3"/>
    <rect class="st2" x="193.5" y="862.9" width="14.7" height="25.3"/>
    <rect class="st2" x="215.2" y="863.4" width="14.7" height="25.3"/>
    <rect class="st2" x="104.1" y="863.6" width="14.7" height="25.3"/>
    <rect class="st2" x="147.6" y="863.6" width="14.7" height="25.3"/>
    <rect class="st2" x="171.6" y="894" width="14.7" height="25.3"/>
    <rect class="st2" x="215.2" y="894" width="14.7" height="25.3"/>
    <rect class="st2" x="104.1" y="894.2" width="14.7" height="25.3"/>
    <rect class="st2" x="126" y="893.8" width="14.7" height="25.3"/>
    <rect class="st2" x="147.6" y="894.2" width="14.7" height="25.3"/>
    <rect class="st2" x="171.6" y="926.7" width="14.7" height="25.3"/>
    <rect class="st4" x="193.5" y="926.3" width="14.7" height="25.3"/>
    <rect class="st2" x="215.2" y="926.7" width="14.7" height="25.3"/>
    <rect class="st2" x="104.1" y="926.9" width="14.7" height="25.3"/>
    <rect class="st4" x="126" y="926.5" width="14.7" height="25.3"/>
    <rect class="st2" x="171.6" y="957.5" width="14.7" height="25.3"/>
    <rect class="st2" x="193.5" y="957.1" width="14.7" height="25.3"/>
    <rect class="st2" x="215.2" y="957.5" width="14.7" height="25.3"/>
    <rect class="st2" x="104.1" y="957.7" width="14.7" height="25.3"/>
    <rect class="st2" x="126" y="957.3" width="14.7" height="25.3"/>
    <rect class="st4" x="147.6" y="957.7" width="14.7" height="25.3"/>
    <rect class="st2" x="962.4" y="767.3" width="14.7" height="25.3"/>
    <rect class="st2" x="894.9" y="767.5" width="14.7" height="25.3"/>
    <rect class="st2" x="938.4" y="767.5" width="14.7" height="25.3"/>
    <rect class="st2" x="962.4" y="797.9" width="14.7" height="25.3"/>
    <rect class="st2" x="894.9" y="798.1" width="14.7" height="25.3"/>
    <rect class="st4" x="962.4" y="830.6" width="14.7" height="25.3"/>
    <rect class="st2" x="962.4" y="861.4" width="14.7" height="25.3"/>
    <rect class="st2" x="894.9" y="861.7" width="14.7" height="25.3"/>
    <rect class="st2" x="916.7" y="861.2" width="14.7" height="25.3"/>
    <rect class="st4" x="3.7" y="780.2" width="14.7" height="25.3"/>
    <rect class="st4" x="49.6" y="810.1" width="14.7" height="25.3"/>
    <rect class="st4" x="71.2" y="810.6" width="14.7" height="25.3"/>
    <rect class="st2" x="27.7" y="843.3" width="14.7" height="25.3"/>
    <rect class="st2" x="49.6" y="873.6" width="14.7" height="25.3"/>
    <rect class="st2" x="71.2" y="910.6" width="14.7" height="25.3"/>
    <rect class="st2" x="3.7" y="910.9" width="14.7" height="25.3"/>
    <rect class="st2" x="25.3" y="911.3" width="14.7" height="25.3"/>
    <rect class="st2" x="49.3" y="941.9" width="14.7" height="25.3"/>
    <rect class="st4" x="3.7" y="941.7" width="14.7" height="25.3"/>
    <rect class="st4" x="68.8" y="982.8" width="14.7" height="25.3"/>
    <rect class="st2" x="23.1" y="982.6" width="14.7" height="25.3"/>
    <rect class="st2" x="675" y="737.2" width="17.4" height="25.3"/>
    <rect class="st2" x="569.5" y="739.5" width="17.4" height="25.3"/>
    <rect class="st4" x="620.9" y="739.5" width="17.4" height="25.3"/>
    <rect class="st2" x="1395.1" y="654.9" width="17.4" height="25.3"/>
    <rect class="st2" x="1446.4" y="654.9" width="17.4" height="25.3"/>
    <rect class="st2" x="1341.2" y="656.3" width="17.4" height="25.3"/>
    <rect class="st2" x="1366.7" y="656.8" width="17.4" height="25.3"/>
    <rect class="st2" x="1315.4" y="689.5" width="17.4" height="25.3"/>
    <rect class="st2" x="1341.2" y="687.4" width="17.4" height="25.3"/>
    <rect class="st2" x="1421" y="750.6" width="17.4" height="25.3"/>
    <rect class="st4" x="1446.5" y="751.1" width="17.4" height="25.3"/>
    <rect class="st2" x="1395.2" y="781.7" width="17.4" height="25.3"/>
    <rect class="st2" x="1421" y="781.3" width="17.4" height="25.3"/>
    <rect class="st2" x="1446.5" y="814.4" width="17.4" height="25.3"/>
    <rect class="st2" x="1421" y="844.8" width="17.4" height="25.3"/>
    <rect class="st2" x="1341.2" y="718.2" width="17.4" height="25.3"/>
    <rect class="st2" x="1315.6" y="751.9" width="17.4" height="25.3"/>
    <rect class="st2" x="1367" y="751.9" width="17.4" height="25.3"/>
    <rect class="st2" x="1315.6" y="782.5" width="17.4" height="25.3"/>
    <rect class="st4" x="1367" y="782.5" width="17.4" height="25.3"/>
    <rect class="st2" x="1341.2" y="494.4" width="17.4" height="25.3"/>
    <rect class="st4" x="1315.4" y="527.5" width="17.4" height="25.3"/>
    <rect class="st2" x="1341.2" y="525.4" width="17.4" height="25.3"/>
    <rect class="st4" x="1367" y="589.9" width="17.4" height="25.3"/>
    <rect class="st2" x="1315.6" y="620.6" width="17.4" height="25.3"/>
    <rect class="st2" x="1341.4" y="813.2" width="17.4" height="25.3"/>
    <rect class="st2" x="569.6" y="614" width="17.4" height="25.3"/>
    <rect class="st4" x="621" y="614" width="17.4" height="25.3"/>
    <rect class="st2" x="569.6" y="644.7" width="17.4" height="25.3"/>
    <rect class="st2" x="569.6" y="706.5" width="17.4" height="25.3"/>
    <rect class="st4" x="621" y="706.5" width="17.4" height="25.3"/>
    <rect class="st2" x="569.6" y="518.5" width="17.4" height="25.3"/>
    <rect class="st2" x="595.4" y="518" width="17.4" height="25.3"/>
    <rect class="st4" x="595.4" y="549.1" width="17.4" height="25.3"/>
    <rect class="st2" x="621" y="549.5" width="17.4" height="25.3"/>
    <rect class="st2" x="569.6" y="580.3" width="17.4" height="25.3"/>
    <rect class="st2" x="621" y="580.3" width="17.4" height="25.3"/>
    <rect class="st2" x="832.3" y="837.8" width="17.4" height="25.3"/>
    <rect class="st2" x="832.3" y="868.4" width="17.4" height="25.3"/>
    <rect class="st2" x="858.1" y="868" width="17.4" height="25.3"/>
    <rect class="st2" x="832.3" y="901.1" width="17.4" height="25.3"/>
    <rect class="st2" x="858.1" y="929.8" width="17.4" height="25.3"/>
    <rect class="st4" x="832.5" y="994.2" width="17.4" height="25.3"/>
    <rect class="st4" x="858.3" y="993.8" width="17.4" height="25.3"/>
    <rect class="st2" x="832.4" y="712.3" width="17.4" height="25.3"/>
    <rect class="st4" x="858.2" y="711.9" width="17.4" height="25.3"/>
    <rect class="st2" x="858.2" y="742.5" width="17.4" height="25.3"/>
    <rect class="st2" x="832.4" y="775.7" width="17.4" height="25.3"/>
    <rect class="st2" x="858.2" y="804.4" width="17.4" height="25.3"/>
    <rect class="st2" x="832.4" y="616.8" width="17.4" height="25.3"/>
    <rect class="st2" x="858.2" y="616.3" width="17.4" height="25.3"/>
    <rect class="st2" x="832.4" y="649.5" width="17.4" height="25.3"/>
    <rect class="st2" x="832.4" y="678.6" width="17.4" height="25.3"/>
    <rect class="st2" x="858.2" y="678.2" width="17.4" height="25.3"/>
    <rect class="st2" x="569.5" y="995.7" width="17.4" height="25.3"/>
    <rect class="st2" x="569.6" y="870.2" width="17.4" height="25.3"/>
    <rect class="st2" x="569.6" y="900.8" width="17.4" height="25.3"/>
    <rect class="st4" x="595.4" y="900.4" width="17.4" height="25.3"/>
    <rect class="st2" x="595.4" y="931.4" width="17.4" height="25.3"/>
    <rect class="st2" x="569.6" y="962.7" width="17.4" height="25.3"/>
    <rect class="st2" x="595.4" y="962.2" width="17.4" height="25.3"/>
    <rect class="st2" x="595.4" y="774.2" width="17.4" height="25.3"/>
    <rect class="st2" x="569.6" y="807.3" width="17.4" height="25.3"/>
    <rect class="st2" x="595.4" y="805.2" width="17.4" height="25.3"/>
    <rect class="st2" x="620.9" y="995.2" width="17.4" height="25.3"/>
    <rect class="st2" x="646.7" y="994.8" width="17.4" height="25.3"/>
    <rect class="st2" x="621" y="869.8" width="17.4" height="25.3"/>
    <rect class="st2" x="646.8" y="900" width="17.4" height="25.3"/>
    <rect class="st2" x="621" y="933.1" width="17.4" height="25.3"/>
    <rect class="st2" x="646.8" y="961.8" width="17.4" height="25.3"/>
    <rect class="st4" x="621" y="774.2" width="17.4" height="25.3"/>
    <rect class="st4" x="646.8" y="804.8" width="17.4" height="25.3"/>
    <rect class="st2" x="621" y="836" width="17.4" height="25.3"/>
    <rect class="st2" x="674.5" y="994.3" width="17.4" height="25.3"/>
    <rect class="st2" x="700.3" y="993.9" width="17.4" height="25.3"/>
    <rect class="st2" x="700.4" y="868.4" width="17.4" height="25.3"/>
    <rect class="st2" x="674.6" y="899.5" width="17.4" height="25.3"/>
    <rect class="st2" x="700.4" y="930.1" width="17.4" height="25.3"/>
    <rect class="st2" x="674.6" y="773.3" width="17.4" height="25.3"/>
    <rect class="st2" x="700.4" y="772.8" width="17.4" height="25.3"/>
    <rect class="st2" x="700.4" y="803.9" width="17.4" height="25.3"/>
    <rect class="st2" x="674.6" y="835.1" width="17.4" height="25.3"/>
    <rect class="st2" x="1123.9" y="751" width="17.4" height="25.3"/>
    <rect class="st2" x="1149.7" y="750.6" width="17.4" height="25.3"/>
    <rect class="st2" x="1123.9" y="783.7" width="17.4" height="25.3"/>
    <rect class="st2" x="1149.9" y="845.7" width="17.4" height="25.3"/>
    <rect class="st2" x="1124.1" y="876.8" width="17.4" height="25.3"/>
    <rect class="st2" x="1149.9" y="876.3" width="17.4" height="25.3"/>
    <rect class="st2" x="1124.1" y="938.6" width="17.4" height="25.3"/>
    <rect class="st2" x="1149.8" y="594.5" width="17.4" height="25.3"/>
    <rect class="st2" x="1124" y="625.5" width="17.4" height="25.3"/>
    <rect class="st4" x="1149.8" y="625.1" width="17.4" height="25.3"/>
    <rect class="st2" x="1149.8" y="686.9" width="17.4" height="25.3"/>
    <rect class="st2" x="1149.8" y="498.9" width="17.4" height="25.3"/>
    <rect class="st2" x="1124" y="561.2" width="17.4" height="25.3"/>
    <rect class="st2" x="1149.8" y="560.7" width="17.4" height="25.3"/>
    <rect class="st2" x="1420.9" y="876.8" width="17.4" height="25.3"/>
    <rect class="st2" x="1446.4" y="877.2" width="17.4" height="25.3"/>
    <rect class="st2" x="1315.4" y="879.1" width="17.4" height="25.3"/>
    <rect class="st4" x="1366.7" y="879.1" width="17.4" height="25.3"/>
    <rect class="st2" x="1395.1" y="909.9" width="17.4" height="25.3"/>
    <rect class="st2" x="1446.4" y="909.9" width="17.4" height="25.3"/>
    <rect class="st2" x="1315.4" y="911.8" width="17.4" height="25.3"/>
    <rect class="st2" x="1366.7" y="910.1" width="17.4" height="25.3"/>
    <rect class="st2" x="485.2" y="920.2" width="14.7" height="25.3"/>
    <rect class="st2" x="417.7" y="920.4" width="14.7" height="25.3"/>
    <rect class="st2" x="439.5" y="919.9" width="14.7" height="25.3"/>
    <rect class="st2" x="439.5" y="952.6" width="14.7" height="25.3"/>
    <rect class="st4" x="507.1" y="983.2" width="14.7" height="25.3"/>
    <rect class="st4" x="528.7" y="983.7" width="14.7" height="25.3"/>
    <rect class="st4" x="417.7" y="983.9" width="14.7" height="25.3"/>
    <rect class="st4" x="461.2" y="983.9" width="14.7" height="25.3"/>
    <rect class="st2" x="1043.9" y="795.3" width="14.7" height="25.3"/>
    <rect class="st2" x="1087.4" y="795.3" width="14.7" height="25.3"/>
    <rect class="st2" x="1019.8" y="795.5" width="14.7" height="25.3"/>
    <rect class="st2" x="1043.9" y="828" width="14.7" height="25.3"/>
    <rect class="st2" x="1087.4" y="828" width="14.7" height="25.3"/>
    <rect class="st2" x="1065.7" y="858.4" width="14.7" height="25.3"/>
    <rect class="st2" x="1087.4" y="858.8" width="14.7" height="25.3"/>
    <rect class="st2" x="1019.8" y="859.1" width="14.7" height="25.3"/>
    <rect class="st2" x="1088.5" y="894.2" width="14.7" height="25.3"/>
    <rect class="st2" x="1044.9" y="926.9" width="14.7" height="25.3"/>
    <rect class="st2" x="1088.5" y="926.9" width="14.7" height="25.3"/>
    <rect class="st2" x="999.3" y="926.7" width="14.7" height="25.3"/>
    <rect class="st2" x="1044.9" y="957.7" width="14.7" height="25.3"/>
    <rect class="st2" x="1020.9" y="957.9" width="14.7" height="25.3"/>
    <rect class="st2" x="896.3" y="895.5" width="14.7" height="25.3"/>
    <rect class="st4" x="939.9" y="895.5" width="14.7" height="25.3"/>
    <rect class="st2" x="963.9" y="926" width="14.7" height="25.3"/>
    <rect class="st2" x="918.2" y="925.8" width="14.7" height="25.3"/>
    <rect class="st2" x="963.9" y="958.7" width="14.7" height="25.3"/>
    <rect class="st2" x="896.3" y="958.9" width="14.7" height="25.3"/>
    <rect class="st2" x="918.2" y="958.5" width="14.7" height="25.3"/>
    <rect class="st2" x="963.9" y="989.5" width="14.7" height="25.3"/>
    <rect class="st2" x="918.2" y="989.2" width="14.7" height="25.3"/>
    <rect class="st2" x="939.9" y="989.7" width="14.7" height="25.3"/>
    <rect class="st2" x="801.4" y="846.7" width="14.7" height="25.3"/>
    <rect class="st2" x="733.9" y="846.9" width="14.7" height="25.3"/>
    <rect class="st2" x="777.4" y="846.9" width="14.7" height="25.3"/>
    <rect class="st2" x="801.4" y="877.4" width="14.7" height="25.3"/>
    <rect class="st2" x="733.9" y="877.6" width="14.7" height="25.3"/>
    <rect class="st4" x="755.8" y="877.1" width="14.7" height="25.3"/>
    <rect class="st2" x="777.4" y="877.6" width="14.7" height="25.3"/>
    <rect class="st2" x="801.4" y="910.1" width="14.7" height="25.3"/>
    <rect class="st2" x="733.9" y="910.3" width="14.7" height="25.3"/>
    <rect class="st2" x="755.8" y="909.8" width="14.7" height="25.3"/>
    <rect class="st2" x="801.4" y="940.9" width="14.7" height="25.3"/>
    <rect class="st2" x="733.9" y="941.1" width="14.7" height="25.3"/>
    <rect class="st2" x="755.8" y="940.6" width="14.7" height="25.3"/>
    <rect class="st2" x="777.4" y="941.1" width="14.7" height="25.3"/>
    <rect class="st2" x="1255.1" y="803.8" width="14.7" height="25.3"/>
    <rect class="st2" x="1187.5" y="804" width="14.7" height="25.3"/>
    <rect class="st2" x="1231" y="804" width="14.7" height="25.3"/>
    <rect class="st2" x="1255.1" y="834.4" width="14.7" height="25.3"/>
    <rect class="st2" x="1187.5" y="834.7" width="14.7" height="25.3"/>
    <rect class="st4" x="1209.4" y="834.2" width="14.7" height="25.3"/>
    <rect class="st2" x="1231" y="834.7" width="14.7" height="25.3"/>
    <rect class="st2" x="1255.1" y="867.1" width="14.7" height="25.3"/>
    <rect class="st2" x="1280.4" y="834.3" width="14.7" height="25.3"/>
    <rect class="st2" x="1280.4" y="867" width="14.7" height="25.3"/>
    <rect class="st2" x="1280.4" y="897.8" width="14.7" height="25.3"/>
    <rect class="st2" x="1187.5" y="898.2" width="14.7" height="25.3"/>
    <rect class="st2" x="1209.4" y="897.7" width="14.7" height="25.3"/>
    <rect class="st2" x="1231" y="898.2" width="14.7" height="25.3"/>
    <rect class="st2" x="1254.8" y="935.4" width="14.7" height="25.3"/>
    <rect class="st2" x="1187.2" y="935.7" width="14.7" height="25.3"/>
    <rect class="st2" x="1230.7" y="935.7" width="14.7" height="25.3"/>
    <rect class="st2" x="1254.8" y="966.1" width="14.7" height="25.3"/>
    <rect class="st2" x="1187.2" y="966.3" width="14.7" height="25.3"/>
    <rect class="st2" x="1209.1" y="965.8" width="14.7" height="25.3"/>
    <rect class="st2" x="1280.1" y="935.3" width="14.7" height="25.3"/>
  </g>
  <rect class="st1" x="1480" y="765.5" width="44" height="261.9"/>
  <line class="st3" x1="1486.1" y1="765.5" x2="1539.4" y2="765.5"/>
</svg>